G04 #@! TF.GenerationSoftware,KiCad,Pcbnew,(5.0.0)*
G04 #@! TF.CreationDate,2018-09-18T13:10:02-04:00*
G04 #@! TF.ProjectId,CPU8085,435055383038352E6B696361645F7063,A*
G04 #@! TF.SameCoordinates,Original*
G04 #@! TF.FileFunction,Legend,Top*
G04 #@! TF.FilePolarity,Positive*
%FSLAX46Y46*%
G04 Gerber Fmt 4.6, Leading zero omitted, Abs format (unit mm)*
G04 Created by KiCad (PCBNEW (5.0.0)) date 09/18/18 13:10:02*
%MOMM*%
%LPD*%
G01*
G04 APERTURE LIST*
%ADD10C,0.200000*%
%ADD11C,0.300000*%
%ADD12C,0.100000*%
%ADD13C,0.120000*%
%ADD14C,0.150000*%
G04 APERTURE END LIST*
D10*
X50038000Y-43942000D02*
X50038000Y-46228000D01*
X50038000Y-46228000D02*
X55118000Y-46228000D01*
X44958000Y-46228000D02*
X50038000Y-46228000D01*
X50038000Y-43942000D02*
X44958000Y-43942000D01*
X55118000Y-43942000D02*
X50038000Y-43942000D01*
X36830000Y-51816000D02*
X40386000Y-51816000D01*
X40386000Y-51562000D02*
X40386000Y-51816000D01*
X40386000Y-49784000D02*
X36830000Y-49784000D01*
X37846095Y-50300000D02*
X37750857Y-50252380D01*
X37608000Y-50252380D01*
X37465142Y-50300000D01*
X37369904Y-50395238D01*
X37322285Y-50490476D01*
X37274666Y-50680952D01*
X37274666Y-50823809D01*
X37322285Y-51014285D01*
X37369904Y-51109523D01*
X37465142Y-51204761D01*
X37608000Y-51252380D01*
X37703238Y-51252380D01*
X37846095Y-51204761D01*
X37893714Y-51157142D01*
X37893714Y-50823809D01*
X37703238Y-50823809D01*
X38322285Y-51252380D02*
X38322285Y-50252380D01*
X38893714Y-51252380D01*
X38893714Y-50252380D01*
X39369904Y-51252380D02*
X39369904Y-50252380D01*
X39608000Y-50252380D01*
X39750857Y-50300000D01*
X39846095Y-50395238D01*
X39893714Y-50490476D01*
X39941333Y-50680952D01*
X39941333Y-50823809D01*
X39893714Y-51014285D01*
X39846095Y-51109523D01*
X39750857Y-51204761D01*
X39608000Y-51252380D01*
X39369904Y-51252380D01*
X36830000Y-49784000D02*
X36830000Y-51816000D01*
X40386000Y-49784000D02*
X40386000Y-51816000D01*
X131826000Y-86360000D02*
X131826000Y-88392000D01*
X133858000Y-86360000D02*
X133858000Y-88392000D01*
X133858000Y-86360000D02*
X131826000Y-86360000D01*
X131826000Y-88392000D02*
X133858000Y-88392000D01*
X132651523Y-86828380D02*
X132175333Y-86828380D01*
X132127714Y-87304571D01*
X132175333Y-87256952D01*
X132270571Y-87209333D01*
X132508666Y-87209333D01*
X132603904Y-87256952D01*
X132651523Y-87304571D01*
X132699142Y-87399809D01*
X132699142Y-87637904D01*
X132651523Y-87733142D01*
X132603904Y-87780761D01*
X132508666Y-87828380D01*
X132270571Y-87828380D01*
X132175333Y-87780761D01*
X132127714Y-87733142D01*
X132984857Y-86828380D02*
X133318190Y-87828380D01*
X133651523Y-86828380D01*
X130238666Y-58634380D02*
X130572000Y-59634380D01*
X130905333Y-58634380D01*
X131810095Y-59539142D02*
X131762476Y-59586761D01*
X131619619Y-59634380D01*
X131524380Y-59634380D01*
X131381523Y-59586761D01*
X131286285Y-59491523D01*
X131238666Y-59396285D01*
X131191047Y-59205809D01*
X131191047Y-59062952D01*
X131238666Y-58872476D01*
X131286285Y-58777238D01*
X131381523Y-58682000D01*
X131524380Y-58634380D01*
X131619619Y-58634380D01*
X131762476Y-58682000D01*
X131810095Y-58729619D01*
X132810095Y-59539142D02*
X132762476Y-59586761D01*
X132619619Y-59634380D01*
X132524380Y-59634380D01*
X132381523Y-59586761D01*
X132286285Y-59491523D01*
X132238666Y-59396285D01*
X132191047Y-59205809D01*
X132191047Y-59062952D01*
X132238666Y-58872476D01*
X132286285Y-58777238D01*
X132381523Y-58682000D01*
X132524380Y-58634380D01*
X132619619Y-58634380D01*
X132762476Y-58682000D01*
X132810095Y-58729619D01*
X38608095Y-75446000D02*
X38512857Y-75398380D01*
X38370000Y-75398380D01*
X38227142Y-75446000D01*
X38131904Y-75541238D01*
X38084285Y-75636476D01*
X38036666Y-75826952D01*
X38036666Y-75969809D01*
X38084285Y-76160285D01*
X38131904Y-76255523D01*
X38227142Y-76350761D01*
X38370000Y-76398380D01*
X38465238Y-76398380D01*
X38608095Y-76350761D01*
X38655714Y-76303142D01*
X38655714Y-75969809D01*
X38465238Y-75969809D01*
X39084285Y-76398380D02*
X39084285Y-75398380D01*
X39655714Y-76398380D01*
X39655714Y-75398380D01*
X40131904Y-76398380D02*
X40131904Y-75398380D01*
X40370000Y-75398380D01*
X40512857Y-75446000D01*
X40608095Y-75541238D01*
X40655714Y-75636476D01*
X40703333Y-75826952D01*
X40703333Y-75969809D01*
X40655714Y-76160285D01*
X40608095Y-76255523D01*
X40512857Y-76350761D01*
X40370000Y-76398380D01*
X40131904Y-76398380D01*
X127436952Y-90066761D02*
X127579809Y-90114380D01*
X127817904Y-90114380D01*
X127913142Y-90066761D01*
X127960761Y-90019142D01*
X128008380Y-89923904D01*
X128008380Y-89828666D01*
X127960761Y-89733428D01*
X127913142Y-89685809D01*
X127817904Y-89638190D01*
X127627428Y-89590571D01*
X127532190Y-89542952D01*
X127484571Y-89495333D01*
X127436952Y-89400095D01*
X127436952Y-89304857D01*
X127484571Y-89209619D01*
X127532190Y-89162000D01*
X127627428Y-89114380D01*
X127865523Y-89114380D01*
X128008380Y-89162000D01*
X128436952Y-90114380D02*
X128436952Y-89114380D01*
X128817904Y-89114380D01*
X128913142Y-89162000D01*
X128960761Y-89209619D01*
X129008380Y-89304857D01*
X129008380Y-89447714D01*
X128960761Y-89542952D01*
X128913142Y-89590571D01*
X128817904Y-89638190D01*
X128436952Y-89638190D01*
X129436952Y-89590571D02*
X129770285Y-89590571D01*
X129913142Y-90114380D02*
X129436952Y-90114380D01*
X129436952Y-89114380D01*
X129913142Y-89114380D01*
X130294095Y-89828666D02*
X130770285Y-89828666D01*
X130198857Y-90114380D02*
X130532190Y-89114380D01*
X130865523Y-90114380D01*
X131198857Y-90114380D02*
X131198857Y-89114380D01*
X131770285Y-90114380D02*
X131341714Y-89542952D01*
X131770285Y-89114380D02*
X131198857Y-89685809D01*
X132198857Y-89590571D02*
X132532190Y-89590571D01*
X132675047Y-90114380D02*
X132198857Y-90114380D01*
X132198857Y-89114380D01*
X132675047Y-89114380D01*
X133675047Y-90114380D02*
X133341714Y-89638190D01*
X133103619Y-90114380D02*
X133103619Y-89114380D01*
X133484571Y-89114380D01*
X133579809Y-89162000D01*
X133627428Y-89209619D01*
X133675047Y-89304857D01*
X133675047Y-89447714D01*
X133627428Y-89542952D01*
X133579809Y-89590571D01*
X133484571Y-89638190D01*
X133103619Y-89638190D01*
X55118000Y-43942000D02*
X55118000Y-46228000D01*
X44958000Y-46228000D02*
X44958000Y-43942000D01*
D11*
X51435142Y-44462000D02*
X51292285Y-44390571D01*
X51078000Y-44390571D01*
X50863714Y-44462000D01*
X50720857Y-44604857D01*
X50649428Y-44747714D01*
X50578000Y-45033428D01*
X50578000Y-45247714D01*
X50649428Y-45533428D01*
X50720857Y-45676285D01*
X50863714Y-45819142D01*
X51078000Y-45890571D01*
X51220857Y-45890571D01*
X51435142Y-45819142D01*
X51506571Y-45747714D01*
X51506571Y-45247714D01*
X51220857Y-45247714D01*
X52149428Y-45890571D02*
X52149428Y-44390571D01*
X53006571Y-45890571D01*
X53006571Y-44390571D01*
X53720857Y-45890571D02*
X53720857Y-44390571D01*
X54078000Y-44390571D01*
X54292285Y-44462000D01*
X54435142Y-44604857D01*
X54506571Y-44747714D01*
X54578000Y-45033428D01*
X54578000Y-45247714D01*
X54506571Y-45533428D01*
X54435142Y-45676285D01*
X54292285Y-45819142D01*
X54078000Y-45890571D01*
X53720857Y-45890571D01*
X47212285Y-44390571D02*
X46498000Y-44390571D01*
X46426571Y-45104857D01*
X46498000Y-45033428D01*
X46640857Y-44962000D01*
X46998000Y-44962000D01*
X47140857Y-45033428D01*
X47212285Y-45104857D01*
X47283714Y-45247714D01*
X47283714Y-45604857D01*
X47212285Y-45747714D01*
X47140857Y-45819142D01*
X46998000Y-45890571D01*
X46640857Y-45890571D01*
X46498000Y-45819142D01*
X46426571Y-45747714D01*
X47712285Y-44390571D02*
X48212285Y-45890571D01*
X48712285Y-44390571D01*
X63429142Y-64916857D02*
X62929142Y-64916857D01*
X62929142Y-65702571D02*
X62929142Y-64202571D01*
X63643428Y-64202571D01*
X64000571Y-64202571D02*
X64857714Y-64202571D01*
X64429142Y-65702571D02*
X64429142Y-64202571D01*
X65357714Y-65702571D02*
X65357714Y-64202571D01*
X65714857Y-64202571D01*
X65929142Y-64274000D01*
X66072000Y-64416857D01*
X66143428Y-64559714D01*
X66214857Y-64845428D01*
X66214857Y-65059714D01*
X66143428Y-65345428D01*
X66072000Y-65488285D01*
X65929142Y-65631142D01*
X65714857Y-65702571D01*
X65357714Y-65702571D01*
X66857714Y-65702571D02*
X66857714Y-64202571D01*
X67572000Y-65131142D02*
X68714857Y-65131142D01*
X69429142Y-64202571D02*
X69429142Y-65416857D01*
X69500571Y-65559714D01*
X69572000Y-65631142D01*
X69714857Y-65702571D01*
X70000571Y-65702571D01*
X70143428Y-65631142D01*
X70214857Y-65559714D01*
X70286285Y-65416857D01*
X70286285Y-64202571D01*
X70929142Y-65631142D02*
X71143428Y-65702571D01*
X71500571Y-65702571D01*
X71643428Y-65631142D01*
X71714857Y-65559714D01*
X71786285Y-65416857D01*
X71786285Y-65274000D01*
X71714857Y-65131142D01*
X71643428Y-65059714D01*
X71500571Y-64988285D01*
X71214857Y-64916857D01*
X71072000Y-64845428D01*
X71000571Y-64774000D01*
X70929142Y-64631142D01*
X70929142Y-64488285D01*
X71000571Y-64345428D01*
X71072000Y-64274000D01*
X71214857Y-64202571D01*
X71572000Y-64202571D01*
X71786285Y-64274000D01*
X72929142Y-64916857D02*
X73143428Y-64988285D01*
X73214857Y-65059714D01*
X73286285Y-65202571D01*
X73286285Y-65416857D01*
X73214857Y-65559714D01*
X73143428Y-65631142D01*
X73000571Y-65702571D01*
X72429142Y-65702571D01*
X72429142Y-64202571D01*
X72929142Y-64202571D01*
X73072000Y-64274000D01*
X73143428Y-64345428D01*
X73214857Y-64488285D01*
X73214857Y-64631142D01*
X73143428Y-64774000D01*
X73072000Y-64845428D01*
X72929142Y-64916857D01*
X72429142Y-64916857D01*
X124353142Y-47438571D02*
X124353142Y-48652857D01*
X124424571Y-48795714D01*
X124496000Y-48867142D01*
X124638857Y-48938571D01*
X124924571Y-48938571D01*
X125067428Y-48867142D01*
X125138857Y-48795714D01*
X125210285Y-48652857D01*
X125210285Y-47438571D01*
X125853142Y-48510000D02*
X126567428Y-48510000D01*
X125710285Y-48938571D02*
X126210285Y-47438571D01*
X126710285Y-48938571D01*
X128067428Y-48938571D02*
X127567428Y-48224285D01*
X127210285Y-48938571D02*
X127210285Y-47438571D01*
X127781714Y-47438571D01*
X127924571Y-47510000D01*
X127996000Y-47581428D01*
X128067428Y-47724285D01*
X128067428Y-47938571D01*
X127996000Y-48081428D01*
X127924571Y-48152857D01*
X127781714Y-48224285D01*
X127210285Y-48224285D01*
X128496000Y-47438571D02*
X129353142Y-47438571D01*
X128924571Y-48938571D02*
X128924571Y-47438571D01*
X84022571Y-73830571D02*
X84022571Y-72330571D01*
X84594000Y-72330571D01*
X84736857Y-72402000D01*
X84808285Y-72473428D01*
X84879714Y-72616285D01*
X84879714Y-72830571D01*
X84808285Y-72973428D01*
X84736857Y-73044857D01*
X84594000Y-73116285D01*
X84022571Y-73116285D01*
X85522571Y-73830571D02*
X85522571Y-72330571D01*
X86022571Y-72330571D02*
X86879714Y-72330571D01*
X86451142Y-73830571D02*
X86451142Y-72330571D01*
X121900285Y-130218571D02*
X121400285Y-129504285D01*
X121043142Y-130218571D02*
X121043142Y-128718571D01*
X121614571Y-128718571D01*
X121757428Y-128790000D01*
X121828857Y-128861428D01*
X121900285Y-129004285D01*
X121900285Y-129218571D01*
X121828857Y-129361428D01*
X121757428Y-129432857D01*
X121614571Y-129504285D01*
X121043142Y-129504285D01*
X122471714Y-129790000D02*
X123186000Y-129790000D01*
X122328857Y-130218571D02*
X122828857Y-128718571D01*
X123328857Y-130218571D01*
X123828857Y-130218571D02*
X123828857Y-128718571D01*
X124328857Y-129790000D01*
X124828857Y-128718571D01*
X124828857Y-130218571D01*
X102199428Y-130472571D02*
X101699428Y-129758285D01*
X101342285Y-130472571D02*
X101342285Y-128972571D01*
X101913714Y-128972571D01*
X102056571Y-129044000D01*
X102128000Y-129115428D01*
X102199428Y-129258285D01*
X102199428Y-129472571D01*
X102128000Y-129615428D01*
X102056571Y-129686857D01*
X101913714Y-129758285D01*
X101342285Y-129758285D01*
X103128000Y-128972571D02*
X103413714Y-128972571D01*
X103556571Y-129044000D01*
X103699428Y-129186857D01*
X103770857Y-129472571D01*
X103770857Y-129972571D01*
X103699428Y-130258285D01*
X103556571Y-130401142D01*
X103413714Y-130472571D01*
X103128000Y-130472571D01*
X102985142Y-130401142D01*
X102842285Y-130258285D01*
X102770857Y-129972571D01*
X102770857Y-129472571D01*
X102842285Y-129186857D01*
X102985142Y-129044000D01*
X103128000Y-128972571D01*
X104413714Y-130472571D02*
X104413714Y-128972571D01*
X104913714Y-130044000D01*
X105413714Y-128972571D01*
X105413714Y-130472571D01*
X57602571Y-130329714D02*
X57531142Y-130401142D01*
X57316857Y-130472571D01*
X57174000Y-130472571D01*
X56959714Y-130401142D01*
X56816857Y-130258285D01*
X56745428Y-130115428D01*
X56674000Y-129829714D01*
X56674000Y-129615428D01*
X56745428Y-129329714D01*
X56816857Y-129186857D01*
X56959714Y-129044000D01*
X57174000Y-128972571D01*
X57316857Y-128972571D01*
X57531142Y-129044000D01*
X57602571Y-129115428D01*
X58245428Y-130472571D02*
X58245428Y-128972571D01*
X58816857Y-128972571D01*
X58959714Y-129044000D01*
X59031142Y-129115428D01*
X59102571Y-129258285D01*
X59102571Y-129472571D01*
X59031142Y-129615428D01*
X58959714Y-129686857D01*
X58816857Y-129758285D01*
X58245428Y-129758285D01*
X59745428Y-128972571D02*
X59745428Y-130186857D01*
X59816857Y-130329714D01*
X59888285Y-130401142D01*
X60031142Y-130472571D01*
X60316857Y-130472571D01*
X60459714Y-130401142D01*
X60531142Y-130329714D01*
X60602571Y-130186857D01*
X60602571Y-128972571D01*
D10*
X40457619Y-56332380D02*
X40124285Y-55856190D01*
X39886190Y-56332380D02*
X39886190Y-55332380D01*
X40267142Y-55332380D01*
X40362380Y-55380000D01*
X40410000Y-55427619D01*
X40457619Y-55522857D01*
X40457619Y-55665714D01*
X40410000Y-55760952D01*
X40362380Y-55808571D01*
X40267142Y-55856190D01*
X39886190Y-55856190D01*
X40886190Y-55808571D02*
X41219523Y-55808571D01*
X41362380Y-56332380D02*
X40886190Y-56332380D01*
X40886190Y-55332380D01*
X41362380Y-55332380D01*
X41743333Y-56284761D02*
X41886190Y-56332380D01*
X42124285Y-56332380D01*
X42219523Y-56284761D01*
X42267142Y-56237142D01*
X42314761Y-56141904D01*
X42314761Y-56046666D01*
X42267142Y-55951428D01*
X42219523Y-55903809D01*
X42124285Y-55856190D01*
X41933809Y-55808571D01*
X41838571Y-55760952D01*
X41790952Y-55713333D01*
X41743333Y-55618095D01*
X41743333Y-55522857D01*
X41790952Y-55427619D01*
X41838571Y-55380000D01*
X41933809Y-55332380D01*
X42171904Y-55332380D01*
X42314761Y-55380000D01*
X42743333Y-55808571D02*
X43076666Y-55808571D01*
X43219523Y-56332380D02*
X42743333Y-56332380D01*
X42743333Y-55332380D01*
X43219523Y-55332380D01*
X43505238Y-55332380D02*
X44076666Y-55332380D01*
X43790952Y-56332380D02*
X43790952Y-55332380D01*
D12*
X97600952Y-38285952D02*
X97505714Y-38238333D01*
X97458095Y-38190714D01*
X97410476Y-38095476D01*
X97410476Y-38047857D01*
X97458095Y-37952619D01*
X97505714Y-37905000D01*
X97600952Y-37857380D01*
X97791428Y-37857380D01*
X97886666Y-37905000D01*
X97934285Y-37952619D01*
X97981904Y-38047857D01*
X97981904Y-38095476D01*
X97934285Y-38190714D01*
X97886666Y-38238333D01*
X97791428Y-38285952D01*
X97600952Y-38285952D01*
X97505714Y-38333571D01*
X97458095Y-38381190D01*
X97410476Y-38476428D01*
X97410476Y-38666904D01*
X97458095Y-38762142D01*
X97505714Y-38809761D01*
X97600952Y-38857380D01*
X97791428Y-38857380D01*
X97886666Y-38809761D01*
X97934285Y-38762142D01*
X97981904Y-38666904D01*
X97981904Y-38476428D01*
X97934285Y-38381190D01*
X97886666Y-38333571D01*
X97791428Y-38285952D01*
X98600952Y-37857380D02*
X98696190Y-37857380D01*
X98791428Y-37905000D01*
X98839047Y-37952619D01*
X98886666Y-38047857D01*
X98934285Y-38238333D01*
X98934285Y-38476428D01*
X98886666Y-38666904D01*
X98839047Y-38762142D01*
X98791428Y-38809761D01*
X98696190Y-38857380D01*
X98600952Y-38857380D01*
X98505714Y-38809761D01*
X98458095Y-38762142D01*
X98410476Y-38666904D01*
X98362857Y-38476428D01*
X98362857Y-38238333D01*
X98410476Y-38047857D01*
X98458095Y-37952619D01*
X98505714Y-37905000D01*
X98600952Y-37857380D01*
X99505714Y-38285952D02*
X99410476Y-38238333D01*
X99362857Y-38190714D01*
X99315238Y-38095476D01*
X99315238Y-38047857D01*
X99362857Y-37952619D01*
X99410476Y-37905000D01*
X99505714Y-37857380D01*
X99696190Y-37857380D01*
X99791428Y-37905000D01*
X99839047Y-37952619D01*
X99886666Y-38047857D01*
X99886666Y-38095476D01*
X99839047Y-38190714D01*
X99791428Y-38238333D01*
X99696190Y-38285952D01*
X99505714Y-38285952D01*
X99410476Y-38333571D01*
X99362857Y-38381190D01*
X99315238Y-38476428D01*
X99315238Y-38666904D01*
X99362857Y-38762142D01*
X99410476Y-38809761D01*
X99505714Y-38857380D01*
X99696190Y-38857380D01*
X99791428Y-38809761D01*
X99839047Y-38762142D01*
X99886666Y-38666904D01*
X99886666Y-38476428D01*
X99839047Y-38381190D01*
X99791428Y-38333571D01*
X99696190Y-38285952D01*
X100791428Y-37857380D02*
X100315238Y-37857380D01*
X100267619Y-38333571D01*
X100315238Y-38285952D01*
X100410476Y-38238333D01*
X100648571Y-38238333D01*
X100743809Y-38285952D01*
X100791428Y-38333571D01*
X100839047Y-38428809D01*
X100839047Y-38666904D01*
X100791428Y-38762142D01*
X100743809Y-38809761D01*
X100648571Y-38857380D01*
X100410476Y-38857380D01*
X100315238Y-38809761D01*
X100267619Y-38762142D01*
X102029523Y-38857380D02*
X102029523Y-37857380D01*
X102362857Y-38571666D01*
X102696190Y-37857380D01*
X102696190Y-38857380D01*
X103124761Y-38571666D02*
X103600952Y-38571666D01*
X103029523Y-38857380D02*
X103362857Y-37857380D01*
X103696190Y-38857380D01*
X104029523Y-38857380D02*
X104029523Y-37857380D01*
X104505714Y-38857380D02*
X104505714Y-37857380D01*
X105077142Y-38857380D01*
X105077142Y-37857380D01*
X106648571Y-38333571D02*
X106791428Y-38381190D01*
X106839047Y-38428809D01*
X106886666Y-38524047D01*
X106886666Y-38666904D01*
X106839047Y-38762142D01*
X106791428Y-38809761D01*
X106696190Y-38857380D01*
X106315238Y-38857380D01*
X106315238Y-37857380D01*
X106648571Y-37857380D01*
X106743809Y-37905000D01*
X106791428Y-37952619D01*
X106839047Y-38047857D01*
X106839047Y-38143095D01*
X106791428Y-38238333D01*
X106743809Y-38285952D01*
X106648571Y-38333571D01*
X106315238Y-38333571D01*
X107505714Y-37857380D02*
X107696190Y-37857380D01*
X107791428Y-37905000D01*
X107886666Y-38000238D01*
X107934285Y-38190714D01*
X107934285Y-38524047D01*
X107886666Y-38714523D01*
X107791428Y-38809761D01*
X107696190Y-38857380D01*
X107505714Y-38857380D01*
X107410476Y-38809761D01*
X107315238Y-38714523D01*
X107267619Y-38524047D01*
X107267619Y-38190714D01*
X107315238Y-38000238D01*
X107410476Y-37905000D01*
X107505714Y-37857380D01*
X108315238Y-38571666D02*
X108791428Y-38571666D01*
X108220000Y-38857380D02*
X108553333Y-37857380D01*
X108886666Y-38857380D01*
X109791428Y-38857380D02*
X109458095Y-38381190D01*
X109220000Y-38857380D02*
X109220000Y-37857380D01*
X109600952Y-37857380D01*
X109696190Y-37905000D01*
X109743809Y-37952619D01*
X109791428Y-38047857D01*
X109791428Y-38190714D01*
X109743809Y-38285952D01*
X109696190Y-38333571D01*
X109600952Y-38381190D01*
X109220000Y-38381190D01*
X110220000Y-38857380D02*
X110220000Y-37857380D01*
X110458095Y-37857380D01*
X110600952Y-37905000D01*
X110696190Y-38000238D01*
X110743809Y-38095476D01*
X110791428Y-38285952D01*
X110791428Y-38428809D01*
X110743809Y-38619285D01*
X110696190Y-38714523D01*
X110600952Y-38809761D01*
X110458095Y-38857380D01*
X110220000Y-38857380D01*
X97410476Y-39552619D02*
X97458095Y-39505000D01*
X97553333Y-39457380D01*
X97791428Y-39457380D01*
X97886666Y-39505000D01*
X97934285Y-39552619D01*
X97981904Y-39647857D01*
X97981904Y-39743095D01*
X97934285Y-39885952D01*
X97362857Y-40457380D01*
X97981904Y-40457380D01*
X98600952Y-39457380D02*
X98696190Y-39457380D01*
X98791428Y-39505000D01*
X98839047Y-39552619D01*
X98886666Y-39647857D01*
X98934285Y-39838333D01*
X98934285Y-40076428D01*
X98886666Y-40266904D01*
X98839047Y-40362142D01*
X98791428Y-40409761D01*
X98696190Y-40457380D01*
X98600952Y-40457380D01*
X98505714Y-40409761D01*
X98458095Y-40362142D01*
X98410476Y-40266904D01*
X98362857Y-40076428D01*
X98362857Y-39838333D01*
X98410476Y-39647857D01*
X98458095Y-39552619D01*
X98505714Y-39505000D01*
X98600952Y-39457380D01*
X99886666Y-40457380D02*
X99315238Y-40457380D01*
X99600952Y-40457380D02*
X99600952Y-39457380D01*
X99505714Y-39600238D01*
X99410476Y-39695476D01*
X99315238Y-39743095D01*
X100458095Y-39885952D02*
X100362857Y-39838333D01*
X100315238Y-39790714D01*
X100267619Y-39695476D01*
X100267619Y-39647857D01*
X100315238Y-39552619D01*
X100362857Y-39505000D01*
X100458095Y-39457380D01*
X100648571Y-39457380D01*
X100743809Y-39505000D01*
X100791428Y-39552619D01*
X100839047Y-39647857D01*
X100839047Y-39695476D01*
X100791428Y-39790714D01*
X100743809Y-39838333D01*
X100648571Y-39885952D01*
X100458095Y-39885952D01*
X100362857Y-39933571D01*
X100315238Y-39981190D01*
X100267619Y-40076428D01*
X100267619Y-40266904D01*
X100315238Y-40362142D01*
X100362857Y-40409761D01*
X100458095Y-40457380D01*
X100648571Y-40457380D01*
X100743809Y-40409761D01*
X100791428Y-40362142D01*
X100839047Y-40266904D01*
X100839047Y-40076428D01*
X100791428Y-39981190D01*
X100743809Y-39933571D01*
X100648571Y-39885952D01*
X101267619Y-40076428D02*
X102029523Y-40076428D01*
X102696190Y-39457380D02*
X102791428Y-39457380D01*
X102886666Y-39505000D01*
X102934285Y-39552619D01*
X102981904Y-39647857D01*
X103029523Y-39838333D01*
X103029523Y-40076428D01*
X102981904Y-40266904D01*
X102934285Y-40362142D01*
X102886666Y-40409761D01*
X102791428Y-40457380D01*
X102696190Y-40457380D01*
X102600952Y-40409761D01*
X102553333Y-40362142D01*
X102505714Y-40266904D01*
X102458095Y-40076428D01*
X102458095Y-39838333D01*
X102505714Y-39647857D01*
X102553333Y-39552619D01*
X102600952Y-39505000D01*
X102696190Y-39457380D01*
X103505714Y-40457380D02*
X103696190Y-40457380D01*
X103791428Y-40409761D01*
X103839047Y-40362142D01*
X103934285Y-40219285D01*
X103981904Y-40028809D01*
X103981904Y-39647857D01*
X103934285Y-39552619D01*
X103886666Y-39505000D01*
X103791428Y-39457380D01*
X103600952Y-39457380D01*
X103505714Y-39505000D01*
X103458095Y-39552619D01*
X103410476Y-39647857D01*
X103410476Y-39885952D01*
X103458095Y-39981190D01*
X103505714Y-40028809D01*
X103600952Y-40076428D01*
X103791428Y-40076428D01*
X103886666Y-40028809D01*
X103934285Y-39981190D01*
X103981904Y-39885952D01*
X105172380Y-40457380D02*
X105172380Y-39457380D01*
X105410476Y-39457380D01*
X105553333Y-39505000D01*
X105648571Y-39600238D01*
X105696190Y-39695476D01*
X105743809Y-39885952D01*
X105743809Y-40028809D01*
X105696190Y-40219285D01*
X105648571Y-40314523D01*
X105553333Y-40409761D01*
X105410476Y-40457380D01*
X105172380Y-40457380D01*
X106315238Y-40457380D02*
X106220000Y-40409761D01*
X106172380Y-40362142D01*
X106124761Y-40266904D01*
X106124761Y-39981190D01*
X106172380Y-39885952D01*
X106220000Y-39838333D01*
X106315238Y-39790714D01*
X106458095Y-39790714D01*
X106553333Y-39838333D01*
X106600952Y-39885952D01*
X106648571Y-39981190D01*
X106648571Y-40266904D01*
X106600952Y-40362142D01*
X106553333Y-40409761D01*
X106458095Y-40457380D01*
X106315238Y-40457380D01*
X107077142Y-40457380D02*
X107077142Y-39790714D01*
X107077142Y-39885952D02*
X107124761Y-39838333D01*
X107220000Y-39790714D01*
X107362857Y-39790714D01*
X107458095Y-39838333D01*
X107505714Y-39933571D01*
X107505714Y-40457380D01*
X107505714Y-39933571D02*
X107553333Y-39838333D01*
X107648571Y-39790714D01*
X107791428Y-39790714D01*
X107886666Y-39838333D01*
X107934285Y-39933571D01*
X107934285Y-40457380D01*
X108410476Y-40457380D02*
X108410476Y-39790714D01*
X108410476Y-39457380D02*
X108362857Y-39505000D01*
X108410476Y-39552619D01*
X108458095Y-39505000D01*
X108410476Y-39457380D01*
X108410476Y-39552619D01*
X108886666Y-39790714D02*
X108886666Y-40457380D01*
X108886666Y-39885952D02*
X108934285Y-39838333D01*
X109029523Y-39790714D01*
X109172380Y-39790714D01*
X109267619Y-39838333D01*
X109315238Y-39933571D01*
X109315238Y-40457380D01*
X109791428Y-40457380D02*
X109791428Y-39790714D01*
X109791428Y-39457380D02*
X109743809Y-39505000D01*
X109791428Y-39552619D01*
X109839047Y-39505000D01*
X109791428Y-39457380D01*
X109791428Y-39552619D01*
X110696190Y-40409761D02*
X110600952Y-40457380D01*
X110410476Y-40457380D01*
X110315238Y-40409761D01*
X110267619Y-40362142D01*
X110220000Y-40266904D01*
X110220000Y-39981190D01*
X110267619Y-39885952D01*
X110315238Y-39838333D01*
X110410476Y-39790714D01*
X110600952Y-39790714D01*
X110696190Y-39838333D01*
X111743809Y-39457380D02*
X112315238Y-39457380D01*
X112029523Y-40457380D02*
X112029523Y-39457380D01*
X112648571Y-40457380D02*
X112648571Y-39457380D01*
X113077142Y-40457380D02*
X113077142Y-39933571D01*
X113029523Y-39838333D01*
X112934285Y-39790714D01*
X112791428Y-39790714D01*
X112696190Y-39838333D01*
X112648571Y-39885952D01*
X113553333Y-40457380D02*
X113553333Y-39790714D01*
X113553333Y-39457380D02*
X113505714Y-39505000D01*
X113553333Y-39552619D01*
X113600952Y-39505000D01*
X113553333Y-39457380D01*
X113553333Y-39552619D01*
X114029523Y-40457380D02*
X114029523Y-39457380D01*
X114029523Y-39838333D02*
X114124761Y-39790714D01*
X114315238Y-39790714D01*
X114410476Y-39838333D01*
X114458095Y-39885952D01*
X114505714Y-39981190D01*
X114505714Y-40266904D01*
X114458095Y-40362142D01*
X114410476Y-40409761D01*
X114315238Y-40457380D01*
X114124761Y-40457380D01*
X114029523Y-40409761D01*
X115077142Y-40457380D02*
X114981904Y-40409761D01*
X114934285Y-40362142D01*
X114886666Y-40266904D01*
X114886666Y-39981190D01*
X114934285Y-39885952D01*
X114981904Y-39838333D01*
X115077142Y-39790714D01*
X115220000Y-39790714D01*
X115315238Y-39838333D01*
X115362857Y-39885952D01*
X115410476Y-39981190D01*
X115410476Y-40266904D01*
X115362857Y-40362142D01*
X115315238Y-40409761D01*
X115220000Y-40457380D01*
X115077142Y-40457380D01*
X116267619Y-40457380D02*
X116267619Y-39457380D01*
X116267619Y-40409761D02*
X116172380Y-40457380D01*
X115981904Y-40457380D01*
X115886666Y-40409761D01*
X115839047Y-40362142D01*
X115791428Y-40266904D01*
X115791428Y-39981190D01*
X115839047Y-39885952D01*
X115886666Y-39838333D01*
X115981904Y-39790714D01*
X116172380Y-39790714D01*
X116267619Y-39838333D01*
X117124761Y-40409761D02*
X117029523Y-40457380D01*
X116839047Y-40457380D01*
X116743809Y-40409761D01*
X116696190Y-40314523D01*
X116696190Y-39933571D01*
X116743809Y-39838333D01*
X116839047Y-39790714D01*
X117029523Y-39790714D01*
X117124761Y-39838333D01*
X117172380Y-39933571D01*
X117172380Y-40028809D01*
X116696190Y-40124047D01*
X118029523Y-40457380D02*
X118029523Y-39933571D01*
X117981904Y-39838333D01*
X117886666Y-39790714D01*
X117696190Y-39790714D01*
X117600952Y-39838333D01*
X118029523Y-40409761D02*
X117934285Y-40457380D01*
X117696190Y-40457380D01*
X117600952Y-40409761D01*
X117553333Y-40314523D01*
X117553333Y-40219285D01*
X117600952Y-40124047D01*
X117696190Y-40076428D01*
X117934285Y-40076428D01*
X118029523Y-40028809D01*
X118934285Y-39790714D02*
X118934285Y-40457380D01*
X118505714Y-39790714D02*
X118505714Y-40314523D01*
X118553333Y-40409761D01*
X118648571Y-40457380D01*
X118791428Y-40457380D01*
X118886666Y-40409761D01*
X118934285Y-40362142D01*
X98029523Y-42057380D02*
X97696190Y-41581190D01*
X97458095Y-42057380D02*
X97458095Y-41057380D01*
X97839047Y-41057380D01*
X97934285Y-41105000D01*
X97981904Y-41152619D01*
X98029523Y-41247857D01*
X98029523Y-41390714D01*
X97981904Y-41485952D01*
X97934285Y-41533571D01*
X97839047Y-41581190D01*
X97458095Y-41581190D01*
X98458095Y-41533571D02*
X98791428Y-41533571D01*
X98934285Y-42057380D02*
X98458095Y-42057380D01*
X98458095Y-41057380D01*
X98934285Y-41057380D01*
X99220000Y-41057380D02*
X99553333Y-42057380D01*
X99886666Y-41057380D01*
X100934285Y-41771666D02*
X101410476Y-41771666D01*
X100839047Y-42057380D02*
X101172380Y-41057380D01*
X101505714Y-42057380D01*
D13*
G04 #@! TO.C,D1*
X49110000Y-65890000D02*
X49110000Y-63650000D01*
X49110000Y-63650000D02*
X44870000Y-63650000D01*
X44870000Y-63650000D02*
X44870000Y-65890000D01*
X44870000Y-65890000D02*
X49110000Y-65890000D01*
X51030000Y-64770000D02*
X49110000Y-64770000D01*
X42950000Y-64770000D02*
X44870000Y-64770000D01*
X48390000Y-65890000D02*
X48390000Y-63650000D01*
X48270000Y-65890000D02*
X48270000Y-63650000D01*
X48510000Y-65890000D02*
X48510000Y-63650000D01*
G04 #@! TO.C,R1*
X50260000Y-61060000D02*
X50260000Y-58320000D01*
X50260000Y-58320000D02*
X43720000Y-58320000D01*
X43720000Y-58320000D02*
X43720000Y-61060000D01*
X43720000Y-61060000D02*
X50260000Y-61060000D01*
X51030000Y-59690000D02*
X50260000Y-59690000D01*
X42950000Y-59690000D02*
X43720000Y-59690000D01*
G04 #@! TO.C,R2*
X121436000Y-78232000D02*
X122206000Y-78232000D01*
X129516000Y-78232000D02*
X128746000Y-78232000D01*
X122206000Y-79602000D02*
X128746000Y-79602000D01*
X122206000Y-76862000D02*
X122206000Y-79602000D01*
X128746000Y-76862000D02*
X122206000Y-76862000D01*
X128746000Y-79602000D02*
X128746000Y-76862000D01*
G04 #@! TO.C,R3*
X122206000Y-79910000D02*
X122206000Y-82650000D01*
X122206000Y-82650000D02*
X128746000Y-82650000D01*
X128746000Y-82650000D02*
X128746000Y-79910000D01*
X128746000Y-79910000D02*
X122206000Y-79910000D01*
X121436000Y-81280000D02*
X122206000Y-81280000D01*
X129516000Y-81280000D02*
X128746000Y-81280000D01*
D14*
G04 #@! TO.C,U5*
X71755000Y-39370000D02*
X71755000Y-36870000D01*
X61595000Y-39370000D02*
X71755000Y-39370000D01*
X61595000Y-36870000D02*
X61595000Y-39370000D01*
D13*
X73135000Y-36830000D02*
X65654673Y-36830000D01*
X73135000Y-63560000D02*
X73135000Y-36830000D01*
X60215000Y-63560000D02*
X73135000Y-63560000D01*
X60215000Y-36830000D02*
X60215000Y-63560000D01*
X65675000Y-36830000D02*
X60215000Y-36830000D01*
G04 #@! TO.C,RN3*
X102786000Y-46866000D02*
X102786000Y-44066000D01*
X102786000Y-44066000D02*
X87206000Y-44066000D01*
X87206000Y-44066000D02*
X87206000Y-46866000D01*
X87206000Y-46866000D02*
X102786000Y-46866000D01*
X100076000Y-46866000D02*
X100076000Y-44066000D01*
G04 #@! TO.C,J1*
X54648000Y-38210000D02*
X54648000Y-37610000D01*
X53048000Y-38210000D02*
X54648000Y-38210000D01*
X53048000Y-37610000D02*
X53048000Y-38210000D01*
X52108000Y-38210000D02*
X52108000Y-37610000D01*
X50508000Y-38210000D02*
X52108000Y-38210000D01*
X50508000Y-37610000D02*
X50508000Y-38210000D01*
X49568000Y-38210000D02*
X49568000Y-37610000D01*
X47968000Y-38210000D02*
X49568000Y-38210000D01*
X47968000Y-37610000D02*
X47968000Y-38210000D01*
X47028000Y-38210000D02*
X47028000Y-37610000D01*
X45428000Y-38210000D02*
X47028000Y-38210000D01*
X45428000Y-37610000D02*
X45428000Y-38210000D01*
X53598000Y-43630000D02*
X53598000Y-42630000D01*
X46478000Y-43630000D02*
X46478000Y-42630000D01*
X53598000Y-42100000D02*
X53848000Y-42630000D01*
X46478000Y-42100000D02*
X53598000Y-42100000D01*
X46228000Y-42630000D02*
X46478000Y-42100000D01*
X53848000Y-42630000D02*
X53848000Y-43630000D01*
X46228000Y-42630000D02*
X53848000Y-42630000D01*
X46228000Y-43630000D02*
X46228000Y-42630000D01*
X44558000Y-38640000D02*
X44558000Y-42640000D01*
X55228000Y-37610000D02*
X44848000Y-37610000D01*
X55228000Y-43630000D02*
X55228000Y-37610000D01*
X44848000Y-43630000D02*
X55228000Y-43630000D01*
X44848000Y-37610000D02*
X44848000Y-43630000D01*
G04 #@! TO.C,Q1*
X124099205Y-75222184D02*
G75*
G02X123372000Y-74698000I1122795J2324184D01*
G01*
X126320807Y-75254400D02*
G75*
G03X127822000Y-72898000I-1098807J2356400D01*
G01*
X126320807Y-70541600D02*
G75*
G02X127822000Y-72898000I-1098807J-2356400D01*
G01*
X124099205Y-70573816D02*
G75*
G03X123372000Y-71098000I1122795J-2324184D01*
G01*
X123372000Y-71098000D02*
X123372000Y-74698000D01*
G04 #@! TO.C,C10*
X126947000Y-83785225D02*
X126447000Y-83785225D01*
X126697000Y-83535225D02*
X126697000Y-84035225D01*
X125506000Y-88941000D02*
X124938000Y-88941000D01*
X125740000Y-88901000D02*
X124704000Y-88901000D01*
X125899000Y-88861000D02*
X124545000Y-88861000D01*
X126027000Y-88821000D02*
X124417000Y-88821000D01*
X126137000Y-88781000D02*
X124307000Y-88781000D01*
X126233000Y-88741000D02*
X124211000Y-88741000D01*
X126320000Y-88701000D02*
X124124000Y-88701000D01*
X126400000Y-88661000D02*
X124044000Y-88661000D01*
X124182000Y-88621000D02*
X123971000Y-88621000D01*
X126473000Y-88621000D02*
X126262000Y-88621000D01*
X124182000Y-88581000D02*
X123903000Y-88581000D01*
X126541000Y-88581000D02*
X126262000Y-88581000D01*
X124182000Y-88541000D02*
X123839000Y-88541000D01*
X126605000Y-88541000D02*
X126262000Y-88541000D01*
X124182000Y-88501000D02*
X123779000Y-88501000D01*
X126665000Y-88501000D02*
X126262000Y-88501000D01*
X124182000Y-88461000D02*
X123722000Y-88461000D01*
X126722000Y-88461000D02*
X126262000Y-88461000D01*
X124182000Y-88421000D02*
X123668000Y-88421000D01*
X126776000Y-88421000D02*
X126262000Y-88421000D01*
X124182000Y-88381000D02*
X123617000Y-88381000D01*
X126827000Y-88381000D02*
X126262000Y-88381000D01*
X124182000Y-88341000D02*
X123569000Y-88341000D01*
X126875000Y-88341000D02*
X126262000Y-88341000D01*
X124182000Y-88301000D02*
X123523000Y-88301000D01*
X126921000Y-88301000D02*
X126262000Y-88301000D01*
X124182000Y-88261000D02*
X123479000Y-88261000D01*
X126965000Y-88261000D02*
X126262000Y-88261000D01*
X124182000Y-88221000D02*
X123437000Y-88221000D01*
X127007000Y-88221000D02*
X126262000Y-88221000D01*
X124182000Y-88181000D02*
X123396000Y-88181000D01*
X127048000Y-88181000D02*
X126262000Y-88181000D01*
X124182000Y-88141000D02*
X123358000Y-88141000D01*
X127086000Y-88141000D02*
X126262000Y-88141000D01*
X124182000Y-88101000D02*
X123321000Y-88101000D01*
X127123000Y-88101000D02*
X126262000Y-88101000D01*
X124182000Y-88061000D02*
X123285000Y-88061000D01*
X127159000Y-88061000D02*
X126262000Y-88061000D01*
X124182000Y-88021000D02*
X123251000Y-88021000D01*
X127193000Y-88021000D02*
X126262000Y-88021000D01*
X124182000Y-87981000D02*
X123218000Y-87981000D01*
X127226000Y-87981000D02*
X126262000Y-87981000D01*
X124182000Y-87941000D02*
X123187000Y-87941000D01*
X127257000Y-87941000D02*
X126262000Y-87941000D01*
X124182000Y-87901000D02*
X123157000Y-87901000D01*
X127287000Y-87901000D02*
X126262000Y-87901000D01*
X124182000Y-87861000D02*
X123127000Y-87861000D01*
X127317000Y-87861000D02*
X126262000Y-87861000D01*
X124182000Y-87821000D02*
X123100000Y-87821000D01*
X127344000Y-87821000D02*
X126262000Y-87821000D01*
X124182000Y-87781000D02*
X123073000Y-87781000D01*
X127371000Y-87781000D02*
X126262000Y-87781000D01*
X124182000Y-87741000D02*
X123047000Y-87741000D01*
X127397000Y-87741000D02*
X126262000Y-87741000D01*
X124182000Y-87701000D02*
X123022000Y-87701000D01*
X127422000Y-87701000D02*
X126262000Y-87701000D01*
X124182000Y-87661000D02*
X122998000Y-87661000D01*
X127446000Y-87661000D02*
X126262000Y-87661000D01*
X124182000Y-87621000D02*
X122975000Y-87621000D01*
X127469000Y-87621000D02*
X126262000Y-87621000D01*
X124182000Y-87581000D02*
X122954000Y-87581000D01*
X127490000Y-87581000D02*
X126262000Y-87581000D01*
X124182000Y-87541000D02*
X122932000Y-87541000D01*
X127512000Y-87541000D02*
X126262000Y-87541000D01*
X124182000Y-87501000D02*
X122912000Y-87501000D01*
X127532000Y-87501000D02*
X126262000Y-87501000D01*
X124182000Y-87461000D02*
X122893000Y-87461000D01*
X127551000Y-87461000D02*
X126262000Y-87461000D01*
X124182000Y-87421000D02*
X122874000Y-87421000D01*
X127570000Y-87421000D02*
X126262000Y-87421000D01*
X124182000Y-87381000D02*
X122857000Y-87381000D01*
X127587000Y-87381000D02*
X126262000Y-87381000D01*
X124182000Y-87341000D02*
X122840000Y-87341000D01*
X127604000Y-87341000D02*
X126262000Y-87341000D01*
X124182000Y-87301000D02*
X122824000Y-87301000D01*
X127620000Y-87301000D02*
X126262000Y-87301000D01*
X124182000Y-87261000D02*
X122808000Y-87261000D01*
X127636000Y-87261000D02*
X126262000Y-87261000D01*
X124182000Y-87221000D02*
X122794000Y-87221000D01*
X127650000Y-87221000D02*
X126262000Y-87221000D01*
X124182000Y-87181000D02*
X122780000Y-87181000D01*
X127664000Y-87181000D02*
X126262000Y-87181000D01*
X124182000Y-87141000D02*
X122767000Y-87141000D01*
X127677000Y-87141000D02*
X126262000Y-87141000D01*
X124182000Y-87101000D02*
X122754000Y-87101000D01*
X127690000Y-87101000D02*
X126262000Y-87101000D01*
X124182000Y-87061000D02*
X122742000Y-87061000D01*
X127702000Y-87061000D02*
X126262000Y-87061000D01*
X124182000Y-87020000D02*
X122731000Y-87020000D01*
X127713000Y-87020000D02*
X126262000Y-87020000D01*
X124182000Y-86980000D02*
X122721000Y-86980000D01*
X127723000Y-86980000D02*
X126262000Y-86980000D01*
X124182000Y-86940000D02*
X122711000Y-86940000D01*
X127733000Y-86940000D02*
X126262000Y-86940000D01*
X124182000Y-86900000D02*
X122702000Y-86900000D01*
X127742000Y-86900000D02*
X126262000Y-86900000D01*
X124182000Y-86860000D02*
X122694000Y-86860000D01*
X127750000Y-86860000D02*
X126262000Y-86860000D01*
X124182000Y-86820000D02*
X122686000Y-86820000D01*
X127758000Y-86820000D02*
X126262000Y-86820000D01*
X124182000Y-86780000D02*
X122679000Y-86780000D01*
X127765000Y-86780000D02*
X126262000Y-86780000D01*
X124182000Y-86740000D02*
X122672000Y-86740000D01*
X127772000Y-86740000D02*
X126262000Y-86740000D01*
X124182000Y-86700000D02*
X122666000Y-86700000D01*
X127778000Y-86700000D02*
X126262000Y-86700000D01*
X124182000Y-86660000D02*
X122661000Y-86660000D01*
X127783000Y-86660000D02*
X126262000Y-86660000D01*
X124182000Y-86620000D02*
X122657000Y-86620000D01*
X127787000Y-86620000D02*
X126262000Y-86620000D01*
X124182000Y-86580000D02*
X122653000Y-86580000D01*
X127791000Y-86580000D02*
X126262000Y-86580000D01*
X127795000Y-86540000D02*
X122649000Y-86540000D01*
X127798000Y-86500000D02*
X122646000Y-86500000D01*
X127800000Y-86460000D02*
X122644000Y-86460000D01*
X127801000Y-86420000D02*
X122643000Y-86420000D01*
X127802000Y-86380000D02*
X122642000Y-86380000D01*
X127802000Y-86340000D02*
X122642000Y-86340000D01*
X127842000Y-86340000D02*
G75*
G03X127842000Y-86340000I-2620000J0D01*
G01*
G04 #@! TO.C,J2*
X131886000Y-88706000D02*
X130556000Y-88706000D01*
X131886000Y-87376000D02*
X131886000Y-88706000D01*
X131886000Y-86106000D02*
X129226000Y-86106000D01*
X129226000Y-86106000D02*
X129226000Y-83506000D01*
X131886000Y-86106000D02*
X131886000Y-83506000D01*
X131886000Y-83506000D02*
X129226000Y-83506000D01*
G04 #@! TO.C,U6*
X118230000Y-88960000D02*
X118230000Y-71060000D01*
X87510000Y-88960000D02*
X118230000Y-88960000D01*
X87510000Y-71060000D02*
X87510000Y-88960000D01*
X118230000Y-71060000D02*
X87510000Y-71060000D01*
X118170000Y-86470000D02*
X118170000Y-81010000D01*
X87570000Y-86470000D02*
X118170000Y-86470000D01*
X87570000Y-73550000D02*
X87570000Y-86470000D01*
X118170000Y-73550000D02*
X87570000Y-73550000D01*
X118170000Y-79010000D02*
X118170000Y-73550000D01*
X118170000Y-81010000D02*
G75*
G02X118170000Y-79010000I0J1000000D01*
G01*
G04 #@! TO.C,U4*
X78620000Y-49470000D02*
X78620000Y-67370000D01*
X129660000Y-49470000D02*
X78620000Y-49470000D01*
X129660000Y-67370000D02*
X129660000Y-49470000D01*
X78620000Y-67370000D02*
X129660000Y-67370000D01*
X78680000Y-51960000D02*
X78680000Y-57420000D01*
X129600000Y-51960000D02*
X78680000Y-51960000D01*
X129600000Y-64880000D02*
X129600000Y-51960000D01*
X78680000Y-64880000D02*
X129600000Y-64880000D01*
X78680000Y-59420000D02*
X78680000Y-64880000D01*
X78680000Y-57420000D02*
G75*
G02X78680000Y-59420000I0J-1000000D01*
G01*
G04 #@! TO.C,U7*
X61020000Y-77350000D02*
X43120000Y-77350000D01*
X61020000Y-128390000D02*
X61020000Y-77350000D01*
X43120000Y-128390000D02*
X61020000Y-128390000D01*
X43120000Y-77350000D02*
X43120000Y-128390000D01*
X58530000Y-77410000D02*
X53070000Y-77410000D01*
X58530000Y-128330000D02*
X58530000Y-77410000D01*
X45610000Y-128330000D02*
X58530000Y-128330000D01*
X45610000Y-77410000D02*
X45610000Y-128330000D01*
X51070000Y-77410000D02*
X45610000Y-77410000D01*
X53070000Y-77410000D02*
G75*
G02X51070000Y-77410000I-1000000J0D01*
G01*
G04 #@! TO.C,U2*
X87570000Y-128390000D02*
X105470000Y-128390000D01*
X87570000Y-92590000D02*
X87570000Y-128390000D01*
X105470000Y-92590000D02*
X87570000Y-92590000D01*
X105470000Y-128390000D02*
X105470000Y-92590000D01*
X90060000Y-128330000D02*
X95520000Y-128330000D01*
X90060000Y-92650000D02*
X90060000Y-128330000D01*
X102980000Y-92650000D02*
X90060000Y-92650000D01*
X102980000Y-128330000D02*
X102980000Y-92650000D01*
X97520000Y-128330000D02*
X102980000Y-128330000D01*
X95520000Y-128330000D02*
G75*
G02X97520000Y-128330000I1000000J0D01*
G01*
G04 #@! TO.C,C8*
X47805000Y-54644775D02*
X48305000Y-54644775D01*
X48055000Y-54894775D02*
X48055000Y-54394775D01*
X49246000Y-49489000D02*
X49814000Y-49489000D01*
X49012000Y-49529000D02*
X50048000Y-49529000D01*
X48853000Y-49569000D02*
X50207000Y-49569000D01*
X48725000Y-49609000D02*
X50335000Y-49609000D01*
X48615000Y-49649000D02*
X50445000Y-49649000D01*
X48519000Y-49689000D02*
X50541000Y-49689000D01*
X48432000Y-49729000D02*
X50628000Y-49729000D01*
X48352000Y-49769000D02*
X50708000Y-49769000D01*
X50570000Y-49809000D02*
X50781000Y-49809000D01*
X48279000Y-49809000D02*
X48490000Y-49809000D01*
X50570000Y-49849000D02*
X50849000Y-49849000D01*
X48211000Y-49849000D02*
X48490000Y-49849000D01*
X50570000Y-49889000D02*
X50913000Y-49889000D01*
X48147000Y-49889000D02*
X48490000Y-49889000D01*
X50570000Y-49929000D02*
X50973000Y-49929000D01*
X48087000Y-49929000D02*
X48490000Y-49929000D01*
X50570000Y-49969000D02*
X51030000Y-49969000D01*
X48030000Y-49969000D02*
X48490000Y-49969000D01*
X50570000Y-50009000D02*
X51084000Y-50009000D01*
X47976000Y-50009000D02*
X48490000Y-50009000D01*
X50570000Y-50049000D02*
X51135000Y-50049000D01*
X47925000Y-50049000D02*
X48490000Y-50049000D01*
X50570000Y-50089000D02*
X51183000Y-50089000D01*
X47877000Y-50089000D02*
X48490000Y-50089000D01*
X50570000Y-50129000D02*
X51229000Y-50129000D01*
X47831000Y-50129000D02*
X48490000Y-50129000D01*
X50570000Y-50169000D02*
X51273000Y-50169000D01*
X47787000Y-50169000D02*
X48490000Y-50169000D01*
X50570000Y-50209000D02*
X51315000Y-50209000D01*
X47745000Y-50209000D02*
X48490000Y-50209000D01*
X50570000Y-50249000D02*
X51356000Y-50249000D01*
X47704000Y-50249000D02*
X48490000Y-50249000D01*
X50570000Y-50289000D02*
X51394000Y-50289000D01*
X47666000Y-50289000D02*
X48490000Y-50289000D01*
X50570000Y-50329000D02*
X51431000Y-50329000D01*
X47629000Y-50329000D02*
X48490000Y-50329000D01*
X50570000Y-50369000D02*
X51467000Y-50369000D01*
X47593000Y-50369000D02*
X48490000Y-50369000D01*
X50570000Y-50409000D02*
X51501000Y-50409000D01*
X47559000Y-50409000D02*
X48490000Y-50409000D01*
X50570000Y-50449000D02*
X51534000Y-50449000D01*
X47526000Y-50449000D02*
X48490000Y-50449000D01*
X50570000Y-50489000D02*
X51565000Y-50489000D01*
X47495000Y-50489000D02*
X48490000Y-50489000D01*
X50570000Y-50529000D02*
X51595000Y-50529000D01*
X47465000Y-50529000D02*
X48490000Y-50529000D01*
X50570000Y-50569000D02*
X51625000Y-50569000D01*
X47435000Y-50569000D02*
X48490000Y-50569000D01*
X50570000Y-50609000D02*
X51652000Y-50609000D01*
X47408000Y-50609000D02*
X48490000Y-50609000D01*
X50570000Y-50649000D02*
X51679000Y-50649000D01*
X47381000Y-50649000D02*
X48490000Y-50649000D01*
X50570000Y-50689000D02*
X51705000Y-50689000D01*
X47355000Y-50689000D02*
X48490000Y-50689000D01*
X50570000Y-50729000D02*
X51730000Y-50729000D01*
X47330000Y-50729000D02*
X48490000Y-50729000D01*
X50570000Y-50769000D02*
X51754000Y-50769000D01*
X47306000Y-50769000D02*
X48490000Y-50769000D01*
X50570000Y-50809000D02*
X51777000Y-50809000D01*
X47283000Y-50809000D02*
X48490000Y-50809000D01*
X50570000Y-50849000D02*
X51798000Y-50849000D01*
X47262000Y-50849000D02*
X48490000Y-50849000D01*
X50570000Y-50889000D02*
X51820000Y-50889000D01*
X47240000Y-50889000D02*
X48490000Y-50889000D01*
X50570000Y-50929000D02*
X51840000Y-50929000D01*
X47220000Y-50929000D02*
X48490000Y-50929000D01*
X50570000Y-50969000D02*
X51859000Y-50969000D01*
X47201000Y-50969000D02*
X48490000Y-50969000D01*
X50570000Y-51009000D02*
X51878000Y-51009000D01*
X47182000Y-51009000D02*
X48490000Y-51009000D01*
X50570000Y-51049000D02*
X51895000Y-51049000D01*
X47165000Y-51049000D02*
X48490000Y-51049000D01*
X50570000Y-51089000D02*
X51912000Y-51089000D01*
X47148000Y-51089000D02*
X48490000Y-51089000D01*
X50570000Y-51129000D02*
X51928000Y-51129000D01*
X47132000Y-51129000D02*
X48490000Y-51129000D01*
X50570000Y-51169000D02*
X51944000Y-51169000D01*
X47116000Y-51169000D02*
X48490000Y-51169000D01*
X50570000Y-51209000D02*
X51958000Y-51209000D01*
X47102000Y-51209000D02*
X48490000Y-51209000D01*
X50570000Y-51249000D02*
X51972000Y-51249000D01*
X47088000Y-51249000D02*
X48490000Y-51249000D01*
X50570000Y-51289000D02*
X51985000Y-51289000D01*
X47075000Y-51289000D02*
X48490000Y-51289000D01*
X50570000Y-51329000D02*
X51998000Y-51329000D01*
X47062000Y-51329000D02*
X48490000Y-51329000D01*
X50570000Y-51369000D02*
X52010000Y-51369000D01*
X47050000Y-51369000D02*
X48490000Y-51369000D01*
X50570000Y-51410000D02*
X52021000Y-51410000D01*
X47039000Y-51410000D02*
X48490000Y-51410000D01*
X50570000Y-51450000D02*
X52031000Y-51450000D01*
X47029000Y-51450000D02*
X48490000Y-51450000D01*
X50570000Y-51490000D02*
X52041000Y-51490000D01*
X47019000Y-51490000D02*
X48490000Y-51490000D01*
X50570000Y-51530000D02*
X52050000Y-51530000D01*
X47010000Y-51530000D02*
X48490000Y-51530000D01*
X50570000Y-51570000D02*
X52058000Y-51570000D01*
X47002000Y-51570000D02*
X48490000Y-51570000D01*
X50570000Y-51610000D02*
X52066000Y-51610000D01*
X46994000Y-51610000D02*
X48490000Y-51610000D01*
X50570000Y-51650000D02*
X52073000Y-51650000D01*
X46987000Y-51650000D02*
X48490000Y-51650000D01*
X50570000Y-51690000D02*
X52080000Y-51690000D01*
X46980000Y-51690000D02*
X48490000Y-51690000D01*
X50570000Y-51730000D02*
X52086000Y-51730000D01*
X46974000Y-51730000D02*
X48490000Y-51730000D01*
X50570000Y-51770000D02*
X52091000Y-51770000D01*
X46969000Y-51770000D02*
X48490000Y-51770000D01*
X50570000Y-51810000D02*
X52095000Y-51810000D01*
X46965000Y-51810000D02*
X48490000Y-51810000D01*
X50570000Y-51850000D02*
X52099000Y-51850000D01*
X46961000Y-51850000D02*
X48490000Y-51850000D01*
X46957000Y-51890000D02*
X52103000Y-51890000D01*
X46954000Y-51930000D02*
X52106000Y-51930000D01*
X46952000Y-51970000D02*
X52108000Y-51970000D01*
X46951000Y-52010000D02*
X52109000Y-52010000D01*
X46950000Y-52050000D02*
X52110000Y-52050000D01*
X46950000Y-52090000D02*
X52110000Y-52090000D01*
X52150000Y-52090000D02*
G75*
G03X52150000Y-52090000I-2620000J0D01*
G01*
G04 #@! TO.C,C9*
X59069000Y-69184000D02*
X57811000Y-69184000D01*
X59069000Y-71024000D02*
X57811000Y-71024000D01*
G04 #@! TO.C,C1*
X130390000Y-66370000D02*
X130325000Y-66370000D01*
X132565000Y-66370000D02*
X132500000Y-66370000D01*
X130390000Y-63130000D02*
X130325000Y-63130000D01*
X132565000Y-63130000D02*
X132500000Y-63130000D01*
X130325000Y-63130000D02*
X130325000Y-66370000D01*
X132565000Y-63130000D02*
X132565000Y-66370000D01*
G04 #@! TO.C,C2*
X91770000Y-131865000D02*
X91770000Y-131930000D01*
X91770000Y-129690000D02*
X91770000Y-129755000D01*
X88530000Y-131865000D02*
X88530000Y-131930000D01*
X88530000Y-129690000D02*
X88530000Y-129755000D01*
X88530000Y-131930000D02*
X91770000Y-131930000D01*
X88530000Y-129690000D02*
X91770000Y-129690000D01*
G04 #@! TO.C,C3*
X119750000Y-131865000D02*
X119750000Y-131930000D01*
X119750000Y-129690000D02*
X119750000Y-129755000D01*
X116510000Y-131865000D02*
X116510000Y-131930000D01*
X116510000Y-129690000D02*
X116510000Y-129755000D01*
X116510000Y-131930000D02*
X119750000Y-131930000D01*
X116510000Y-129690000D02*
X119750000Y-129690000D01*
G04 #@! TO.C,C4*
X75870000Y-68795000D02*
X75870000Y-68730000D01*
X75870000Y-70970000D02*
X75870000Y-70905000D01*
X79110000Y-68795000D02*
X79110000Y-68730000D01*
X79110000Y-70970000D02*
X79110000Y-70905000D01*
X79110000Y-68730000D02*
X75870000Y-68730000D01*
X79110000Y-70970000D02*
X75870000Y-70970000D01*
G04 #@! TO.C,C5*
X70790000Y-129755000D02*
X70790000Y-129690000D01*
X70790000Y-131930000D02*
X70790000Y-131865000D01*
X74030000Y-129755000D02*
X74030000Y-129690000D01*
X74030000Y-131930000D02*
X74030000Y-131865000D01*
X74030000Y-129690000D02*
X70790000Y-129690000D01*
X74030000Y-131930000D02*
X70790000Y-131930000D01*
G04 #@! TO.C,C6*
X121705000Y-84760000D02*
X121770000Y-84760000D01*
X119530000Y-84760000D02*
X119595000Y-84760000D01*
X121705000Y-88000000D02*
X121770000Y-88000000D01*
X119530000Y-88000000D02*
X119595000Y-88000000D01*
X121770000Y-88000000D02*
X121770000Y-84760000D01*
X119530000Y-88000000D02*
X119530000Y-84760000D01*
G04 #@! TO.C,U1*
X77580000Y-72330000D02*
X75930000Y-72330000D01*
X77580000Y-97850000D02*
X77580000Y-72330000D01*
X72280000Y-97850000D02*
X77580000Y-97850000D01*
X72280000Y-72330000D02*
X72280000Y-97850000D01*
X73930000Y-72330000D02*
X72280000Y-72330000D01*
X75930000Y-72330000D02*
G75*
G02X73930000Y-72330000I-1000000J0D01*
G01*
G04 #@! TO.C,U8*
X77580000Y-102810000D02*
X75930000Y-102810000D01*
X77580000Y-128330000D02*
X77580000Y-102810000D01*
X72280000Y-128330000D02*
X77580000Y-128330000D01*
X72280000Y-102810000D02*
X72280000Y-128330000D01*
X73930000Y-102810000D02*
X72280000Y-102810000D01*
X75930000Y-102810000D02*
G75*
G02X73930000Y-102810000I-1000000J0D01*
G01*
G04 #@! TO.C,U3*
X118000000Y-128330000D02*
X119650000Y-128330000D01*
X118000000Y-92650000D02*
X118000000Y-128330000D01*
X123300000Y-92650000D02*
X118000000Y-92650000D01*
X123300000Y-128330000D02*
X123300000Y-92650000D01*
X121650000Y-128330000D02*
X123300000Y-128330000D01*
X119650000Y-128330000D02*
G75*
G02X121650000Y-128330000I1000000J0D01*
G01*
G04 #@! TO.C,RN2*
X66170000Y-91440000D02*
X63370000Y-91440000D01*
X66170000Y-104310000D02*
X66170000Y-88730000D01*
X63370000Y-104310000D02*
X66170000Y-104310000D01*
X63370000Y-88730000D02*
X63370000Y-104310000D01*
X66170000Y-88730000D02*
X63370000Y-88730000D01*
G04 #@! TO.C,RN1*
X40770000Y-85090000D02*
X37970000Y-85090000D01*
X40770000Y-103040000D02*
X40770000Y-82380000D01*
X37970000Y-103040000D02*
X40770000Y-103040000D01*
X37970000Y-82380000D02*
X37970000Y-103040000D01*
X40770000Y-82380000D02*
X37970000Y-82380000D01*
G04 #@! TO.C,C7*
X56820000Y-73621000D02*
X56820000Y-73556000D01*
X56820000Y-75796000D02*
X56820000Y-75731000D01*
X60060000Y-73621000D02*
X60060000Y-73556000D01*
X60060000Y-75796000D02*
X60060000Y-75731000D01*
X60060000Y-73556000D02*
X56820000Y-73556000D01*
X60060000Y-75796000D02*
X56820000Y-75796000D01*
G04 #@! TO.C,Y1*
X43965000Y-69865000D02*
G75*
G03X43965000Y-74915000I0J-2525000D01*
G01*
X50215000Y-69865000D02*
G75*
G02X50215000Y-74915000I0J-2525000D01*
G01*
X50215000Y-69865000D02*
X43965000Y-69865000D01*
X50215000Y-74915000D02*
X43965000Y-74915000D01*
G04 #@! TO.C,SW1*
X40580000Y-49470000D02*
X41910000Y-49470000D01*
X40580000Y-50800000D02*
X40580000Y-49470000D01*
X40580000Y-52070000D02*
X43240000Y-52070000D01*
X43240000Y-52070000D02*
X43240000Y-54670000D01*
X40580000Y-52070000D02*
X40580000Y-54670000D01*
X40580000Y-54670000D02*
X43240000Y-54670000D01*
G04 #@! TO.C,D1*
D14*
X46251904Y-67342380D02*
X46251904Y-66342380D01*
X46490000Y-66342380D01*
X46632857Y-66390000D01*
X46728095Y-66485238D01*
X46775714Y-66580476D01*
X46823333Y-66770952D01*
X46823333Y-66913809D01*
X46775714Y-67104285D01*
X46728095Y-67199523D01*
X46632857Y-67294761D01*
X46490000Y-67342380D01*
X46251904Y-67342380D01*
X47775714Y-67342380D02*
X47204285Y-67342380D01*
X47490000Y-67342380D02*
X47490000Y-66342380D01*
X47394761Y-66485238D01*
X47299523Y-66580476D01*
X47204285Y-66628095D01*
X51808095Y-67022380D02*
X51808095Y-66022380D01*
X52379523Y-67022380D02*
X51950952Y-66450952D01*
X52379523Y-66022380D02*
X51808095Y-66593809D01*
G04 #@! TO.C,R1*
X46823333Y-62512380D02*
X46490000Y-62036190D01*
X46251904Y-62512380D02*
X46251904Y-61512380D01*
X46632857Y-61512380D01*
X46728095Y-61560000D01*
X46775714Y-61607619D01*
X46823333Y-61702857D01*
X46823333Y-61845714D01*
X46775714Y-61940952D01*
X46728095Y-61988571D01*
X46632857Y-62036190D01*
X46251904Y-62036190D01*
X47775714Y-62512380D02*
X47204285Y-62512380D01*
X47490000Y-62512380D02*
X47490000Y-61512380D01*
X47394761Y-61655238D01*
X47299523Y-61750476D01*
X47204285Y-61798095D01*
G04 #@! TO.C,R2*
X132421333Y-78684380D02*
X132088000Y-78208190D01*
X131849904Y-78684380D02*
X131849904Y-77684380D01*
X132230857Y-77684380D01*
X132326095Y-77732000D01*
X132373714Y-77779619D01*
X132421333Y-77874857D01*
X132421333Y-78017714D01*
X132373714Y-78112952D01*
X132326095Y-78160571D01*
X132230857Y-78208190D01*
X131849904Y-78208190D01*
X132802285Y-77779619D02*
X132849904Y-77732000D01*
X132945142Y-77684380D01*
X133183238Y-77684380D01*
X133278476Y-77732000D01*
X133326095Y-77779619D01*
X133373714Y-77874857D01*
X133373714Y-77970095D01*
X133326095Y-78112952D01*
X132754666Y-78684380D01*
X133373714Y-78684380D01*
G04 #@! TO.C,R3*
X132421333Y-81732380D02*
X132088000Y-81256190D01*
X131849904Y-81732380D02*
X131849904Y-80732380D01*
X132230857Y-80732380D01*
X132326095Y-80780000D01*
X132373714Y-80827619D01*
X132421333Y-80922857D01*
X132421333Y-81065714D01*
X132373714Y-81160952D01*
X132326095Y-81208571D01*
X132230857Y-81256190D01*
X131849904Y-81256190D01*
X132754666Y-80732380D02*
X133373714Y-80732380D01*
X133040380Y-81113333D01*
X133183238Y-81113333D01*
X133278476Y-81160952D01*
X133326095Y-81208571D01*
X133373714Y-81303809D01*
X133373714Y-81541904D01*
X133326095Y-81637142D01*
X133278476Y-81684761D01*
X133183238Y-81732380D01*
X132897523Y-81732380D01*
X132802285Y-81684761D01*
X132754666Y-81637142D01*
G04 #@! TO.C,U5*
X59182095Y-64222380D02*
X59182095Y-65031904D01*
X59229714Y-65127142D01*
X59277333Y-65174761D01*
X59372571Y-65222380D01*
X59563047Y-65222380D01*
X59658285Y-65174761D01*
X59705904Y-65127142D01*
X59753523Y-65031904D01*
X59753523Y-64222380D01*
X60705904Y-64222380D02*
X60229714Y-64222380D01*
X60182095Y-64698571D01*
X60229714Y-64650952D01*
X60324952Y-64603333D01*
X60563047Y-64603333D01*
X60658285Y-64650952D01*
X60705904Y-64698571D01*
X60753523Y-64793809D01*
X60753523Y-65031904D01*
X60705904Y-65127142D01*
X60658285Y-65174761D01*
X60563047Y-65222380D01*
X60324952Y-65222380D01*
X60229714Y-65174761D01*
X60182095Y-65127142D01*
X64424047Y-37552380D02*
X64424047Y-38361904D01*
X64471666Y-38457142D01*
X64519285Y-38504761D01*
X64614523Y-38552380D01*
X64805000Y-38552380D01*
X64900238Y-38504761D01*
X64947857Y-38457142D01*
X64995476Y-38361904D01*
X64995476Y-37552380D01*
X65424047Y-38504761D02*
X65566904Y-38552380D01*
X65805000Y-38552380D01*
X65900238Y-38504761D01*
X65947857Y-38457142D01*
X65995476Y-38361904D01*
X65995476Y-38266666D01*
X65947857Y-38171428D01*
X65900238Y-38123809D01*
X65805000Y-38076190D01*
X65614523Y-38028571D01*
X65519285Y-37980952D01*
X65471666Y-37933333D01*
X65424047Y-37838095D01*
X65424047Y-37742857D01*
X65471666Y-37647619D01*
X65519285Y-37600000D01*
X65614523Y-37552380D01*
X65852619Y-37552380D01*
X65995476Y-37600000D01*
X66757380Y-38028571D02*
X66900238Y-38076190D01*
X66947857Y-38123809D01*
X66995476Y-38219047D01*
X66995476Y-38361904D01*
X66947857Y-38457142D01*
X66900238Y-38504761D01*
X66805000Y-38552380D01*
X66424047Y-38552380D01*
X66424047Y-37552380D01*
X66757380Y-37552380D01*
X66852619Y-37600000D01*
X66900238Y-37647619D01*
X66947857Y-37742857D01*
X66947857Y-37838095D01*
X66900238Y-37933333D01*
X66852619Y-37980952D01*
X66757380Y-38028571D01*
X66424047Y-38028571D01*
X67424047Y-38171428D02*
X68185952Y-38171428D01*
X68995476Y-38028571D02*
X69138333Y-38076190D01*
X69185952Y-38123809D01*
X69233571Y-38219047D01*
X69233571Y-38361904D01*
X69185952Y-38457142D01*
X69138333Y-38504761D01*
X69043095Y-38552380D01*
X68662142Y-38552380D01*
X68662142Y-37552380D01*
X68995476Y-37552380D01*
X69090714Y-37600000D01*
X69138333Y-37647619D01*
X69185952Y-37742857D01*
X69185952Y-37838095D01*
X69138333Y-37933333D01*
X69090714Y-37980952D01*
X68995476Y-38028571D01*
X68662142Y-38028571D01*
G04 #@! TO.C,RN3*
X104211523Y-45918380D02*
X103878190Y-45442190D01*
X103640095Y-45918380D02*
X103640095Y-44918380D01*
X104021047Y-44918380D01*
X104116285Y-44966000D01*
X104163904Y-45013619D01*
X104211523Y-45108857D01*
X104211523Y-45251714D01*
X104163904Y-45346952D01*
X104116285Y-45394571D01*
X104021047Y-45442190D01*
X103640095Y-45442190D01*
X104640095Y-45918380D02*
X104640095Y-44918380D01*
X105211523Y-45918380D01*
X105211523Y-44918380D01*
X105592476Y-44918380D02*
X106211523Y-44918380D01*
X105878190Y-45299333D01*
X106021047Y-45299333D01*
X106116285Y-45346952D01*
X106163904Y-45394571D01*
X106211523Y-45489809D01*
X106211523Y-45727904D01*
X106163904Y-45823142D01*
X106116285Y-45870761D01*
X106021047Y-45918380D01*
X105735333Y-45918380D01*
X105640095Y-45870761D01*
X105592476Y-45823142D01*
G04 #@! TO.C,J1*
X49704666Y-35972380D02*
X49704666Y-36686666D01*
X49657047Y-36829523D01*
X49561809Y-36924761D01*
X49418952Y-36972380D01*
X49323714Y-36972380D01*
X50704666Y-36972380D02*
X50133238Y-36972380D01*
X50418952Y-36972380D02*
X50418952Y-35972380D01*
X50323714Y-36115238D01*
X50228476Y-36210476D01*
X50133238Y-36258095D01*
G04 #@! TO.C,Q1*
X129329619Y-72993238D02*
X129282000Y-73088476D01*
X129186761Y-73183714D01*
X129043904Y-73326571D01*
X128996285Y-73421809D01*
X128996285Y-73517047D01*
X129234380Y-73469428D02*
X129186761Y-73564666D01*
X129091523Y-73659904D01*
X128901047Y-73707523D01*
X128567714Y-73707523D01*
X128377238Y-73659904D01*
X128282000Y-73564666D01*
X128234380Y-73469428D01*
X128234380Y-73278952D01*
X128282000Y-73183714D01*
X128377238Y-73088476D01*
X128567714Y-73040857D01*
X128901047Y-73040857D01*
X129091523Y-73088476D01*
X129186761Y-73183714D01*
X129234380Y-73278952D01*
X129234380Y-73469428D01*
X129234380Y-72088476D02*
X129234380Y-72659904D01*
X129234380Y-72374190D02*
X128234380Y-72374190D01*
X128377238Y-72469428D01*
X128472476Y-72564666D01*
X128520095Y-72659904D01*
G04 #@! TO.C,C10*
X124325142Y-90273142D02*
X124277523Y-90320761D01*
X124134666Y-90368380D01*
X124039428Y-90368380D01*
X123896571Y-90320761D01*
X123801333Y-90225523D01*
X123753714Y-90130285D01*
X123706095Y-89939809D01*
X123706095Y-89796952D01*
X123753714Y-89606476D01*
X123801333Y-89511238D01*
X123896571Y-89416000D01*
X124039428Y-89368380D01*
X124134666Y-89368380D01*
X124277523Y-89416000D01*
X124325142Y-89463619D01*
X125277523Y-90368380D02*
X124706095Y-90368380D01*
X124991809Y-90368380D02*
X124991809Y-89368380D01*
X124896571Y-89511238D01*
X124801333Y-89606476D01*
X124706095Y-89654095D01*
X125896571Y-89368380D02*
X125991809Y-89368380D01*
X126087047Y-89416000D01*
X126134666Y-89463619D01*
X126182285Y-89558857D01*
X126229904Y-89749333D01*
X126229904Y-89987428D01*
X126182285Y-90177904D01*
X126134666Y-90273142D01*
X126087047Y-90320761D01*
X125991809Y-90368380D01*
X125896571Y-90368380D01*
X125801333Y-90320761D01*
X125753714Y-90273142D01*
X125706095Y-90177904D01*
X125658476Y-89987428D01*
X125658476Y-89749333D01*
X125706095Y-89558857D01*
X125753714Y-89463619D01*
X125801333Y-89416000D01*
X125896571Y-89368380D01*
G04 #@! TO.C,J2*
X132508666Y-84288380D02*
X132508666Y-85002666D01*
X132461047Y-85145523D01*
X132365809Y-85240761D01*
X132222952Y-85288380D01*
X132127714Y-85288380D01*
X132937238Y-84383619D02*
X132984857Y-84336000D01*
X133080095Y-84288380D01*
X133318190Y-84288380D01*
X133413428Y-84336000D01*
X133461047Y-84383619D01*
X133508666Y-84478857D01*
X133508666Y-84574095D01*
X133461047Y-84716952D01*
X132889619Y-85288380D01*
X133508666Y-85288380D01*
G04 #@! TO.C,U6*
X85598095Y-86320380D02*
X85598095Y-87129904D01*
X85645714Y-87225142D01*
X85693333Y-87272761D01*
X85788571Y-87320380D01*
X85979047Y-87320380D01*
X86074285Y-87272761D01*
X86121904Y-87225142D01*
X86169523Y-87129904D01*
X86169523Y-86320380D01*
X87074285Y-86320380D02*
X86883809Y-86320380D01*
X86788571Y-86368000D01*
X86740952Y-86415619D01*
X86645714Y-86558476D01*
X86598095Y-86748952D01*
X86598095Y-87129904D01*
X86645714Y-87225142D01*
X86693333Y-87272761D01*
X86788571Y-87320380D01*
X86979047Y-87320380D01*
X87074285Y-87272761D01*
X87121904Y-87225142D01*
X87169523Y-87129904D01*
X87169523Y-86891809D01*
X87121904Y-86796571D01*
X87074285Y-86748952D01*
X86979047Y-86701333D01*
X86788571Y-86701333D01*
X86693333Y-86748952D01*
X86645714Y-86796571D01*
X86598095Y-86891809D01*
G04 #@! TO.C,U4*
X77978095Y-47966380D02*
X77978095Y-48775904D01*
X78025714Y-48871142D01*
X78073333Y-48918761D01*
X78168571Y-48966380D01*
X78359047Y-48966380D01*
X78454285Y-48918761D01*
X78501904Y-48871142D01*
X78549523Y-48775904D01*
X78549523Y-47966380D01*
X79454285Y-48299714D02*
X79454285Y-48966380D01*
X79216190Y-47918761D02*
X78978095Y-48633047D01*
X79597142Y-48633047D01*
G04 #@! TO.C,U7*
X46482095Y-75862380D02*
X46482095Y-76671904D01*
X46529714Y-76767142D01*
X46577333Y-76814761D01*
X46672571Y-76862380D01*
X46863047Y-76862380D01*
X46958285Y-76814761D01*
X47005904Y-76767142D01*
X47053523Y-76671904D01*
X47053523Y-75862380D01*
X47434476Y-75862380D02*
X48101142Y-75862380D01*
X47672571Y-76862380D01*
G04 #@! TO.C,U2*
X102108095Y-91146380D02*
X102108095Y-91955904D01*
X102155714Y-92051142D01*
X102203333Y-92098761D01*
X102298571Y-92146380D01*
X102489047Y-92146380D01*
X102584285Y-92098761D01*
X102631904Y-92051142D01*
X102679523Y-91955904D01*
X102679523Y-91146380D01*
X103108095Y-91241619D02*
X103155714Y-91194000D01*
X103250952Y-91146380D01*
X103489047Y-91146380D01*
X103584285Y-91194000D01*
X103631904Y-91241619D01*
X103679523Y-91336857D01*
X103679523Y-91432095D01*
X103631904Y-91574952D01*
X103060476Y-92146380D01*
X103679523Y-92146380D01*
G04 #@! TO.C,C8*
X49109333Y-48871142D02*
X49061714Y-48918761D01*
X48918857Y-48966380D01*
X48823619Y-48966380D01*
X48680761Y-48918761D01*
X48585523Y-48823523D01*
X48537904Y-48728285D01*
X48490285Y-48537809D01*
X48490285Y-48394952D01*
X48537904Y-48204476D01*
X48585523Y-48109238D01*
X48680761Y-48014000D01*
X48823619Y-47966380D01*
X48918857Y-47966380D01*
X49061714Y-48014000D01*
X49109333Y-48061619D01*
X49680761Y-48394952D02*
X49585523Y-48347333D01*
X49537904Y-48299714D01*
X49490285Y-48204476D01*
X49490285Y-48156857D01*
X49537904Y-48061619D01*
X49585523Y-48014000D01*
X49680761Y-47966380D01*
X49871238Y-47966380D01*
X49966476Y-48014000D01*
X50014095Y-48061619D01*
X50061714Y-48156857D01*
X50061714Y-48204476D01*
X50014095Y-48299714D01*
X49966476Y-48347333D01*
X49871238Y-48394952D01*
X49680761Y-48394952D01*
X49585523Y-48442571D01*
X49537904Y-48490190D01*
X49490285Y-48585428D01*
X49490285Y-48775904D01*
X49537904Y-48871142D01*
X49585523Y-48918761D01*
X49680761Y-48966380D01*
X49871238Y-48966380D01*
X49966476Y-48918761D01*
X50014095Y-48871142D01*
X50061714Y-48775904D01*
X50061714Y-48585428D01*
X50014095Y-48490190D01*
X49966476Y-48442571D01*
X49871238Y-48394952D01*
G04 #@! TO.C,C9*
X61809333Y-70461142D02*
X61761714Y-70508761D01*
X61618857Y-70556380D01*
X61523619Y-70556380D01*
X61380761Y-70508761D01*
X61285523Y-70413523D01*
X61237904Y-70318285D01*
X61190285Y-70127809D01*
X61190285Y-69984952D01*
X61237904Y-69794476D01*
X61285523Y-69699238D01*
X61380761Y-69604000D01*
X61523619Y-69556380D01*
X61618857Y-69556380D01*
X61761714Y-69604000D01*
X61809333Y-69651619D01*
X62285523Y-70556380D02*
X62476000Y-70556380D01*
X62571238Y-70508761D01*
X62618857Y-70461142D01*
X62714095Y-70318285D01*
X62761714Y-70127809D01*
X62761714Y-69746857D01*
X62714095Y-69651619D01*
X62666476Y-69604000D01*
X62571238Y-69556380D01*
X62380761Y-69556380D01*
X62285523Y-69604000D01*
X62237904Y-69651619D01*
X62190285Y-69746857D01*
X62190285Y-69984952D01*
X62237904Y-70080190D01*
X62285523Y-70127809D01*
X62380761Y-70175428D01*
X62571238Y-70175428D01*
X62666476Y-70127809D01*
X62714095Y-70080190D01*
X62761714Y-69984952D01*
G04 #@! TO.C,C1*
X131278333Y-68937142D02*
X131230714Y-68984761D01*
X131087857Y-69032380D01*
X130992619Y-69032380D01*
X130849761Y-68984761D01*
X130754523Y-68889523D01*
X130706904Y-68794285D01*
X130659285Y-68603809D01*
X130659285Y-68460952D01*
X130706904Y-68270476D01*
X130754523Y-68175238D01*
X130849761Y-68080000D01*
X130992619Y-68032380D01*
X131087857Y-68032380D01*
X131230714Y-68080000D01*
X131278333Y-68127619D01*
X132230714Y-69032380D02*
X131659285Y-69032380D01*
X131945000Y-69032380D02*
X131945000Y-68032380D01*
X131849761Y-68175238D01*
X131754523Y-68270476D01*
X131659285Y-68318095D01*
G04 #@! TO.C,C2*
X86447333Y-131167142D02*
X86399714Y-131214761D01*
X86256857Y-131262380D01*
X86161619Y-131262380D01*
X86018761Y-131214761D01*
X85923523Y-131119523D01*
X85875904Y-131024285D01*
X85828285Y-130833809D01*
X85828285Y-130690952D01*
X85875904Y-130500476D01*
X85923523Y-130405238D01*
X86018761Y-130310000D01*
X86161619Y-130262380D01*
X86256857Y-130262380D01*
X86399714Y-130310000D01*
X86447333Y-130357619D01*
X86828285Y-130357619D02*
X86875904Y-130310000D01*
X86971142Y-130262380D01*
X87209238Y-130262380D01*
X87304476Y-130310000D01*
X87352095Y-130357619D01*
X87399714Y-130452857D01*
X87399714Y-130548095D01*
X87352095Y-130690952D01*
X86780666Y-131262380D01*
X87399714Y-131262380D01*
G04 #@! TO.C,C3*
X114133333Y-131167142D02*
X114085714Y-131214761D01*
X113942857Y-131262380D01*
X113847619Y-131262380D01*
X113704761Y-131214761D01*
X113609523Y-131119523D01*
X113561904Y-131024285D01*
X113514285Y-130833809D01*
X113514285Y-130690952D01*
X113561904Y-130500476D01*
X113609523Y-130405238D01*
X113704761Y-130310000D01*
X113847619Y-130262380D01*
X113942857Y-130262380D01*
X114085714Y-130310000D01*
X114133333Y-130357619D01*
X114466666Y-130262380D02*
X115085714Y-130262380D01*
X114752380Y-130643333D01*
X114895238Y-130643333D01*
X114990476Y-130690952D01*
X115038095Y-130738571D01*
X115085714Y-130833809D01*
X115085714Y-131071904D01*
X115038095Y-131167142D01*
X114990476Y-131214761D01*
X114895238Y-131262380D01*
X114609523Y-131262380D01*
X114514285Y-131214761D01*
X114466666Y-131167142D01*
G04 #@! TO.C,C4*
X81113333Y-70207142D02*
X81065714Y-70254761D01*
X80922857Y-70302380D01*
X80827619Y-70302380D01*
X80684761Y-70254761D01*
X80589523Y-70159523D01*
X80541904Y-70064285D01*
X80494285Y-69873809D01*
X80494285Y-69730952D01*
X80541904Y-69540476D01*
X80589523Y-69445238D01*
X80684761Y-69350000D01*
X80827619Y-69302380D01*
X80922857Y-69302380D01*
X81065714Y-69350000D01*
X81113333Y-69397619D01*
X81970476Y-69635714D02*
X81970476Y-70302380D01*
X81732380Y-69254761D02*
X81494285Y-69969047D01*
X82113333Y-69969047D01*
G04 #@! TO.C,C5*
X68667333Y-131167142D02*
X68619714Y-131214761D01*
X68476857Y-131262380D01*
X68381619Y-131262380D01*
X68238761Y-131214761D01*
X68143523Y-131119523D01*
X68095904Y-131024285D01*
X68048285Y-130833809D01*
X68048285Y-130690952D01*
X68095904Y-130500476D01*
X68143523Y-130405238D01*
X68238761Y-130310000D01*
X68381619Y-130262380D01*
X68476857Y-130262380D01*
X68619714Y-130310000D01*
X68667333Y-130357619D01*
X69572095Y-130262380D02*
X69095904Y-130262380D01*
X69048285Y-130738571D01*
X69095904Y-130690952D01*
X69191142Y-130643333D01*
X69429238Y-130643333D01*
X69524476Y-130690952D01*
X69572095Y-130738571D01*
X69619714Y-130833809D01*
X69619714Y-131071904D01*
X69572095Y-131167142D01*
X69524476Y-131214761D01*
X69429238Y-131262380D01*
X69191142Y-131262380D01*
X69095904Y-131214761D01*
X69048285Y-131167142D01*
G04 #@! TO.C,C6*
X120737333Y-90273142D02*
X120689714Y-90320761D01*
X120546857Y-90368380D01*
X120451619Y-90368380D01*
X120308761Y-90320761D01*
X120213523Y-90225523D01*
X120165904Y-90130285D01*
X120118285Y-89939809D01*
X120118285Y-89796952D01*
X120165904Y-89606476D01*
X120213523Y-89511238D01*
X120308761Y-89416000D01*
X120451619Y-89368380D01*
X120546857Y-89368380D01*
X120689714Y-89416000D01*
X120737333Y-89463619D01*
X121594476Y-89368380D02*
X121404000Y-89368380D01*
X121308761Y-89416000D01*
X121261142Y-89463619D01*
X121165904Y-89606476D01*
X121118285Y-89796952D01*
X121118285Y-90177904D01*
X121165904Y-90273142D01*
X121213523Y-90320761D01*
X121308761Y-90368380D01*
X121499238Y-90368380D01*
X121594476Y-90320761D01*
X121642095Y-90273142D01*
X121689714Y-90177904D01*
X121689714Y-89939809D01*
X121642095Y-89844571D01*
X121594476Y-89796952D01*
X121499238Y-89749333D01*
X121308761Y-89749333D01*
X121213523Y-89796952D01*
X121165904Y-89844571D01*
X121118285Y-89939809D01*
G04 #@! TO.C,U1*
X71628095Y-98512380D02*
X71628095Y-99321904D01*
X71675714Y-99417142D01*
X71723333Y-99464761D01*
X71818571Y-99512380D01*
X72009047Y-99512380D01*
X72104285Y-99464761D01*
X72151904Y-99417142D01*
X72199523Y-99321904D01*
X72199523Y-98512380D01*
X73199523Y-99512380D02*
X72628095Y-99512380D01*
X72913809Y-99512380D02*
X72913809Y-98512380D01*
X72818571Y-98655238D01*
X72723333Y-98750476D01*
X72628095Y-98798095D01*
G04 #@! TO.C,U8*
X71628095Y-101306380D02*
X71628095Y-102115904D01*
X71675714Y-102211142D01*
X71723333Y-102258761D01*
X71818571Y-102306380D01*
X72009047Y-102306380D01*
X72104285Y-102258761D01*
X72151904Y-102211142D01*
X72199523Y-102115904D01*
X72199523Y-101306380D01*
X72818571Y-101734952D02*
X72723333Y-101687333D01*
X72675714Y-101639714D01*
X72628095Y-101544476D01*
X72628095Y-101496857D01*
X72675714Y-101401619D01*
X72723333Y-101354000D01*
X72818571Y-101306380D01*
X73009047Y-101306380D01*
X73104285Y-101354000D01*
X73151904Y-101401619D01*
X73199523Y-101496857D01*
X73199523Y-101544476D01*
X73151904Y-101639714D01*
X73104285Y-101687333D01*
X73009047Y-101734952D01*
X72818571Y-101734952D01*
X72723333Y-101782571D01*
X72675714Y-101830190D01*
X72628095Y-101925428D01*
X72628095Y-102115904D01*
X72675714Y-102211142D01*
X72723333Y-102258761D01*
X72818571Y-102306380D01*
X73009047Y-102306380D01*
X73104285Y-102258761D01*
X73151904Y-102211142D01*
X73199523Y-102115904D01*
X73199523Y-101925428D01*
X73151904Y-101830190D01*
X73104285Y-101782571D01*
X73009047Y-101734952D01*
G04 #@! TO.C,U3*
X121666095Y-91146380D02*
X121666095Y-91955904D01*
X121713714Y-92051142D01*
X121761333Y-92098761D01*
X121856571Y-92146380D01*
X122047047Y-92146380D01*
X122142285Y-92098761D01*
X122189904Y-92051142D01*
X122237523Y-91955904D01*
X122237523Y-91146380D01*
X122618476Y-91146380D02*
X123237523Y-91146380D01*
X122904190Y-91527333D01*
X123047047Y-91527333D01*
X123142285Y-91574952D01*
X123189904Y-91622571D01*
X123237523Y-91717809D01*
X123237523Y-91955904D01*
X123189904Y-92051142D01*
X123142285Y-92098761D01*
X123047047Y-92146380D01*
X122761333Y-92146380D01*
X122666095Y-92098761D01*
X122618476Y-92051142D01*
G04 #@! TO.C,RN2*
X64079523Y-88082380D02*
X63746190Y-87606190D01*
X63508095Y-88082380D02*
X63508095Y-87082380D01*
X63889047Y-87082380D01*
X63984285Y-87130000D01*
X64031904Y-87177619D01*
X64079523Y-87272857D01*
X64079523Y-87415714D01*
X64031904Y-87510952D01*
X63984285Y-87558571D01*
X63889047Y-87606190D01*
X63508095Y-87606190D01*
X64508095Y-88082380D02*
X64508095Y-87082380D01*
X65079523Y-88082380D01*
X65079523Y-87082380D01*
X65508095Y-87177619D02*
X65555714Y-87130000D01*
X65650952Y-87082380D01*
X65889047Y-87082380D01*
X65984285Y-87130000D01*
X66031904Y-87177619D01*
X66079523Y-87272857D01*
X66079523Y-87368095D01*
X66031904Y-87510952D01*
X65460476Y-88082380D01*
X66079523Y-88082380D01*
G04 #@! TO.C,RN1*
X38679523Y-81986380D02*
X38346190Y-81510190D01*
X38108095Y-81986380D02*
X38108095Y-80986380D01*
X38489047Y-80986380D01*
X38584285Y-81034000D01*
X38631904Y-81081619D01*
X38679523Y-81176857D01*
X38679523Y-81319714D01*
X38631904Y-81414952D01*
X38584285Y-81462571D01*
X38489047Y-81510190D01*
X38108095Y-81510190D01*
X39108095Y-81986380D02*
X39108095Y-80986380D01*
X39679523Y-81986380D01*
X39679523Y-80986380D01*
X40679523Y-81986380D02*
X40108095Y-81986380D01*
X40393809Y-81986380D02*
X40393809Y-80986380D01*
X40298571Y-81129238D01*
X40203333Y-81224476D01*
X40108095Y-81272095D01*
G04 #@! TO.C,C7*
X61809333Y-75033142D02*
X61761714Y-75080761D01*
X61618857Y-75128380D01*
X61523619Y-75128380D01*
X61380761Y-75080761D01*
X61285523Y-74985523D01*
X61237904Y-74890285D01*
X61190285Y-74699809D01*
X61190285Y-74556952D01*
X61237904Y-74366476D01*
X61285523Y-74271238D01*
X61380761Y-74176000D01*
X61523619Y-74128380D01*
X61618857Y-74128380D01*
X61761714Y-74176000D01*
X61809333Y-74223619D01*
X62142666Y-74128380D02*
X62809333Y-74128380D01*
X62380761Y-75128380D01*
G04 #@! TO.C,Y1*
X46767809Y-69064190D02*
X46767809Y-69540380D01*
X46434476Y-68540380D02*
X46767809Y-69064190D01*
X47101142Y-68540380D01*
X47958285Y-69540380D02*
X47386857Y-69540380D01*
X47672571Y-69540380D02*
X47672571Y-68540380D01*
X47577333Y-68683238D01*
X47482095Y-68778476D01*
X47386857Y-68826095D01*
G04 #@! TO.C,SW1*
X40576666Y-48664761D02*
X40719523Y-48712380D01*
X40957619Y-48712380D01*
X41052857Y-48664761D01*
X41100476Y-48617142D01*
X41148095Y-48521904D01*
X41148095Y-48426666D01*
X41100476Y-48331428D01*
X41052857Y-48283809D01*
X40957619Y-48236190D01*
X40767142Y-48188571D01*
X40671904Y-48140952D01*
X40624285Y-48093333D01*
X40576666Y-47998095D01*
X40576666Y-47902857D01*
X40624285Y-47807619D01*
X40671904Y-47760000D01*
X40767142Y-47712380D01*
X41005238Y-47712380D01*
X41148095Y-47760000D01*
X41481428Y-47712380D02*
X41719523Y-48712380D01*
X41910000Y-47998095D01*
X42100476Y-48712380D01*
X42338571Y-47712380D01*
X43243333Y-48712380D02*
X42671904Y-48712380D01*
X42957619Y-48712380D02*
X42957619Y-47712380D01*
X42862380Y-47855238D01*
X42767142Y-47950476D01*
X42671904Y-47998095D01*
G04 #@! TD*
M02*
