G04 #@! TF.GenerationSoftware,KiCad,Pcbnew,(5.1.4)-1*
G04 #@! TF.CreationDate,2020-07-02T19:24:17-04:00*
G04 #@! TF.ProjectId,CPU8085,43505538-3038-4352-9e6b-696361645f70,A*
G04 #@! TF.SameCoordinates,Original*
G04 #@! TF.FileFunction,Legend,Bot*
G04 #@! TF.FilePolarity,Positive*
%FSLAX46Y46*%
G04 Gerber Fmt 4.6, Leading zero omitted, Abs format (unit mm)*
G04 Created by KiCad (PCBNEW (5.1.4)-1) date 2020-07-02 19:24:17*
%MOMM*%
%LPD*%
G04 APERTURE LIST*
%ADD10C,0.200000*%
%ADD11C,0.120000*%
%ADD12C,0.150000*%
G04 APERTURE END LIST*
D10*
X96607142Y-47915000D02*
X95607142Y-47915000D01*
X95797619Y-49252142D02*
X95845238Y-49299761D01*
X95988095Y-49347380D01*
X96083333Y-49347380D01*
X96226190Y-49299761D01*
X96321428Y-49204523D01*
X96369047Y-49109285D01*
X96416666Y-48918809D01*
X96416666Y-48775952D01*
X96369047Y-48585476D01*
X96321428Y-48490238D01*
X96226190Y-48395000D01*
X96083333Y-48347380D01*
X95988095Y-48347380D01*
X95845238Y-48395000D01*
X95797619Y-48442619D01*
X95607142Y-47915000D02*
X94845238Y-47915000D01*
X95511904Y-48347380D02*
X94940476Y-48347380D01*
X95226190Y-49347380D02*
X95226190Y-48347380D01*
X94845238Y-47915000D02*
X93892857Y-47915000D01*
X94654761Y-49299761D02*
X94511904Y-49347380D01*
X94273809Y-49347380D01*
X94178571Y-49299761D01*
X94130952Y-49252142D01*
X94083333Y-49156904D01*
X94083333Y-49061666D01*
X94130952Y-48966428D01*
X94178571Y-48918809D01*
X94273809Y-48871190D01*
X94464285Y-48823571D01*
X94559523Y-48775952D01*
X94607142Y-48728333D01*
X94654761Y-48633095D01*
X94654761Y-48537857D01*
X94607142Y-48442619D01*
X94559523Y-48395000D01*
X94464285Y-48347380D01*
X94226190Y-48347380D01*
X94083333Y-48395000D01*
X93551190Y-47915000D02*
X92551190Y-47915000D01*
X93313095Y-49347380D02*
X93313095Y-48347380D01*
X93075000Y-48347380D01*
X92932142Y-48395000D01*
X92836904Y-48490238D01*
X92789285Y-48585476D01*
X92741666Y-48775952D01*
X92741666Y-48918809D01*
X92789285Y-49109285D01*
X92836904Y-49204523D01*
X92932142Y-49299761D01*
X93075000Y-49347380D01*
X93313095Y-49347380D01*
X92551190Y-47915000D02*
X91598809Y-47915000D01*
X92360714Y-49299761D02*
X92217857Y-49347380D01*
X91979761Y-49347380D01*
X91884523Y-49299761D01*
X91836904Y-49252142D01*
X91789285Y-49156904D01*
X91789285Y-49061666D01*
X91836904Y-48966428D01*
X91884523Y-48918809D01*
X91979761Y-48871190D01*
X92170238Y-48823571D01*
X92265476Y-48775952D01*
X92313095Y-48728333D01*
X92360714Y-48633095D01*
X92360714Y-48537857D01*
X92313095Y-48442619D01*
X92265476Y-48395000D01*
X92170238Y-48347380D01*
X91932142Y-48347380D01*
X91789285Y-48395000D01*
X91598809Y-47915000D02*
X90598809Y-47915000D01*
X90789285Y-49347380D02*
X91122619Y-48871190D01*
X91360714Y-49347380D02*
X91360714Y-48347380D01*
X90979761Y-48347380D01*
X90884523Y-48395000D01*
X90836904Y-48442619D01*
X90789285Y-48537857D01*
X90789285Y-48680714D01*
X90836904Y-48775952D01*
X90884523Y-48823571D01*
X90979761Y-48871190D01*
X91360714Y-48871190D01*
X99805952Y-47915000D02*
X98805952Y-47915000D01*
X99567857Y-49347380D02*
X99567857Y-48347380D01*
X99329761Y-48347380D01*
X99186904Y-48395000D01*
X99091666Y-48490238D01*
X99044047Y-48585476D01*
X98996428Y-48775952D01*
X98996428Y-48918809D01*
X99044047Y-49109285D01*
X99091666Y-49204523D01*
X99186904Y-49299761D01*
X99329761Y-49347380D01*
X99567857Y-49347380D01*
X98805952Y-47915000D02*
X98044047Y-47915000D01*
X98710714Y-48347380D02*
X98139285Y-48347380D01*
X98425000Y-49347380D02*
X98425000Y-48347380D01*
X98044047Y-47915000D02*
X97044047Y-47915000D01*
X97234523Y-49347380D02*
X97567857Y-48871190D01*
X97805952Y-49347380D02*
X97805952Y-48347380D01*
X97425000Y-48347380D01*
X97329761Y-48395000D01*
X97282142Y-48442619D01*
X97234523Y-48537857D01*
X97234523Y-48680714D01*
X97282142Y-48775952D01*
X97329761Y-48823571D01*
X97425000Y-48871190D01*
X97805952Y-48871190D01*
X102957142Y-47915000D02*
X101957142Y-47915000D01*
X102147619Y-49347380D02*
X102480952Y-48871190D01*
X102719047Y-49347380D02*
X102719047Y-48347380D01*
X102338095Y-48347380D01*
X102242857Y-48395000D01*
X102195238Y-48442619D01*
X102147619Y-48537857D01*
X102147619Y-48680714D01*
X102195238Y-48775952D01*
X102242857Y-48823571D01*
X102338095Y-48871190D01*
X102719047Y-48871190D01*
X101957142Y-47915000D02*
X101195238Y-47915000D01*
X101861904Y-48347380D02*
X101290476Y-48347380D01*
X101576190Y-49347380D02*
X101576190Y-48347380D01*
X101195238Y-47915000D02*
X100242857Y-47915000D01*
X101004761Y-49299761D02*
X100861904Y-49347380D01*
X100623809Y-49347380D01*
X100528571Y-49299761D01*
X100480952Y-49252142D01*
X100433333Y-49156904D01*
X100433333Y-49061666D01*
X100480952Y-48966428D01*
X100528571Y-48918809D01*
X100623809Y-48871190D01*
X100814285Y-48823571D01*
X100909523Y-48775952D01*
X100957142Y-48728333D01*
X101004761Y-48633095D01*
X101004761Y-48537857D01*
X100957142Y-48442619D01*
X100909523Y-48395000D01*
X100814285Y-48347380D01*
X100576190Y-48347380D01*
X100433333Y-48395000D01*
D11*
X74425000Y-42960000D02*
X74425000Y-40860000D01*
X69085000Y-42960000D02*
X69085000Y-40860000D01*
X99825000Y-60105000D02*
X99825000Y-58005000D01*
X94485000Y-60105000D02*
X94485000Y-58005000D01*
X48480000Y-94110000D02*
X50580000Y-94110000D01*
X48480000Y-88770000D02*
X50580000Y-88770000D01*
X48480000Y-95755000D02*
X50580000Y-95755000D01*
X48480000Y-101095000D02*
X50580000Y-101095000D01*
X54195000Y-101095000D02*
X56295000Y-101095000D01*
X54195000Y-95755000D02*
X56295000Y-95755000D01*
X81018748Y-54050000D02*
X81541252Y-54050000D01*
X81018748Y-52630000D02*
X81541252Y-52630000D01*
X83558748Y-126290000D02*
X84081252Y-126290000D01*
X83558748Y-127710000D02*
X84081252Y-127710000D01*
X103878748Y-127710000D02*
X104401252Y-127710000D01*
X103878748Y-126290000D02*
X104401252Y-126290000D01*
X70746252Y-74370000D02*
X70223748Y-74370000D01*
X70746252Y-72950000D02*
X70223748Y-72950000D01*
X70111252Y-103430000D02*
X69588748Y-103430000D01*
X70111252Y-104850000D02*
X69588748Y-104850000D01*
X107240000Y-84081252D02*
X107240000Y-83558748D01*
X108660000Y-84081252D02*
X108660000Y-83558748D01*
X56141252Y-78030000D02*
X55618748Y-78030000D01*
X56141252Y-79450000D02*
X55618748Y-79450000D01*
X64060000Y-46728748D02*
X64060000Y-47251252D01*
X65480000Y-46728748D02*
X65480000Y-47251252D01*
X96790000Y-53210000D02*
X96790000Y-56010000D01*
X96790000Y-56010000D02*
X98790000Y-56010000D01*
X98790000Y-56010000D02*
X98790000Y-53210000D01*
X98790000Y-53210000D02*
X96790000Y-53210000D01*
X94250000Y-56010000D02*
X96250000Y-56010000D01*
X94250000Y-53210000D02*
X94250000Y-56010000D01*
X96250000Y-53210000D02*
X94250000Y-53210000D01*
X96250000Y-56010000D02*
X96250000Y-53210000D01*
X99330000Y-53225000D02*
X99330000Y-56025000D01*
X99330000Y-56025000D02*
X101330000Y-56025000D01*
X101330000Y-56025000D02*
X101330000Y-53225000D01*
X101330000Y-53225000D02*
X99330000Y-53225000D01*
X91710000Y-56010000D02*
X93710000Y-56010000D01*
X91710000Y-53210000D02*
X91710000Y-56010000D01*
X93710000Y-53210000D02*
X91710000Y-53210000D01*
X93710000Y-56010000D02*
X93710000Y-53210000D01*
D12*
X68000476Y-43632380D02*
X68333809Y-43156190D01*
X68571904Y-43632380D02*
X68571904Y-42632380D01*
X68190952Y-42632380D01*
X68095714Y-42680000D01*
X68048095Y-42727619D01*
X68000476Y-42822857D01*
X68000476Y-42965714D01*
X68048095Y-43060952D01*
X68095714Y-43108571D01*
X68190952Y-43156190D01*
X68571904Y-43156190D01*
X67571904Y-43632380D02*
X67571904Y-42632380D01*
X67000476Y-43632380D01*
X67000476Y-42632380D01*
X66048095Y-42632380D02*
X66524285Y-42632380D01*
X66571904Y-43108571D01*
X66524285Y-43060952D01*
X66429047Y-43013333D01*
X66190952Y-43013333D01*
X66095714Y-43060952D01*
X66048095Y-43108571D01*
X66000476Y-43203809D01*
X66000476Y-43441904D01*
X66048095Y-43537142D01*
X66095714Y-43584761D01*
X66190952Y-43632380D01*
X66429047Y-43632380D01*
X66524285Y-43584761D01*
X66571904Y-43537142D01*
X93400476Y-59507380D02*
X93733809Y-59031190D01*
X93971904Y-59507380D02*
X93971904Y-58507380D01*
X93590952Y-58507380D01*
X93495714Y-58555000D01*
X93448095Y-58602619D01*
X93400476Y-58697857D01*
X93400476Y-58840714D01*
X93448095Y-58935952D01*
X93495714Y-58983571D01*
X93590952Y-59031190D01*
X93971904Y-59031190D01*
X92971904Y-59507380D02*
X92971904Y-58507380D01*
X92400476Y-59507380D01*
X92400476Y-58507380D01*
X92019523Y-58507380D02*
X91400476Y-58507380D01*
X91733809Y-58888333D01*
X91590952Y-58888333D01*
X91495714Y-58935952D01*
X91448095Y-58983571D01*
X91400476Y-59078809D01*
X91400476Y-59316904D01*
X91448095Y-59412142D01*
X91495714Y-59459761D01*
X91590952Y-59507380D01*
X91876666Y-59507380D01*
X91971904Y-59459761D01*
X92019523Y-59412142D01*
X50220476Y-88392380D02*
X50553809Y-87916190D01*
X50791904Y-88392380D02*
X50791904Y-87392380D01*
X50410952Y-87392380D01*
X50315714Y-87440000D01*
X50268095Y-87487619D01*
X50220476Y-87582857D01*
X50220476Y-87725714D01*
X50268095Y-87820952D01*
X50315714Y-87868571D01*
X50410952Y-87916190D01*
X50791904Y-87916190D01*
X49791904Y-88392380D02*
X49791904Y-87392380D01*
X49220476Y-88392380D01*
X49220476Y-87392380D01*
X48220476Y-88392380D02*
X48791904Y-88392380D01*
X48506190Y-88392380D02*
X48506190Y-87392380D01*
X48601428Y-87535238D01*
X48696666Y-87630476D01*
X48791904Y-87678095D01*
X50220476Y-95377380D02*
X50553809Y-94901190D01*
X50791904Y-95377380D02*
X50791904Y-94377380D01*
X50410952Y-94377380D01*
X50315714Y-94425000D01*
X50268095Y-94472619D01*
X50220476Y-94567857D01*
X50220476Y-94710714D01*
X50268095Y-94805952D01*
X50315714Y-94853571D01*
X50410952Y-94901190D01*
X50791904Y-94901190D01*
X49791904Y-95377380D02*
X49791904Y-94377380D01*
X49220476Y-95377380D01*
X49220476Y-94377380D01*
X48791904Y-94472619D02*
X48744285Y-94425000D01*
X48649047Y-94377380D01*
X48410952Y-94377380D01*
X48315714Y-94425000D01*
X48268095Y-94472619D01*
X48220476Y-94567857D01*
X48220476Y-94663095D01*
X48268095Y-94805952D01*
X48839523Y-95377380D01*
X48220476Y-95377380D01*
X55935476Y-95377380D02*
X56268809Y-94901190D01*
X56506904Y-95377380D02*
X56506904Y-94377380D01*
X56125952Y-94377380D01*
X56030714Y-94425000D01*
X55983095Y-94472619D01*
X55935476Y-94567857D01*
X55935476Y-94710714D01*
X55983095Y-94805952D01*
X56030714Y-94853571D01*
X56125952Y-94901190D01*
X56506904Y-94901190D01*
X55506904Y-95377380D02*
X55506904Y-94377380D01*
X54935476Y-95377380D01*
X54935476Y-94377380D01*
X54030714Y-94710714D02*
X54030714Y-95377380D01*
X54268809Y-94329761D02*
X54506904Y-95044047D01*
X53887857Y-95044047D01*
X78271666Y-53697142D02*
X78319285Y-53744761D01*
X78462142Y-53792380D01*
X78557380Y-53792380D01*
X78700238Y-53744761D01*
X78795476Y-53649523D01*
X78843095Y-53554285D01*
X78890714Y-53363809D01*
X78890714Y-53220952D01*
X78843095Y-53030476D01*
X78795476Y-52935238D01*
X78700238Y-52840000D01*
X78557380Y-52792380D01*
X78462142Y-52792380D01*
X78319285Y-52840000D01*
X78271666Y-52887619D01*
X77319285Y-53792380D02*
X77890714Y-53792380D01*
X77605000Y-53792380D02*
X77605000Y-52792380D01*
X77700238Y-52935238D01*
X77795476Y-53030476D01*
X77890714Y-53078095D01*
X87161666Y-127357142D02*
X87209285Y-127404761D01*
X87352142Y-127452380D01*
X87447380Y-127452380D01*
X87590238Y-127404761D01*
X87685476Y-127309523D01*
X87733095Y-127214285D01*
X87780714Y-127023809D01*
X87780714Y-126880952D01*
X87733095Y-126690476D01*
X87685476Y-126595238D01*
X87590238Y-126500000D01*
X87447380Y-126452380D01*
X87352142Y-126452380D01*
X87209285Y-126500000D01*
X87161666Y-126547619D01*
X86780714Y-126547619D02*
X86733095Y-126500000D01*
X86637857Y-126452380D01*
X86399761Y-126452380D01*
X86304523Y-126500000D01*
X86256904Y-126547619D01*
X86209285Y-126642857D01*
X86209285Y-126738095D01*
X86256904Y-126880952D01*
X86828333Y-127452380D01*
X86209285Y-127452380D01*
X104306666Y-129897142D02*
X104354285Y-129944761D01*
X104497142Y-129992380D01*
X104592380Y-129992380D01*
X104735238Y-129944761D01*
X104830476Y-129849523D01*
X104878095Y-129754285D01*
X104925714Y-129563809D01*
X104925714Y-129420952D01*
X104878095Y-129230476D01*
X104830476Y-129135238D01*
X104735238Y-129040000D01*
X104592380Y-128992380D01*
X104497142Y-128992380D01*
X104354285Y-129040000D01*
X104306666Y-129087619D01*
X103973333Y-128992380D02*
X103354285Y-128992380D01*
X103687619Y-129373333D01*
X103544761Y-129373333D01*
X103449523Y-129420952D01*
X103401904Y-129468571D01*
X103354285Y-129563809D01*
X103354285Y-129801904D01*
X103401904Y-129897142D01*
X103449523Y-129944761D01*
X103544761Y-129992380D01*
X103830476Y-129992380D01*
X103925714Y-129944761D01*
X103973333Y-129897142D01*
X69572142Y-76033333D02*
X69619761Y-75985714D01*
X69667380Y-75842857D01*
X69667380Y-75747619D01*
X69619761Y-75604761D01*
X69524523Y-75509523D01*
X69429285Y-75461904D01*
X69238809Y-75414285D01*
X69095952Y-75414285D01*
X68905476Y-75461904D01*
X68810238Y-75509523D01*
X68715000Y-75604761D01*
X68667380Y-75747619D01*
X68667380Y-75842857D01*
X68715000Y-75985714D01*
X68762619Y-76033333D01*
X69000714Y-76890476D02*
X69667380Y-76890476D01*
X68619761Y-76652380D02*
X69334047Y-76414285D01*
X69334047Y-77033333D01*
X70016666Y-102592142D02*
X70064285Y-102639761D01*
X70207142Y-102687380D01*
X70302380Y-102687380D01*
X70445238Y-102639761D01*
X70540476Y-102544523D01*
X70588095Y-102449285D01*
X70635714Y-102258809D01*
X70635714Y-102115952D01*
X70588095Y-101925476D01*
X70540476Y-101830238D01*
X70445238Y-101735000D01*
X70302380Y-101687380D01*
X70207142Y-101687380D01*
X70064285Y-101735000D01*
X70016666Y-101782619D01*
X69111904Y-101687380D02*
X69588095Y-101687380D01*
X69635714Y-102163571D01*
X69588095Y-102115952D01*
X69492857Y-102068333D01*
X69254761Y-102068333D01*
X69159523Y-102115952D01*
X69111904Y-102163571D01*
X69064285Y-102258809D01*
X69064285Y-102496904D01*
X69111904Y-102592142D01*
X69159523Y-102639761D01*
X69254761Y-102687380D01*
X69492857Y-102687380D01*
X69588095Y-102639761D01*
X69635714Y-102592142D01*
X109957142Y-83653333D02*
X110004761Y-83605714D01*
X110052380Y-83462857D01*
X110052380Y-83367619D01*
X110004761Y-83224761D01*
X109909523Y-83129523D01*
X109814285Y-83081904D01*
X109623809Y-83034285D01*
X109480952Y-83034285D01*
X109290476Y-83081904D01*
X109195238Y-83129523D01*
X109100000Y-83224761D01*
X109052380Y-83367619D01*
X109052380Y-83462857D01*
X109100000Y-83605714D01*
X109147619Y-83653333D01*
X109052380Y-84510476D02*
X109052380Y-84320000D01*
X109100000Y-84224761D01*
X109147619Y-84177142D01*
X109290476Y-84081904D01*
X109480952Y-84034285D01*
X109861904Y-84034285D01*
X109957142Y-84081904D01*
X110004761Y-84129523D01*
X110052380Y-84224761D01*
X110052380Y-84415238D01*
X110004761Y-84510476D01*
X109957142Y-84558095D01*
X109861904Y-84605714D01*
X109623809Y-84605714D01*
X109528571Y-84558095D01*
X109480952Y-84510476D01*
X109433333Y-84415238D01*
X109433333Y-84224761D01*
X109480952Y-84129523D01*
X109528571Y-84081904D01*
X109623809Y-84034285D01*
X56046666Y-77192142D02*
X56094285Y-77239761D01*
X56237142Y-77287380D01*
X56332380Y-77287380D01*
X56475238Y-77239761D01*
X56570476Y-77144523D01*
X56618095Y-77049285D01*
X56665714Y-76858809D01*
X56665714Y-76715952D01*
X56618095Y-76525476D01*
X56570476Y-76430238D01*
X56475238Y-76335000D01*
X56332380Y-76287380D01*
X56237142Y-76287380D01*
X56094285Y-76335000D01*
X56046666Y-76382619D01*
X55713333Y-76287380D02*
X55046666Y-76287380D01*
X55475238Y-77287380D01*
X65412857Y-49887142D02*
X65460476Y-49934761D01*
X65603333Y-49982380D01*
X65698571Y-49982380D01*
X65841428Y-49934761D01*
X65936666Y-49839523D01*
X65984285Y-49744285D01*
X66031904Y-49553809D01*
X66031904Y-49410952D01*
X65984285Y-49220476D01*
X65936666Y-49125238D01*
X65841428Y-49030000D01*
X65698571Y-48982380D01*
X65603333Y-48982380D01*
X65460476Y-49030000D01*
X65412857Y-49077619D01*
X64460476Y-49982380D02*
X65031904Y-49982380D01*
X64746190Y-49982380D02*
X64746190Y-48982380D01*
X64841428Y-49125238D01*
X64936666Y-49220476D01*
X65031904Y-49268095D01*
X64127142Y-48982380D02*
X63508095Y-48982380D01*
X63841428Y-49363333D01*
X63698571Y-49363333D01*
X63603333Y-49410952D01*
X63555714Y-49458571D01*
X63508095Y-49553809D01*
X63508095Y-49791904D01*
X63555714Y-49887142D01*
X63603333Y-49934761D01*
X63698571Y-49982380D01*
X63984285Y-49982380D01*
X64079523Y-49934761D01*
X64127142Y-49887142D01*
M02*
