M48
; DRILL file {KiCad (5.1.4)-1} date 2020-07-02 19:18:46
; FORMAT={-:-/ absolute / inch / decimal}
; #@! TF.CreationDate,2020-07-02T19:18:46-04:00
; #@! TF.GenerationSoftware,Kicad,Pcbnew,(5.1.4)-1
; #@! TF.FileFunction,Plated,1,2,PTH
FMAT,2
INCH
T1C0.0157
T2C0.0315
T3C0.0362
T4C0.0394
T5C0.0917
T6C0.1063
%
G90
G05
T1
X1.95Y-3.575
X2.1Y-3.375
X2.175Y-3.55
X2.175Y-4.0
X2.2Y-2.225
X2.2823Y-3.2776
X2.4224Y-3.025
X2.425Y-2.15
X2.425Y-4.3
X2.45Y-3.975
X2.475Y-4.4
X2.475Y-4.7776
X2.525Y-4.5
X2.6659Y-4.493
X2.675Y-1.575
X2.725Y-1.85
X2.775Y-4.8
X2.85Y-1.875
X2.85Y-2.75
X2.85Y-1.95
X2.8556Y-1.9997
X2.875Y-2.225
X2.925Y-3.9
X2.95Y-1.575
X2.95Y-1.65
X2.95Y-2.2474
X2.975Y-2.55
X3.0Y-3.2
X3.0224Y-2.2
X3.05Y-2.475
X3.05Y-3.825
X3.125Y-2.2224
X3.15Y-3.35
X3.175Y-3.15
X3.2Y-2.525
X3.275Y-4.0
X3.325Y-3.9
X3.35Y-3.2
X3.35Y-3.8
X3.4Y-3.7
X3.5Y-3.75
X3.55Y-2.225
X3.575Y-3.85
X3.6Y-3.95
X3.65Y-2.25
X3.675Y-4.05
X3.825Y-3.15
X4.0Y-3.35
X4.025Y-2.7526
X4.05Y-2.4
X4.15Y-2.475
X4.35Y-2.4
X4.525Y-2.175
T2
X2.3Y-2.0016
X2.3Y-2.1
X2.075Y-2.425
X2.475Y-2.425
X1.7579Y-2.85
X1.95Y-2.85
X3.15Y-2.0
X3.15Y-2.6
X3.25Y-2.0
X3.25Y-2.6
X3.35Y-2.0
X3.35Y-2.6
X3.45Y-2.0
X3.45Y-2.6
X3.55Y-2.0
X3.55Y-2.6
X3.65Y-2.0
X3.65Y-2.6
X3.75Y-2.0
X3.75Y-2.6
X3.85Y-2.0
X3.85Y-2.6
X3.95Y-2.0
X3.95Y-2.6
X4.05Y-2.0
X4.05Y-2.6
X4.15Y-2.0
X4.15Y-2.6
X4.25Y-2.0
X4.25Y-2.6
X4.35Y-2.0
X4.35Y-2.6
X4.45Y-2.0
X4.45Y-2.6
X4.55Y-2.0
X4.55Y-2.6
X4.65Y-2.0
X4.65Y-2.6
X4.75Y-2.0
X4.75Y-2.6
X4.85Y-2.0
X4.85Y-2.6
X4.95Y-2.0
X4.95Y-2.6
X5.05Y-2.0
X5.05Y-2.6
X3.95Y-3.7
X3.95Y-3.8
X3.95Y-3.9
X3.95Y-4.0
X3.95Y-4.1
X3.95Y-4.2
X3.95Y-4.3
X3.95Y-4.4
X3.95Y-4.5
X3.95Y-4.6
X3.95Y-4.7
X3.95Y-4.8
X3.95Y-4.9
X3.95Y-5.0
X4.25Y-3.7
X4.25Y-3.8
X4.25Y-3.9
X4.25Y-4.0
X4.25Y-4.1
X4.25Y-4.2
X4.25Y-4.3
X4.25Y-4.4
X4.25Y-4.5
X4.25Y-4.6
X4.25Y-4.7
X4.25Y-4.8
X4.25Y-4.9
X4.25Y-5.0
X3.15Y-3.7
X3.15Y-3.8
X3.15Y-3.9
X3.15Y-4.0
X3.15Y-4.1
X3.15Y-4.2
X3.15Y-4.3
X3.15Y-4.4
X3.15Y-4.5
X3.15Y-4.6
X3.15Y-4.7
X3.15Y-4.8
X3.15Y-4.9
X3.15Y-5.0
X3.75Y-3.7
X3.75Y-3.8
X3.75Y-3.9
X3.75Y-4.0
X3.75Y-4.1
X3.75Y-4.2
X3.75Y-4.3
X3.75Y-4.4
X3.75Y-4.5
X3.75Y-4.6
X3.75Y-4.7
X3.75Y-4.8
X3.75Y-4.9
X3.75Y-5.0
X1.875Y-2.425
X1.875Y-2.5234
X3.15Y-2.85
X3.15Y-3.45
X3.25Y-2.85
X3.25Y-3.45
X3.35Y-2.85
X3.35Y-3.45
X3.45Y-2.85
X3.45Y-3.45
X3.55Y-2.85
X3.55Y-3.45
X3.65Y-2.85
X3.65Y-3.45
X3.75Y-2.85
X3.75Y-3.45
X3.85Y-2.85
X3.85Y-3.45
X3.95Y-2.85
X3.95Y-3.45
X4.05Y-2.85
X4.05Y-3.45
X4.15Y-2.85
X4.15Y-3.45
X4.25Y-2.85
X4.25Y-3.45
X2.075Y-2.55
X2.475Y-2.55
X1.875Y-2.0016
X1.875Y-2.1
X2.075Y-2.675
X2.475Y-2.675
X2.6Y-2.9
X2.6Y-3.0
X2.6Y-3.1
X2.6Y-3.2
X2.6Y-3.3
X2.6Y-3.4
X2.6Y-3.5
X2.6Y-3.6
X2.6Y-3.7
X2.6Y-3.8
X2.9Y-2.9
X2.9Y-3.0
X2.9Y-3.1
X2.9Y-3.2
X2.9Y-3.3
X2.9Y-3.4
X2.9Y-3.5
X2.9Y-3.6
X2.9Y-3.7
X2.9Y-3.8
X1.75Y-3.1
X1.75Y-3.2
X1.75Y-3.3
X1.75Y-3.4
X1.75Y-3.5
X1.75Y-3.6
X1.75Y-3.7
X1.75Y-3.8
X1.75Y-3.9
X1.75Y-4.0
X1.75Y-4.1
X1.75Y-4.2
X1.75Y-4.3
X1.75Y-4.4
X1.75Y-4.5
X1.75Y-4.6
X1.75Y-4.7
X1.75Y-4.8
X1.75Y-4.9
X1.75Y-5.0
X2.35Y-3.1
X2.35Y-3.2
X2.35Y-3.3
X2.35Y-3.4
X2.35Y-3.5
X2.35Y-3.6
X2.35Y-3.7
X2.35Y-3.8
X2.35Y-3.9
X2.35Y-4.0
X2.35Y-4.1
X2.35Y-4.2
X2.35Y-4.3
X2.35Y-4.4
X2.35Y-4.5
X2.35Y-4.6
X2.35Y-4.7
X2.35Y-4.8
X2.35Y-4.9
X2.35Y-5.0
X2.15Y-2.8016
X2.15Y-2.9
X2.6Y-4.1
X2.6Y-4.2
X2.6Y-4.3
X2.6Y-4.4
X2.6Y-4.5
X2.6Y-4.6
X2.6Y-4.7
X2.6Y-4.8
X2.6Y-4.9
X2.6Y-5.0
X2.9Y-4.1
X2.9Y-4.2
X2.9Y-4.3
X2.9Y-4.4
X2.9Y-4.5
X2.9Y-4.6
X2.9Y-4.7
X2.9Y-4.8
X2.9Y-4.9
X2.9Y-5.0
T3
X2.075Y-1.7213
X2.075Y-1.8
X2.1734Y-1.7213
X2.1734Y-1.8
T4
X1.65Y-2.0
X1.65Y-2.1
X1.65Y-2.325
X1.65Y-2.425
T5
X1.8872Y-1.6146
X2.3612Y-1.6146
T6
X5.1181Y-5.1181
X1.5748Y-1.5748
X1.5748Y-5.1181
X5.1181Y-1.5748
T0
M30
