G04 #@! TF.GenerationSoftware,KiCad,Pcbnew,(5.0.0)*
G04 #@! TF.CreationDate,2018-09-18T13:10:02-04:00*
G04 #@! TF.ProjectId,CPU8085,435055383038352E6B696361645F7063,A*
G04 #@! TF.SameCoordinates,Original*
G04 #@! TF.FileFunction,Soldermask,Top*
G04 #@! TF.FilePolarity,Negative*
%FSLAX46Y46*%
G04 Gerber Fmt 4.6, Leading zero omitted, Abs format (unit mm)*
G04 Created by KiCad (PCBNEW (5.0.0)) date 09/18/18 13:10:02*
%MOMM*%
%LPD*%
G01*
G04 APERTURE LIST*
%ADD10R,1.600000X1.600000*%
%ADD11O,1.600000X1.600000*%
%ADD12C,1.600000*%
%ADD13O,1.740000X2.200000*%
%ADD14R,1.740000X2.200000*%
%ADD15R,1.500000X1.500000*%
%ADD16C,1.500000*%
%ADD17O,1.700000X1.700000*%
%ADD18R,1.700000X1.700000*%
%ADD19C,5.400000*%
G04 APERTURE END LIST*
D10*
G04 #@! TO.C,D1*
X52070000Y-64770000D03*
D11*
X41910000Y-64770000D03*
G04 #@! TD*
D12*
G04 #@! TO.C,R1*
X52070000Y-59690000D03*
D11*
X41910000Y-59690000D03*
G04 #@! TD*
G04 #@! TO.C,R2*
X120396000Y-78232000D03*
D12*
X130556000Y-78232000D03*
G04 #@! TD*
G04 #@! TO.C,R3*
X120396000Y-81280000D03*
D11*
X130556000Y-81280000D03*
G04 #@! TD*
G04 #@! TO.C,U5*
X74295000Y-59690000D03*
X74295000Y-62230000D03*
X59055000Y-62230000D03*
X59055000Y-59690000D03*
X74295000Y-39370000D03*
X59055000Y-57150000D03*
X74295000Y-41910000D03*
X59055000Y-54610000D03*
X74295000Y-44450000D03*
X59055000Y-52070000D03*
X74295000Y-46990000D03*
X59055000Y-49530000D03*
X74295000Y-49530000D03*
X59055000Y-46990000D03*
X74295000Y-52070000D03*
X59055000Y-44450000D03*
X74295000Y-54610000D03*
X59055000Y-41910000D03*
X74295000Y-57150000D03*
D10*
X59055000Y-39370000D03*
G04 #@! TD*
G04 #@! TO.C,RN3*
X101346000Y-45466000D03*
D11*
X98806000Y-45466000D03*
X96266000Y-45466000D03*
X93726000Y-45466000D03*
X91186000Y-45466000D03*
X88646000Y-45466000D03*
G04 #@! TD*
D13*
G04 #@! TO.C,J1*
X53848000Y-40640000D03*
X51308000Y-40640000D03*
X48768000Y-40640000D03*
D14*
X46228000Y-40640000D03*
G04 #@! TD*
D15*
G04 #@! TO.C,Q1*
X125222000Y-70358000D03*
D16*
X125222000Y-75438000D03*
X125222000Y-72898000D03*
G04 #@! TD*
D12*
G04 #@! TO.C,C10*
X125222000Y-87590000D03*
D10*
X125222000Y-85090000D03*
G04 #@! TD*
D17*
G04 #@! TO.C,J2*
X130556000Y-84836000D03*
D18*
X130556000Y-87376000D03*
G04 #@! TD*
D11*
G04 #@! TO.C,U6*
X116840000Y-87630000D03*
X88900000Y-72390000D03*
X114300000Y-87630000D03*
X91440000Y-72390000D03*
X111760000Y-87630000D03*
X93980000Y-72390000D03*
X109220000Y-87630000D03*
X96520000Y-72390000D03*
X106680000Y-87630000D03*
X99060000Y-72390000D03*
X104140000Y-87630000D03*
X101600000Y-72390000D03*
X101600000Y-87630000D03*
X104140000Y-72390000D03*
X99060000Y-87630000D03*
X106680000Y-72390000D03*
X96520000Y-87630000D03*
X109220000Y-72390000D03*
X93980000Y-87630000D03*
X111760000Y-72390000D03*
X91440000Y-87630000D03*
X114300000Y-72390000D03*
X88900000Y-87630000D03*
D10*
X116840000Y-72390000D03*
G04 #@! TD*
D11*
G04 #@! TO.C,U4*
X80010000Y-50800000D03*
X128270000Y-66040000D03*
X82550000Y-50800000D03*
X125730000Y-66040000D03*
X85090000Y-50800000D03*
X123190000Y-66040000D03*
X87630000Y-50800000D03*
X120650000Y-66040000D03*
X90170000Y-50800000D03*
X118110000Y-66040000D03*
X92710000Y-50800000D03*
X115570000Y-66040000D03*
X95250000Y-50800000D03*
X113030000Y-66040000D03*
X97790000Y-50800000D03*
X110490000Y-66040000D03*
X100330000Y-50800000D03*
X107950000Y-66040000D03*
X102870000Y-50800000D03*
X105410000Y-66040000D03*
X105410000Y-50800000D03*
X102870000Y-66040000D03*
X107950000Y-50800000D03*
X100330000Y-66040000D03*
X110490000Y-50800000D03*
X97790000Y-66040000D03*
X113030000Y-50800000D03*
X95250000Y-66040000D03*
X115570000Y-50800000D03*
X92710000Y-66040000D03*
X118110000Y-50800000D03*
X90170000Y-66040000D03*
X120650000Y-50800000D03*
X87630000Y-66040000D03*
X123190000Y-50800000D03*
X85090000Y-66040000D03*
X125730000Y-50800000D03*
X82550000Y-66040000D03*
X128270000Y-50800000D03*
D10*
X80010000Y-66040000D03*
G04 #@! TD*
D11*
G04 #@! TO.C,U7*
X59690000Y-78740000D03*
X44450000Y-127000000D03*
X59690000Y-81280000D03*
X44450000Y-124460000D03*
X59690000Y-83820000D03*
X44450000Y-121920000D03*
X59690000Y-86360000D03*
X44450000Y-119380000D03*
X59690000Y-88900000D03*
X44450000Y-116840000D03*
X59690000Y-91440000D03*
X44450000Y-114300000D03*
X59690000Y-93980000D03*
X44450000Y-111760000D03*
X59690000Y-96520000D03*
X44450000Y-109220000D03*
X59690000Y-99060000D03*
X44450000Y-106680000D03*
X59690000Y-101600000D03*
X44450000Y-104140000D03*
X59690000Y-104140000D03*
X44450000Y-101600000D03*
X59690000Y-106680000D03*
X44450000Y-99060000D03*
X59690000Y-109220000D03*
X44450000Y-96520000D03*
X59690000Y-111760000D03*
X44450000Y-93980000D03*
X59690000Y-114300000D03*
X44450000Y-91440000D03*
X59690000Y-116840000D03*
X44450000Y-88900000D03*
X59690000Y-119380000D03*
X44450000Y-86360000D03*
X59690000Y-121920000D03*
X44450000Y-83820000D03*
X59690000Y-124460000D03*
X44450000Y-81280000D03*
X59690000Y-127000000D03*
D10*
X44450000Y-78740000D03*
G04 #@! TD*
D11*
G04 #@! TO.C,U2*
X88900000Y-127000000D03*
X104140000Y-93980000D03*
X88900000Y-124460000D03*
X104140000Y-96520000D03*
X88900000Y-121920000D03*
X104140000Y-99060000D03*
X88900000Y-119380000D03*
X104140000Y-101600000D03*
X88900000Y-116840000D03*
X104140000Y-104140000D03*
X88900000Y-114300000D03*
X104140000Y-106680000D03*
X88900000Y-111760000D03*
X104140000Y-109220000D03*
X88900000Y-109220000D03*
X104140000Y-111760000D03*
X88900000Y-106680000D03*
X104140000Y-114300000D03*
X88900000Y-104140000D03*
X104140000Y-116840000D03*
X88900000Y-101600000D03*
X104140000Y-119380000D03*
X88900000Y-99060000D03*
X104140000Y-121920000D03*
X88900000Y-96520000D03*
X104140000Y-124460000D03*
X88900000Y-93980000D03*
D10*
X104140000Y-127000000D03*
G04 #@! TD*
D19*
G04 #@! TO.C,MH4*
X130000000Y-130000000D03*
G04 #@! TD*
G04 #@! TO.C,MH3*
X40000000Y-130000000D03*
G04 #@! TD*
G04 #@! TO.C,MH2*
X130000000Y-40000000D03*
G04 #@! TD*
G04 #@! TO.C,MH1*
X40000000Y-40000000D03*
G04 #@! TD*
D12*
G04 #@! TO.C,C8*
X49530000Y-50840000D03*
D10*
X49530000Y-53340000D03*
G04 #@! TD*
D12*
G04 #@! TO.C,C9*
X57190000Y-70104000D03*
X59690000Y-70104000D03*
G04 #@! TD*
G04 #@! TO.C,C1*
X131445000Y-66000000D03*
X131445000Y-63500000D03*
G04 #@! TD*
G04 #@! TO.C,C2*
X91400000Y-130810000D03*
X88900000Y-130810000D03*
G04 #@! TD*
G04 #@! TO.C,C3*
X119380000Y-130810000D03*
X116880000Y-130810000D03*
G04 #@! TD*
G04 #@! TO.C,C4*
X76240000Y-69850000D03*
X78740000Y-69850000D03*
G04 #@! TD*
G04 #@! TO.C,C5*
X71160000Y-130810000D03*
X73660000Y-130810000D03*
G04 #@! TD*
G04 #@! TO.C,C6*
X120650000Y-85130000D03*
X120650000Y-87630000D03*
G04 #@! TD*
D11*
G04 #@! TO.C,U1*
X78740000Y-73660000D03*
X71120000Y-96520000D03*
X78740000Y-76200000D03*
X71120000Y-93980000D03*
X78740000Y-78740000D03*
X71120000Y-91440000D03*
X78740000Y-81280000D03*
X71120000Y-88900000D03*
X78740000Y-83820000D03*
X71120000Y-86360000D03*
X78740000Y-86360000D03*
X71120000Y-83820000D03*
X78740000Y-88900000D03*
X71120000Y-81280000D03*
X78740000Y-91440000D03*
X71120000Y-78740000D03*
X78740000Y-93980000D03*
X71120000Y-76200000D03*
X78740000Y-96520000D03*
D10*
X71120000Y-73660000D03*
G04 #@! TD*
D11*
G04 #@! TO.C,U8*
X78740000Y-104140000D03*
X71120000Y-127000000D03*
X78740000Y-106680000D03*
X71120000Y-124460000D03*
X78740000Y-109220000D03*
X71120000Y-121920000D03*
X78740000Y-111760000D03*
X71120000Y-119380000D03*
X78740000Y-114300000D03*
X71120000Y-116840000D03*
X78740000Y-116840000D03*
X71120000Y-114300000D03*
X78740000Y-119380000D03*
X71120000Y-111760000D03*
X78740000Y-121920000D03*
X71120000Y-109220000D03*
X78740000Y-124460000D03*
X71120000Y-106680000D03*
X78740000Y-127000000D03*
D10*
X71120000Y-104140000D03*
G04 #@! TD*
D11*
G04 #@! TO.C,U3*
X116840000Y-127000000D03*
X124460000Y-93980000D03*
X116840000Y-124460000D03*
X124460000Y-96520000D03*
X116840000Y-121920000D03*
X124460000Y-99060000D03*
X116840000Y-119380000D03*
X124460000Y-101600000D03*
X116840000Y-116840000D03*
X124460000Y-104140000D03*
X116840000Y-114300000D03*
X124460000Y-106680000D03*
X116840000Y-111760000D03*
X124460000Y-109220000D03*
X116840000Y-109220000D03*
X124460000Y-111760000D03*
X116840000Y-106680000D03*
X124460000Y-114300000D03*
X116840000Y-104140000D03*
X124460000Y-116840000D03*
X116840000Y-101600000D03*
X124460000Y-119380000D03*
X116840000Y-99060000D03*
X124460000Y-121920000D03*
X116840000Y-96520000D03*
X124460000Y-124460000D03*
X116840000Y-93980000D03*
D10*
X124460000Y-127000000D03*
G04 #@! TD*
D11*
G04 #@! TO.C,RN2*
X64770000Y-102870000D03*
X64770000Y-100330000D03*
X64770000Y-97790000D03*
X64770000Y-95250000D03*
X64770000Y-92710000D03*
D10*
X64770000Y-90170000D03*
G04 #@! TD*
D11*
G04 #@! TO.C,RN1*
X39370000Y-101600000D03*
X39370000Y-99060000D03*
X39370000Y-96520000D03*
X39370000Y-93980000D03*
X39370000Y-91440000D03*
X39370000Y-88900000D03*
X39370000Y-86360000D03*
D10*
X39370000Y-83820000D03*
G04 #@! TD*
D12*
G04 #@! TO.C,C7*
X57190000Y-74676000D03*
X59690000Y-74676000D03*
G04 #@! TD*
D16*
G04 #@! TO.C,Y1*
X44650000Y-72390000D03*
X49530000Y-72390000D03*
G04 #@! TD*
D17*
G04 #@! TO.C,SW1*
X41910000Y-53340000D03*
D18*
X41910000Y-50800000D03*
G04 #@! TD*
M02*
