G04 #@! TF.GenerationSoftware,KiCad,Pcbnew,(5.0.0)*
G04 #@! TF.CreationDate,2018-09-18T13:10:02-04:00*
G04 #@! TF.ProjectId,CPU8085,435055383038352E6B696361645F7063,A*
G04 #@! TF.SameCoordinates,Original*
G04 #@! TF.FileFunction,Legend,Bot*
G04 #@! TF.FilePolarity,Positive*
%FSLAX46Y46*%
G04 Gerber Fmt 4.6, Leading zero omitted, Abs format (unit mm)*
G04 Created by KiCad (PCBNEW (5.0.0)) date 09/18/18 13:10:02*
%MOMM*%
%LPD*%
G01*
G04 APERTURE LIST*
%ADD10C,0.200000*%
%ADD11C,0.120000*%
G04 APERTURE END LIST*
D10*
X84415142Y-43470000D02*
X83415142Y-43470000D01*
X83605619Y-44807142D02*
X83653238Y-44854761D01*
X83796095Y-44902380D01*
X83891333Y-44902380D01*
X84034190Y-44854761D01*
X84129428Y-44759523D01*
X84177047Y-44664285D01*
X84224666Y-44473809D01*
X84224666Y-44330952D01*
X84177047Y-44140476D01*
X84129428Y-44045238D01*
X84034190Y-43950000D01*
X83891333Y-43902380D01*
X83796095Y-43902380D01*
X83653238Y-43950000D01*
X83605619Y-43997619D01*
X83415142Y-43470000D02*
X82653238Y-43470000D01*
X83319904Y-43902380D02*
X82748476Y-43902380D01*
X83034190Y-44902380D02*
X83034190Y-43902380D01*
X82653238Y-43470000D02*
X81700857Y-43470000D01*
X82462761Y-44854761D02*
X82319904Y-44902380D01*
X82081809Y-44902380D01*
X81986571Y-44854761D01*
X81938952Y-44807142D01*
X81891333Y-44711904D01*
X81891333Y-44616666D01*
X81938952Y-44521428D01*
X81986571Y-44473809D01*
X82081809Y-44426190D01*
X82272285Y-44378571D01*
X82367523Y-44330952D01*
X82415142Y-44283333D01*
X82462761Y-44188095D01*
X82462761Y-44092857D01*
X82415142Y-43997619D01*
X82367523Y-43950000D01*
X82272285Y-43902380D01*
X82034190Y-43902380D01*
X81891333Y-43950000D01*
X84534190Y-56424000D02*
X83534190Y-56424000D01*
X84296095Y-57856380D02*
X84296095Y-56856380D01*
X84058000Y-56856380D01*
X83915142Y-56904000D01*
X83819904Y-56999238D01*
X83772285Y-57094476D01*
X83724666Y-57284952D01*
X83724666Y-57427809D01*
X83772285Y-57618285D01*
X83819904Y-57713523D01*
X83915142Y-57808761D01*
X84058000Y-57856380D01*
X84296095Y-57856380D01*
X83534190Y-56424000D02*
X82581809Y-56424000D01*
X83343714Y-57808761D02*
X83200857Y-57856380D01*
X82962761Y-57856380D01*
X82867523Y-57808761D01*
X82819904Y-57761142D01*
X82772285Y-57665904D01*
X82772285Y-57570666D01*
X82819904Y-57475428D01*
X82867523Y-57427809D01*
X82962761Y-57380190D01*
X83153238Y-57332571D01*
X83248476Y-57284952D01*
X83296095Y-57237333D01*
X83343714Y-57142095D01*
X83343714Y-57046857D01*
X83296095Y-56951619D01*
X83248476Y-56904000D01*
X83153238Y-56856380D01*
X82915142Y-56856380D01*
X82772285Y-56904000D01*
X82581809Y-56424000D02*
X81581809Y-56424000D01*
X81772285Y-57856380D02*
X82105619Y-57380190D01*
X82343714Y-57856380D02*
X82343714Y-56856380D01*
X81962761Y-56856380D01*
X81867523Y-56904000D01*
X81819904Y-56951619D01*
X81772285Y-57046857D01*
X81772285Y-57189714D01*
X81819904Y-57284952D01*
X81867523Y-57332571D01*
X81962761Y-57380190D01*
X82343714Y-57380190D01*
X96630952Y-55916000D02*
X95630952Y-55916000D01*
X96392857Y-57348380D02*
X96392857Y-56348380D01*
X96154761Y-56348380D01*
X96011904Y-56396000D01*
X95916666Y-56491238D01*
X95869047Y-56586476D01*
X95821428Y-56776952D01*
X95821428Y-56919809D01*
X95869047Y-57110285D01*
X95916666Y-57205523D01*
X96011904Y-57300761D01*
X96154761Y-57348380D01*
X96392857Y-57348380D01*
X95630952Y-55916000D02*
X94869047Y-55916000D01*
X95535714Y-56348380D02*
X94964285Y-56348380D01*
X95250000Y-57348380D02*
X95250000Y-56348380D01*
X94869047Y-55916000D02*
X93869047Y-55916000D01*
X94059523Y-57348380D02*
X94392857Y-56872190D01*
X94630952Y-57348380D02*
X94630952Y-56348380D01*
X94250000Y-56348380D01*
X94154761Y-56396000D01*
X94107142Y-56443619D01*
X94059523Y-56538857D01*
X94059523Y-56681714D01*
X94107142Y-56776952D01*
X94154761Y-56824571D01*
X94250000Y-56872190D01*
X94630952Y-56872190D01*
X100925142Y-55916000D02*
X99925142Y-55916000D01*
X100115619Y-57348380D02*
X100448952Y-56872190D01*
X100687047Y-57348380D02*
X100687047Y-56348380D01*
X100306095Y-56348380D01*
X100210857Y-56396000D01*
X100163238Y-56443619D01*
X100115619Y-56538857D01*
X100115619Y-56681714D01*
X100163238Y-56776952D01*
X100210857Y-56824571D01*
X100306095Y-56872190D01*
X100687047Y-56872190D01*
X99925142Y-55916000D02*
X99163238Y-55916000D01*
X99829904Y-56348380D02*
X99258476Y-56348380D01*
X99544190Y-57348380D02*
X99544190Y-56348380D01*
X99163238Y-55916000D02*
X98210857Y-55916000D01*
X98972761Y-57300761D02*
X98829904Y-57348380D01*
X98591809Y-57348380D01*
X98496571Y-57300761D01*
X98448952Y-57253142D01*
X98401333Y-57157904D01*
X98401333Y-57062666D01*
X98448952Y-56967428D01*
X98496571Y-56919809D01*
X98591809Y-56872190D01*
X98782285Y-56824571D01*
X98877523Y-56776952D01*
X98925142Y-56729333D01*
X98972761Y-56634095D01*
X98972761Y-56538857D01*
X98925142Y-56443619D01*
X98877523Y-56396000D01*
X98782285Y-56348380D01*
X98544190Y-56348380D01*
X98401333Y-56396000D01*
D11*
G04 #@! TO.C,JP1*
X96650000Y-53356000D02*
X93850000Y-53356000D01*
X93850000Y-53356000D02*
X93850000Y-55356000D01*
X93850000Y-55356000D02*
X96650000Y-55356000D01*
X96650000Y-55356000D02*
X96650000Y-53356000D01*
G04 #@! TO.C,JP4*
X84458000Y-47482000D02*
X84458000Y-45482000D01*
X81658000Y-47482000D02*
X84458000Y-47482000D01*
X81658000Y-45482000D02*
X81658000Y-47482000D01*
X84458000Y-45482000D02*
X81658000Y-45482000D01*
G04 #@! TO.C,JP2*
X101080000Y-53356000D02*
X98280000Y-53356000D01*
X98280000Y-53356000D02*
X98280000Y-55356000D01*
X98280000Y-55356000D02*
X101080000Y-55356000D01*
X101080000Y-55356000D02*
X101080000Y-53356000D01*
G04 #@! TO.C,JP3*
X84458000Y-55356000D02*
X84458000Y-53356000D01*
X81658000Y-55356000D02*
X84458000Y-55356000D01*
X81658000Y-53356000D02*
X81658000Y-55356000D01*
X84458000Y-53356000D02*
X81658000Y-53356000D01*
G04 #@! TD*
M02*
