M48
;DRILL file {KiCad (5.0.0)} date 09/18/18 13:08:56
;FORMAT={-:-/ absolute / inch / decimal}
FMAT,2
INCH,TZ
T1C0.0157
T2C0.0315
T3C0.0394
T4C0.0472
T5C0.1063
%
G90
G05
M72
T1
X2.45Y-4.3
X2.625Y-2.9
X2.65Y-4.4
X2.7Y-4.5
X2.875Y-5.025
X2.9Y-4.15
X2.9Y-4.2
X2.95Y-4.6
X2.96Y-4.5
X2.9667Y-4.7
X2.975Y-4.8
X3.025Y-4.9
X3.03Y-2.2
X3.125Y-2.5
X3.15Y-1.92
X3.17Y-2.9
X3.175Y-2.35
X3.2Y-2.45
X3.22Y-4.55
X3.25Y-4.475
X3.25Y-4.8
X3.25Y-3.45
X3.26Y-3.79
X3.3Y-5.
X3.325Y-4.4
X3.35Y-4.6
X3.4Y-4.7
X3.4Y-4.9
X3.5Y-3.32
X3.575Y-3.55
X3.6Y-2.95
X3.6Y-4.4
X3.63Y-3.7
X3.65Y-3.3
X3.65Y-4.95
X3.66Y-4.21
X3.72Y-2.07
X3.75Y-3.7
X3.8Y-3.03
X3.85Y-2.07
X3.85Y-4.
X3.95Y-3.9
X3.99Y-1.92
X4.Y-2.9724
X4.Y-3.03
X4.Y-3.8
X4.1Y-5.15
X4.15Y-2.4
X4.2Y-3.65
X4.225Y-4.25
X4.3Y-3.35
X4.3Y-3.75
X4.35Y-2.4
X4.35Y-3.85
X4.4Y-4.4
X4.45Y-2.45
X4.45Y-3.95
X4.5Y-2.2
X4.5Y-3.6
X4.5Y-5.1
X4.55Y-2.7
X4.7Y-4.35
X4.72Y-3.
X5.05Y-3.7
T2
X4.74Y-3.2
X5.14Y-3.2
X1.95Y-2.0016
X1.95Y-2.1
X4.93Y-2.77
X4.93Y-2.87
X4.93Y-2.97
X3.5Y-2.85
X3.5Y-3.45
X3.6Y-2.85
X3.6Y-3.45
X3.7Y-2.85
X3.7Y-3.45
X3.8Y-2.85
X3.8Y-3.45
X3.9Y-2.85
X3.9Y-3.45
X4.Y-2.85
X4.Y-3.45
X4.1Y-2.85
X4.1Y-3.45
X4.2Y-2.85
X4.2Y-3.45
X4.3Y-2.85
X4.3Y-3.45
X4.4Y-2.85
X4.4Y-3.45
X4.5Y-2.85
X4.5Y-3.45
X4.6Y-2.85
X4.6Y-3.45
X1.7579Y-2.85
X1.95Y-2.85
X3.15Y-2.
X3.15Y-2.6
X3.25Y-2.
X3.25Y-2.6
X3.35Y-2.
X3.35Y-2.6
X3.45Y-2.
X3.45Y-2.6
X3.55Y-2.
X3.55Y-2.6
X3.65Y-2.
X3.65Y-2.6
X3.75Y-2.
X3.75Y-2.6
X3.85Y-2.
X3.85Y-2.6
X3.95Y-2.
X3.95Y-2.6
X4.05Y-2.
X4.05Y-2.6
X4.15Y-2.
X4.15Y-2.6
X4.25Y-2.
X4.25Y-2.6
X4.35Y-2.
X4.35Y-2.6
X4.45Y-2.
X4.45Y-2.6
X4.55Y-2.
X4.55Y-2.6
X4.65Y-2.
X4.65Y-2.6
X4.75Y-2.
X4.75Y-2.6
X4.85Y-2.
X4.85Y-2.6
X4.95Y-2.
X4.95Y-2.6
X5.05Y-2.
X5.05Y-2.6
X4.6Y-3.7
X4.6Y-3.8
X4.6Y-3.9
X4.6Y-4.
X4.6Y-4.1
X4.6Y-4.2
X4.6Y-4.3
X4.6Y-4.4
X4.6Y-4.5
X4.6Y-4.6
X4.6Y-4.7
X4.6Y-4.8
X4.6Y-4.9
X4.6Y-5.
X4.9Y-3.7
X4.9Y-3.8
X4.9Y-3.9
X4.9Y-4.
X4.9Y-4.1
X4.9Y-4.2
X4.9Y-4.3
X4.9Y-4.4
X4.9Y-4.5
X4.9Y-4.6
X4.9Y-4.7
X4.9Y-4.8
X4.9Y-4.9
X4.9Y-5.
X4.75Y-3.3516
X4.75Y-3.45
X2.8Y-2.9
X2.8Y-3.
X2.8Y-3.1
X2.8Y-3.2
X2.8Y-3.3
X2.8Y-3.4
X2.8Y-3.5
X2.8Y-3.6
X2.8Y-3.7
X2.8Y-3.8
X3.1Y-2.9
X3.1Y-3.
X3.1Y-3.1
X3.1Y-3.2
X3.1Y-3.3
X3.1Y-3.4
X3.1Y-3.5
X3.1Y-3.6
X3.1Y-3.7
X3.1Y-3.8
X5.175Y-2.5
X5.175Y-2.5984
X1.75Y-3.1
X1.75Y-3.2
X1.75Y-3.3
X1.75Y-3.4
X1.75Y-3.5
X1.75Y-3.6
X1.75Y-3.7
X1.75Y-3.8
X1.75Y-3.9
X1.75Y-4.
X1.75Y-4.1
X1.75Y-4.2
X1.75Y-4.3
X1.75Y-4.4
X1.75Y-4.5
X1.75Y-4.6
X1.75Y-4.7
X1.75Y-4.8
X1.75Y-4.9
X1.75Y-5.
X2.35Y-3.1
X2.35Y-3.2
X2.35Y-3.3
X2.35Y-3.4
X2.35Y-3.5
X2.35Y-3.6
X2.35Y-3.7
X2.35Y-3.8
X2.35Y-3.9
X2.35Y-4.
X2.35Y-4.1
X2.35Y-4.2
X2.35Y-4.3
X2.35Y-4.4
X2.35Y-4.5
X2.35Y-4.6
X2.35Y-4.7
X2.35Y-4.8
X2.35Y-4.9
X2.35Y-5.
X4.6016Y-5.15
X4.7Y-5.15
X2.2516Y-2.76
X2.35Y-2.76
X2.8Y-4.1
X2.8Y-4.2
X2.8Y-4.3
X2.8Y-4.4
X2.8Y-4.5
X2.8Y-4.6
X2.8Y-4.7
X2.8Y-4.8
X2.8Y-4.9
X2.8Y-5.
X3.1Y-4.1
X3.1Y-4.2
X3.1Y-4.3
X3.1Y-4.4
X3.1Y-4.5
X3.1Y-4.6
X3.1Y-4.7
X3.1Y-4.8
X3.1Y-4.9
X3.1Y-5.
X2.2516Y-2.94
X2.35Y-2.94
X1.65Y-2.55
X2.05Y-2.55
X4.93Y-3.35
X4.93Y-3.4484
X3.0016Y-2.75
X3.1Y-2.75
X2.55Y-3.55
X2.55Y-3.65
X2.55Y-3.75
X2.55Y-3.85
X2.55Y-3.95
X2.55Y-4.05
X1.65Y-2.35
X2.05Y-2.35
X2.8016Y-5.15
X2.9Y-5.15
X3.5Y-3.7
X3.5Y-3.8
X3.5Y-3.9
X3.5Y-4.
X3.5Y-4.1
X3.5Y-4.2
X3.5Y-4.3
X3.5Y-4.4
X3.5Y-4.5
X3.5Y-4.6
X3.5Y-4.7
X3.5Y-4.8
X3.5Y-4.9
X3.5Y-5.
X4.1Y-3.7
X4.1Y-3.8
X4.1Y-3.9
X4.1Y-4.
X4.1Y-4.1
X4.1Y-4.2
X4.1Y-4.3
X4.1Y-4.4
X4.1Y-4.5
X4.1Y-4.6
X4.1Y-4.7
X4.1Y-4.8
X4.1Y-4.9
X4.1Y-5.
X1.55Y-3.3
X1.55Y-3.4
X1.55Y-3.5
X1.55Y-3.6
X1.55Y-3.7
X1.55Y-3.8
X1.55Y-3.9
X1.55Y-4.
X4.74Y-3.08
X5.14Y-3.08
X3.49Y-1.79
X3.59Y-1.79
X3.69Y-1.79
X3.79Y-1.79
X3.89Y-1.79
X3.99Y-1.79
X3.5Y-5.15
X3.5984Y-5.15
X2.325Y-1.55
X2.325Y-1.65
X2.325Y-1.75
X2.325Y-1.85
X2.325Y-1.95
X2.325Y-2.05
X2.325Y-2.15
X2.325Y-2.25
X2.325Y-2.35
X2.325Y-2.45
X2.925Y-1.55
X2.925Y-1.65
X2.925Y-1.75
X2.925Y-1.85
X2.925Y-1.95
X2.925Y-2.05
X2.925Y-2.15
X2.925Y-2.25
X2.925Y-2.35
X2.925Y-2.45
T3
X1.65Y-2.
X1.65Y-2.1
X5.14Y-3.34
X5.14Y-3.44
T4
X1.82Y-1.6
X1.92Y-1.6
X2.02Y-1.6
X2.12Y-1.6
T5
X1.5748Y-1.5748
X5.1181Y-5.1181
X1.5748Y-5.1181
X5.1181Y-1.5748
T0
M30
