G04 #@! TF.GenerationSoftware,KiCad,Pcbnew,(5.1.4)-1*
G04 #@! TF.CreationDate,2020-07-02T19:24:17-04:00*
G04 #@! TF.ProjectId,CPU8085,43505538-3038-4352-9e6b-696361645f70,A*
G04 #@! TF.SameCoordinates,Original*
G04 #@! TF.FileFunction,Soldermask,Bot*
G04 #@! TF.FilePolarity,Negative*
%FSLAX46Y46*%
G04 Gerber Fmt 4.6, Leading zero omitted, Abs format (unit mm)*
G04 Created by KiCad (PCBNEW (5.1.4)-1) date 2020-07-02 19:24:17*
%MOMM*%
%LPD*%
G04 APERTURE LIST*
%ADD10C,3.500000*%
%ADD11C,1.700000*%
%ADD12R,1.700000X1.700000*%
%ADD13R,0.900000X0.900000*%
%ADD14C,1.600000*%
%ADD15O,1.600000X1.600000*%
%ADD16R,1.600000X1.600000*%
%ADD17O,1.700000X1.700000*%
%ADD18C,0.100000*%
%ADD19C,1.150000*%
%ADD20R,1.500000X1.000000*%
%ADD21C,5.400000*%
%ADD22C,1.500000*%
G04 APERTURE END LIST*
D10*
X59975000Y-41010000D03*
X47935000Y-41010000D03*
D11*
X52705000Y-43720000D03*
X55205000Y-43720000D03*
X55205000Y-45720000D03*
D12*
X52705000Y-45720000D03*
D13*
X69755000Y-40410000D03*
X73755000Y-40410000D03*
X71095000Y-40410000D03*
X72415000Y-40410000D03*
X71095000Y-43410000D03*
X69755000Y-43410000D03*
X73755000Y-43410000D03*
X72415000Y-43410000D03*
D14*
X52705000Y-67945000D03*
D15*
X62865000Y-67945000D03*
D14*
X52705000Y-64770000D03*
D15*
X62865000Y-64770000D03*
X62865000Y-61595000D03*
D14*
X52705000Y-61595000D03*
D15*
X73660000Y-104140000D03*
X66040000Y-127000000D03*
X73660000Y-106680000D03*
X66040000Y-124460000D03*
X73660000Y-109220000D03*
X66040000Y-121920000D03*
X73660000Y-111760000D03*
X66040000Y-119380000D03*
X73660000Y-114300000D03*
X66040000Y-116840000D03*
X73660000Y-116840000D03*
X66040000Y-114300000D03*
X73660000Y-119380000D03*
X66040000Y-111760000D03*
X73660000Y-121920000D03*
X66040000Y-109220000D03*
X73660000Y-124460000D03*
X66040000Y-106680000D03*
X73660000Y-127000000D03*
D16*
X66040000Y-104140000D03*
D15*
X80010000Y-127000000D03*
X95250000Y-93980000D03*
X80010000Y-124460000D03*
X95250000Y-96520000D03*
X80010000Y-121920000D03*
X95250000Y-99060000D03*
X80010000Y-119380000D03*
X95250000Y-101600000D03*
X80010000Y-116840000D03*
X95250000Y-104140000D03*
X80010000Y-114300000D03*
X95250000Y-106680000D03*
X80010000Y-111760000D03*
X95250000Y-109220000D03*
X80010000Y-109220000D03*
X95250000Y-111760000D03*
X80010000Y-106680000D03*
X95250000Y-114300000D03*
X80010000Y-104140000D03*
X95250000Y-116840000D03*
X80010000Y-101600000D03*
X95250000Y-119380000D03*
X80010000Y-99060000D03*
X95250000Y-121920000D03*
X80010000Y-96520000D03*
X95250000Y-124460000D03*
X80010000Y-93980000D03*
D16*
X95250000Y-127000000D03*
D17*
X41910000Y-61595000D03*
D12*
X41910000Y-59055000D03*
D14*
X47625000Y-64095000D03*
D16*
X47625000Y-61595000D03*
D13*
X95155000Y-57555000D03*
X99155000Y-57555000D03*
X96495000Y-57555000D03*
X97815000Y-57555000D03*
X96495000Y-60555000D03*
X95155000Y-60555000D03*
X99155000Y-60555000D03*
X97815000Y-60555000D03*
X51030000Y-89440000D03*
X51030000Y-93440000D03*
X51030000Y-90780000D03*
X51030000Y-92100000D03*
X48030000Y-90780000D03*
X48030000Y-89440000D03*
X48030000Y-93440000D03*
X48030000Y-92100000D03*
X48030000Y-99085000D03*
X48030000Y-100425000D03*
X48030000Y-96425000D03*
X48030000Y-97765000D03*
X51030000Y-99085000D03*
X51030000Y-97765000D03*
X51030000Y-100425000D03*
X51030000Y-96425000D03*
X56745000Y-96425000D03*
X56745000Y-100425000D03*
X56745000Y-97765000D03*
X56745000Y-99085000D03*
X53745000Y-97765000D03*
X53745000Y-96425000D03*
X53745000Y-100425000D03*
X53745000Y-99085000D03*
D18*
G36*
X80604505Y-52641204D02*
G01*
X80628773Y-52644804D01*
X80652572Y-52650765D01*
X80675671Y-52659030D01*
X80697850Y-52669520D01*
X80718893Y-52682132D01*
X80738599Y-52696747D01*
X80756777Y-52713223D01*
X80773253Y-52731401D01*
X80787868Y-52751107D01*
X80800480Y-52772150D01*
X80810970Y-52794329D01*
X80819235Y-52817428D01*
X80825196Y-52841227D01*
X80828796Y-52865495D01*
X80830000Y-52889999D01*
X80830000Y-53790001D01*
X80828796Y-53814505D01*
X80825196Y-53838773D01*
X80819235Y-53862572D01*
X80810970Y-53885671D01*
X80800480Y-53907850D01*
X80787868Y-53928893D01*
X80773253Y-53948599D01*
X80756777Y-53966777D01*
X80738599Y-53983253D01*
X80718893Y-53997868D01*
X80697850Y-54010480D01*
X80675671Y-54020970D01*
X80652572Y-54029235D01*
X80628773Y-54035196D01*
X80604505Y-54038796D01*
X80580001Y-54040000D01*
X79929999Y-54040000D01*
X79905495Y-54038796D01*
X79881227Y-54035196D01*
X79857428Y-54029235D01*
X79834329Y-54020970D01*
X79812150Y-54010480D01*
X79791107Y-53997868D01*
X79771401Y-53983253D01*
X79753223Y-53966777D01*
X79736747Y-53948599D01*
X79722132Y-53928893D01*
X79709520Y-53907850D01*
X79699030Y-53885671D01*
X79690765Y-53862572D01*
X79684804Y-53838773D01*
X79681204Y-53814505D01*
X79680000Y-53790001D01*
X79680000Y-52889999D01*
X79681204Y-52865495D01*
X79684804Y-52841227D01*
X79690765Y-52817428D01*
X79699030Y-52794329D01*
X79709520Y-52772150D01*
X79722132Y-52751107D01*
X79736747Y-52731401D01*
X79753223Y-52713223D01*
X79771401Y-52696747D01*
X79791107Y-52682132D01*
X79812150Y-52669520D01*
X79834329Y-52659030D01*
X79857428Y-52650765D01*
X79881227Y-52644804D01*
X79905495Y-52641204D01*
X79929999Y-52640000D01*
X80580001Y-52640000D01*
X80604505Y-52641204D01*
X80604505Y-52641204D01*
G37*
D19*
X80255000Y-53340000D03*
D18*
G36*
X82654505Y-52641204D02*
G01*
X82678773Y-52644804D01*
X82702572Y-52650765D01*
X82725671Y-52659030D01*
X82747850Y-52669520D01*
X82768893Y-52682132D01*
X82788599Y-52696747D01*
X82806777Y-52713223D01*
X82823253Y-52731401D01*
X82837868Y-52751107D01*
X82850480Y-52772150D01*
X82860970Y-52794329D01*
X82869235Y-52817428D01*
X82875196Y-52841227D01*
X82878796Y-52865495D01*
X82880000Y-52889999D01*
X82880000Y-53790001D01*
X82878796Y-53814505D01*
X82875196Y-53838773D01*
X82869235Y-53862572D01*
X82860970Y-53885671D01*
X82850480Y-53907850D01*
X82837868Y-53928893D01*
X82823253Y-53948599D01*
X82806777Y-53966777D01*
X82788599Y-53983253D01*
X82768893Y-53997868D01*
X82747850Y-54010480D01*
X82725671Y-54020970D01*
X82702572Y-54029235D01*
X82678773Y-54035196D01*
X82654505Y-54038796D01*
X82630001Y-54040000D01*
X81979999Y-54040000D01*
X81955495Y-54038796D01*
X81931227Y-54035196D01*
X81907428Y-54029235D01*
X81884329Y-54020970D01*
X81862150Y-54010480D01*
X81841107Y-53997868D01*
X81821401Y-53983253D01*
X81803223Y-53966777D01*
X81786747Y-53948599D01*
X81772132Y-53928893D01*
X81759520Y-53907850D01*
X81749030Y-53885671D01*
X81740765Y-53862572D01*
X81734804Y-53838773D01*
X81731204Y-53814505D01*
X81730000Y-53790001D01*
X81730000Y-52889999D01*
X81731204Y-52865495D01*
X81734804Y-52841227D01*
X81740765Y-52817428D01*
X81749030Y-52794329D01*
X81759520Y-52772150D01*
X81772132Y-52751107D01*
X81786747Y-52731401D01*
X81803223Y-52713223D01*
X81821401Y-52696747D01*
X81841107Y-52682132D01*
X81862150Y-52669520D01*
X81884329Y-52659030D01*
X81907428Y-52650765D01*
X81931227Y-52644804D01*
X81955495Y-52641204D01*
X81979999Y-52640000D01*
X82630001Y-52640000D01*
X82654505Y-52641204D01*
X82654505Y-52641204D01*
G37*
D19*
X82305000Y-53340000D03*
D18*
G36*
X85194505Y-126301204D02*
G01*
X85218773Y-126304804D01*
X85242572Y-126310765D01*
X85265671Y-126319030D01*
X85287850Y-126329520D01*
X85308893Y-126342132D01*
X85328599Y-126356747D01*
X85346777Y-126373223D01*
X85363253Y-126391401D01*
X85377868Y-126411107D01*
X85390480Y-126432150D01*
X85400970Y-126454329D01*
X85409235Y-126477428D01*
X85415196Y-126501227D01*
X85418796Y-126525495D01*
X85420000Y-126549999D01*
X85420000Y-127450001D01*
X85418796Y-127474505D01*
X85415196Y-127498773D01*
X85409235Y-127522572D01*
X85400970Y-127545671D01*
X85390480Y-127567850D01*
X85377868Y-127588893D01*
X85363253Y-127608599D01*
X85346777Y-127626777D01*
X85328599Y-127643253D01*
X85308893Y-127657868D01*
X85287850Y-127670480D01*
X85265671Y-127680970D01*
X85242572Y-127689235D01*
X85218773Y-127695196D01*
X85194505Y-127698796D01*
X85170001Y-127700000D01*
X84519999Y-127700000D01*
X84495495Y-127698796D01*
X84471227Y-127695196D01*
X84447428Y-127689235D01*
X84424329Y-127680970D01*
X84402150Y-127670480D01*
X84381107Y-127657868D01*
X84361401Y-127643253D01*
X84343223Y-127626777D01*
X84326747Y-127608599D01*
X84312132Y-127588893D01*
X84299520Y-127567850D01*
X84289030Y-127545671D01*
X84280765Y-127522572D01*
X84274804Y-127498773D01*
X84271204Y-127474505D01*
X84270000Y-127450001D01*
X84270000Y-126549999D01*
X84271204Y-126525495D01*
X84274804Y-126501227D01*
X84280765Y-126477428D01*
X84289030Y-126454329D01*
X84299520Y-126432150D01*
X84312132Y-126411107D01*
X84326747Y-126391401D01*
X84343223Y-126373223D01*
X84361401Y-126356747D01*
X84381107Y-126342132D01*
X84402150Y-126329520D01*
X84424329Y-126319030D01*
X84447428Y-126310765D01*
X84471227Y-126304804D01*
X84495495Y-126301204D01*
X84519999Y-126300000D01*
X85170001Y-126300000D01*
X85194505Y-126301204D01*
X85194505Y-126301204D01*
G37*
D19*
X84845000Y-127000000D03*
D18*
G36*
X83144505Y-126301204D02*
G01*
X83168773Y-126304804D01*
X83192572Y-126310765D01*
X83215671Y-126319030D01*
X83237850Y-126329520D01*
X83258893Y-126342132D01*
X83278599Y-126356747D01*
X83296777Y-126373223D01*
X83313253Y-126391401D01*
X83327868Y-126411107D01*
X83340480Y-126432150D01*
X83350970Y-126454329D01*
X83359235Y-126477428D01*
X83365196Y-126501227D01*
X83368796Y-126525495D01*
X83370000Y-126549999D01*
X83370000Y-127450001D01*
X83368796Y-127474505D01*
X83365196Y-127498773D01*
X83359235Y-127522572D01*
X83350970Y-127545671D01*
X83340480Y-127567850D01*
X83327868Y-127588893D01*
X83313253Y-127608599D01*
X83296777Y-127626777D01*
X83278599Y-127643253D01*
X83258893Y-127657868D01*
X83237850Y-127670480D01*
X83215671Y-127680970D01*
X83192572Y-127689235D01*
X83168773Y-127695196D01*
X83144505Y-127698796D01*
X83120001Y-127700000D01*
X82469999Y-127700000D01*
X82445495Y-127698796D01*
X82421227Y-127695196D01*
X82397428Y-127689235D01*
X82374329Y-127680970D01*
X82352150Y-127670480D01*
X82331107Y-127657868D01*
X82311401Y-127643253D01*
X82293223Y-127626777D01*
X82276747Y-127608599D01*
X82262132Y-127588893D01*
X82249520Y-127567850D01*
X82239030Y-127545671D01*
X82230765Y-127522572D01*
X82224804Y-127498773D01*
X82221204Y-127474505D01*
X82220000Y-127450001D01*
X82220000Y-126549999D01*
X82221204Y-126525495D01*
X82224804Y-126501227D01*
X82230765Y-126477428D01*
X82239030Y-126454329D01*
X82249520Y-126432150D01*
X82262132Y-126411107D01*
X82276747Y-126391401D01*
X82293223Y-126373223D01*
X82311401Y-126356747D01*
X82331107Y-126342132D01*
X82352150Y-126329520D01*
X82374329Y-126319030D01*
X82397428Y-126310765D01*
X82421227Y-126304804D01*
X82445495Y-126301204D01*
X82469999Y-126300000D01*
X83120001Y-126300000D01*
X83144505Y-126301204D01*
X83144505Y-126301204D01*
G37*
D19*
X82795000Y-127000000D03*
D18*
G36*
X103464505Y-126301204D02*
G01*
X103488773Y-126304804D01*
X103512572Y-126310765D01*
X103535671Y-126319030D01*
X103557850Y-126329520D01*
X103578893Y-126342132D01*
X103598599Y-126356747D01*
X103616777Y-126373223D01*
X103633253Y-126391401D01*
X103647868Y-126411107D01*
X103660480Y-126432150D01*
X103670970Y-126454329D01*
X103679235Y-126477428D01*
X103685196Y-126501227D01*
X103688796Y-126525495D01*
X103690000Y-126549999D01*
X103690000Y-127450001D01*
X103688796Y-127474505D01*
X103685196Y-127498773D01*
X103679235Y-127522572D01*
X103670970Y-127545671D01*
X103660480Y-127567850D01*
X103647868Y-127588893D01*
X103633253Y-127608599D01*
X103616777Y-127626777D01*
X103598599Y-127643253D01*
X103578893Y-127657868D01*
X103557850Y-127670480D01*
X103535671Y-127680970D01*
X103512572Y-127689235D01*
X103488773Y-127695196D01*
X103464505Y-127698796D01*
X103440001Y-127700000D01*
X102789999Y-127700000D01*
X102765495Y-127698796D01*
X102741227Y-127695196D01*
X102717428Y-127689235D01*
X102694329Y-127680970D01*
X102672150Y-127670480D01*
X102651107Y-127657868D01*
X102631401Y-127643253D01*
X102613223Y-127626777D01*
X102596747Y-127608599D01*
X102582132Y-127588893D01*
X102569520Y-127567850D01*
X102559030Y-127545671D01*
X102550765Y-127522572D01*
X102544804Y-127498773D01*
X102541204Y-127474505D01*
X102540000Y-127450001D01*
X102540000Y-126549999D01*
X102541204Y-126525495D01*
X102544804Y-126501227D01*
X102550765Y-126477428D01*
X102559030Y-126454329D01*
X102569520Y-126432150D01*
X102582132Y-126411107D01*
X102596747Y-126391401D01*
X102613223Y-126373223D01*
X102631401Y-126356747D01*
X102651107Y-126342132D01*
X102672150Y-126329520D01*
X102694329Y-126319030D01*
X102717428Y-126310765D01*
X102741227Y-126304804D01*
X102765495Y-126301204D01*
X102789999Y-126300000D01*
X103440001Y-126300000D01*
X103464505Y-126301204D01*
X103464505Y-126301204D01*
G37*
D19*
X103115000Y-127000000D03*
D18*
G36*
X105514505Y-126301204D02*
G01*
X105538773Y-126304804D01*
X105562572Y-126310765D01*
X105585671Y-126319030D01*
X105607850Y-126329520D01*
X105628893Y-126342132D01*
X105648599Y-126356747D01*
X105666777Y-126373223D01*
X105683253Y-126391401D01*
X105697868Y-126411107D01*
X105710480Y-126432150D01*
X105720970Y-126454329D01*
X105729235Y-126477428D01*
X105735196Y-126501227D01*
X105738796Y-126525495D01*
X105740000Y-126549999D01*
X105740000Y-127450001D01*
X105738796Y-127474505D01*
X105735196Y-127498773D01*
X105729235Y-127522572D01*
X105720970Y-127545671D01*
X105710480Y-127567850D01*
X105697868Y-127588893D01*
X105683253Y-127608599D01*
X105666777Y-127626777D01*
X105648599Y-127643253D01*
X105628893Y-127657868D01*
X105607850Y-127670480D01*
X105585671Y-127680970D01*
X105562572Y-127689235D01*
X105538773Y-127695196D01*
X105514505Y-127698796D01*
X105490001Y-127700000D01*
X104839999Y-127700000D01*
X104815495Y-127698796D01*
X104791227Y-127695196D01*
X104767428Y-127689235D01*
X104744329Y-127680970D01*
X104722150Y-127670480D01*
X104701107Y-127657868D01*
X104681401Y-127643253D01*
X104663223Y-127626777D01*
X104646747Y-127608599D01*
X104632132Y-127588893D01*
X104619520Y-127567850D01*
X104609030Y-127545671D01*
X104600765Y-127522572D01*
X104594804Y-127498773D01*
X104591204Y-127474505D01*
X104590000Y-127450001D01*
X104590000Y-126549999D01*
X104591204Y-126525495D01*
X104594804Y-126501227D01*
X104600765Y-126477428D01*
X104609030Y-126454329D01*
X104619520Y-126432150D01*
X104632132Y-126411107D01*
X104646747Y-126391401D01*
X104663223Y-126373223D01*
X104681401Y-126356747D01*
X104701107Y-126342132D01*
X104722150Y-126329520D01*
X104744329Y-126319030D01*
X104767428Y-126310765D01*
X104791227Y-126304804D01*
X104815495Y-126301204D01*
X104839999Y-126300000D01*
X105490001Y-126300000D01*
X105514505Y-126301204D01*
X105514505Y-126301204D01*
G37*
D19*
X105165000Y-127000000D03*
D18*
G36*
X69809505Y-72961204D02*
G01*
X69833773Y-72964804D01*
X69857572Y-72970765D01*
X69880671Y-72979030D01*
X69902850Y-72989520D01*
X69923893Y-73002132D01*
X69943599Y-73016747D01*
X69961777Y-73033223D01*
X69978253Y-73051401D01*
X69992868Y-73071107D01*
X70005480Y-73092150D01*
X70015970Y-73114329D01*
X70024235Y-73137428D01*
X70030196Y-73161227D01*
X70033796Y-73185495D01*
X70035000Y-73209999D01*
X70035000Y-74110001D01*
X70033796Y-74134505D01*
X70030196Y-74158773D01*
X70024235Y-74182572D01*
X70015970Y-74205671D01*
X70005480Y-74227850D01*
X69992868Y-74248893D01*
X69978253Y-74268599D01*
X69961777Y-74286777D01*
X69943599Y-74303253D01*
X69923893Y-74317868D01*
X69902850Y-74330480D01*
X69880671Y-74340970D01*
X69857572Y-74349235D01*
X69833773Y-74355196D01*
X69809505Y-74358796D01*
X69785001Y-74360000D01*
X69134999Y-74360000D01*
X69110495Y-74358796D01*
X69086227Y-74355196D01*
X69062428Y-74349235D01*
X69039329Y-74340970D01*
X69017150Y-74330480D01*
X68996107Y-74317868D01*
X68976401Y-74303253D01*
X68958223Y-74286777D01*
X68941747Y-74268599D01*
X68927132Y-74248893D01*
X68914520Y-74227850D01*
X68904030Y-74205671D01*
X68895765Y-74182572D01*
X68889804Y-74158773D01*
X68886204Y-74134505D01*
X68885000Y-74110001D01*
X68885000Y-73209999D01*
X68886204Y-73185495D01*
X68889804Y-73161227D01*
X68895765Y-73137428D01*
X68904030Y-73114329D01*
X68914520Y-73092150D01*
X68927132Y-73071107D01*
X68941747Y-73051401D01*
X68958223Y-73033223D01*
X68976401Y-73016747D01*
X68996107Y-73002132D01*
X69017150Y-72989520D01*
X69039329Y-72979030D01*
X69062428Y-72970765D01*
X69086227Y-72964804D01*
X69110495Y-72961204D01*
X69134999Y-72960000D01*
X69785001Y-72960000D01*
X69809505Y-72961204D01*
X69809505Y-72961204D01*
G37*
D19*
X69460000Y-73660000D03*
D18*
G36*
X71859505Y-72961204D02*
G01*
X71883773Y-72964804D01*
X71907572Y-72970765D01*
X71930671Y-72979030D01*
X71952850Y-72989520D01*
X71973893Y-73002132D01*
X71993599Y-73016747D01*
X72011777Y-73033223D01*
X72028253Y-73051401D01*
X72042868Y-73071107D01*
X72055480Y-73092150D01*
X72065970Y-73114329D01*
X72074235Y-73137428D01*
X72080196Y-73161227D01*
X72083796Y-73185495D01*
X72085000Y-73209999D01*
X72085000Y-74110001D01*
X72083796Y-74134505D01*
X72080196Y-74158773D01*
X72074235Y-74182572D01*
X72065970Y-74205671D01*
X72055480Y-74227850D01*
X72042868Y-74248893D01*
X72028253Y-74268599D01*
X72011777Y-74286777D01*
X71993599Y-74303253D01*
X71973893Y-74317868D01*
X71952850Y-74330480D01*
X71930671Y-74340970D01*
X71907572Y-74349235D01*
X71883773Y-74355196D01*
X71859505Y-74358796D01*
X71835001Y-74360000D01*
X71184999Y-74360000D01*
X71160495Y-74358796D01*
X71136227Y-74355196D01*
X71112428Y-74349235D01*
X71089329Y-74340970D01*
X71067150Y-74330480D01*
X71046107Y-74317868D01*
X71026401Y-74303253D01*
X71008223Y-74286777D01*
X70991747Y-74268599D01*
X70977132Y-74248893D01*
X70964520Y-74227850D01*
X70954030Y-74205671D01*
X70945765Y-74182572D01*
X70939804Y-74158773D01*
X70936204Y-74134505D01*
X70935000Y-74110001D01*
X70935000Y-73209999D01*
X70936204Y-73185495D01*
X70939804Y-73161227D01*
X70945765Y-73137428D01*
X70954030Y-73114329D01*
X70964520Y-73092150D01*
X70977132Y-73071107D01*
X70991747Y-73051401D01*
X71008223Y-73033223D01*
X71026401Y-73016747D01*
X71046107Y-73002132D01*
X71067150Y-72989520D01*
X71089329Y-72979030D01*
X71112428Y-72970765D01*
X71136227Y-72964804D01*
X71160495Y-72961204D01*
X71184999Y-72960000D01*
X71835001Y-72960000D01*
X71859505Y-72961204D01*
X71859505Y-72961204D01*
G37*
D19*
X71510000Y-73660000D03*
D18*
G36*
X71224505Y-103441204D02*
G01*
X71248773Y-103444804D01*
X71272572Y-103450765D01*
X71295671Y-103459030D01*
X71317850Y-103469520D01*
X71338893Y-103482132D01*
X71358599Y-103496747D01*
X71376777Y-103513223D01*
X71393253Y-103531401D01*
X71407868Y-103551107D01*
X71420480Y-103572150D01*
X71430970Y-103594329D01*
X71439235Y-103617428D01*
X71445196Y-103641227D01*
X71448796Y-103665495D01*
X71450000Y-103689999D01*
X71450000Y-104590001D01*
X71448796Y-104614505D01*
X71445196Y-104638773D01*
X71439235Y-104662572D01*
X71430970Y-104685671D01*
X71420480Y-104707850D01*
X71407868Y-104728893D01*
X71393253Y-104748599D01*
X71376777Y-104766777D01*
X71358599Y-104783253D01*
X71338893Y-104797868D01*
X71317850Y-104810480D01*
X71295671Y-104820970D01*
X71272572Y-104829235D01*
X71248773Y-104835196D01*
X71224505Y-104838796D01*
X71200001Y-104840000D01*
X70549999Y-104840000D01*
X70525495Y-104838796D01*
X70501227Y-104835196D01*
X70477428Y-104829235D01*
X70454329Y-104820970D01*
X70432150Y-104810480D01*
X70411107Y-104797868D01*
X70391401Y-104783253D01*
X70373223Y-104766777D01*
X70356747Y-104748599D01*
X70342132Y-104728893D01*
X70329520Y-104707850D01*
X70319030Y-104685671D01*
X70310765Y-104662572D01*
X70304804Y-104638773D01*
X70301204Y-104614505D01*
X70300000Y-104590001D01*
X70300000Y-103689999D01*
X70301204Y-103665495D01*
X70304804Y-103641227D01*
X70310765Y-103617428D01*
X70319030Y-103594329D01*
X70329520Y-103572150D01*
X70342132Y-103551107D01*
X70356747Y-103531401D01*
X70373223Y-103513223D01*
X70391401Y-103496747D01*
X70411107Y-103482132D01*
X70432150Y-103469520D01*
X70454329Y-103459030D01*
X70477428Y-103450765D01*
X70501227Y-103444804D01*
X70525495Y-103441204D01*
X70549999Y-103440000D01*
X71200001Y-103440000D01*
X71224505Y-103441204D01*
X71224505Y-103441204D01*
G37*
D19*
X70875000Y-104140000D03*
D18*
G36*
X69174505Y-103441204D02*
G01*
X69198773Y-103444804D01*
X69222572Y-103450765D01*
X69245671Y-103459030D01*
X69267850Y-103469520D01*
X69288893Y-103482132D01*
X69308599Y-103496747D01*
X69326777Y-103513223D01*
X69343253Y-103531401D01*
X69357868Y-103551107D01*
X69370480Y-103572150D01*
X69380970Y-103594329D01*
X69389235Y-103617428D01*
X69395196Y-103641227D01*
X69398796Y-103665495D01*
X69400000Y-103689999D01*
X69400000Y-104590001D01*
X69398796Y-104614505D01*
X69395196Y-104638773D01*
X69389235Y-104662572D01*
X69380970Y-104685671D01*
X69370480Y-104707850D01*
X69357868Y-104728893D01*
X69343253Y-104748599D01*
X69326777Y-104766777D01*
X69308599Y-104783253D01*
X69288893Y-104797868D01*
X69267850Y-104810480D01*
X69245671Y-104820970D01*
X69222572Y-104829235D01*
X69198773Y-104835196D01*
X69174505Y-104838796D01*
X69150001Y-104840000D01*
X68499999Y-104840000D01*
X68475495Y-104838796D01*
X68451227Y-104835196D01*
X68427428Y-104829235D01*
X68404329Y-104820970D01*
X68382150Y-104810480D01*
X68361107Y-104797868D01*
X68341401Y-104783253D01*
X68323223Y-104766777D01*
X68306747Y-104748599D01*
X68292132Y-104728893D01*
X68279520Y-104707850D01*
X68269030Y-104685671D01*
X68260765Y-104662572D01*
X68254804Y-104638773D01*
X68251204Y-104614505D01*
X68250000Y-104590001D01*
X68250000Y-103689999D01*
X68251204Y-103665495D01*
X68254804Y-103641227D01*
X68260765Y-103617428D01*
X68269030Y-103594329D01*
X68279520Y-103572150D01*
X68292132Y-103551107D01*
X68306747Y-103531401D01*
X68323223Y-103513223D01*
X68341401Y-103496747D01*
X68361107Y-103482132D01*
X68382150Y-103469520D01*
X68404329Y-103459030D01*
X68427428Y-103450765D01*
X68451227Y-103444804D01*
X68475495Y-103441204D01*
X68499999Y-103440000D01*
X69150001Y-103440000D01*
X69174505Y-103441204D01*
X69174505Y-103441204D01*
G37*
D19*
X68825000Y-104140000D03*
D18*
G36*
X108424505Y-82221204D02*
G01*
X108448773Y-82224804D01*
X108472572Y-82230765D01*
X108495671Y-82239030D01*
X108517850Y-82249520D01*
X108538893Y-82262132D01*
X108558599Y-82276747D01*
X108576777Y-82293223D01*
X108593253Y-82311401D01*
X108607868Y-82331107D01*
X108620480Y-82352150D01*
X108630970Y-82374329D01*
X108639235Y-82397428D01*
X108645196Y-82421227D01*
X108648796Y-82445495D01*
X108650000Y-82469999D01*
X108650000Y-83120001D01*
X108648796Y-83144505D01*
X108645196Y-83168773D01*
X108639235Y-83192572D01*
X108630970Y-83215671D01*
X108620480Y-83237850D01*
X108607868Y-83258893D01*
X108593253Y-83278599D01*
X108576777Y-83296777D01*
X108558599Y-83313253D01*
X108538893Y-83327868D01*
X108517850Y-83340480D01*
X108495671Y-83350970D01*
X108472572Y-83359235D01*
X108448773Y-83365196D01*
X108424505Y-83368796D01*
X108400001Y-83370000D01*
X107499999Y-83370000D01*
X107475495Y-83368796D01*
X107451227Y-83365196D01*
X107427428Y-83359235D01*
X107404329Y-83350970D01*
X107382150Y-83340480D01*
X107361107Y-83327868D01*
X107341401Y-83313253D01*
X107323223Y-83296777D01*
X107306747Y-83278599D01*
X107292132Y-83258893D01*
X107279520Y-83237850D01*
X107269030Y-83215671D01*
X107260765Y-83192572D01*
X107254804Y-83168773D01*
X107251204Y-83144505D01*
X107250000Y-83120001D01*
X107250000Y-82469999D01*
X107251204Y-82445495D01*
X107254804Y-82421227D01*
X107260765Y-82397428D01*
X107269030Y-82374329D01*
X107279520Y-82352150D01*
X107292132Y-82331107D01*
X107306747Y-82311401D01*
X107323223Y-82293223D01*
X107341401Y-82276747D01*
X107361107Y-82262132D01*
X107382150Y-82249520D01*
X107404329Y-82239030D01*
X107427428Y-82230765D01*
X107451227Y-82224804D01*
X107475495Y-82221204D01*
X107499999Y-82220000D01*
X108400001Y-82220000D01*
X108424505Y-82221204D01*
X108424505Y-82221204D01*
G37*
D19*
X107950000Y-82795000D03*
D18*
G36*
X108424505Y-84271204D02*
G01*
X108448773Y-84274804D01*
X108472572Y-84280765D01*
X108495671Y-84289030D01*
X108517850Y-84299520D01*
X108538893Y-84312132D01*
X108558599Y-84326747D01*
X108576777Y-84343223D01*
X108593253Y-84361401D01*
X108607868Y-84381107D01*
X108620480Y-84402150D01*
X108630970Y-84424329D01*
X108639235Y-84447428D01*
X108645196Y-84471227D01*
X108648796Y-84495495D01*
X108650000Y-84519999D01*
X108650000Y-85170001D01*
X108648796Y-85194505D01*
X108645196Y-85218773D01*
X108639235Y-85242572D01*
X108630970Y-85265671D01*
X108620480Y-85287850D01*
X108607868Y-85308893D01*
X108593253Y-85328599D01*
X108576777Y-85346777D01*
X108558599Y-85363253D01*
X108538893Y-85377868D01*
X108517850Y-85390480D01*
X108495671Y-85400970D01*
X108472572Y-85409235D01*
X108448773Y-85415196D01*
X108424505Y-85418796D01*
X108400001Y-85420000D01*
X107499999Y-85420000D01*
X107475495Y-85418796D01*
X107451227Y-85415196D01*
X107427428Y-85409235D01*
X107404329Y-85400970D01*
X107382150Y-85390480D01*
X107361107Y-85377868D01*
X107341401Y-85363253D01*
X107323223Y-85346777D01*
X107306747Y-85328599D01*
X107292132Y-85308893D01*
X107279520Y-85287850D01*
X107269030Y-85265671D01*
X107260765Y-85242572D01*
X107254804Y-85218773D01*
X107251204Y-85194505D01*
X107250000Y-85170001D01*
X107250000Y-84519999D01*
X107251204Y-84495495D01*
X107254804Y-84471227D01*
X107260765Y-84447428D01*
X107269030Y-84424329D01*
X107279520Y-84402150D01*
X107292132Y-84381107D01*
X107306747Y-84361401D01*
X107323223Y-84343223D01*
X107341401Y-84326747D01*
X107361107Y-84312132D01*
X107382150Y-84299520D01*
X107404329Y-84289030D01*
X107427428Y-84280765D01*
X107451227Y-84274804D01*
X107475495Y-84271204D01*
X107499999Y-84270000D01*
X108400001Y-84270000D01*
X108424505Y-84271204D01*
X108424505Y-84271204D01*
G37*
D19*
X107950000Y-84845000D03*
D18*
G36*
X57254505Y-78041204D02*
G01*
X57278773Y-78044804D01*
X57302572Y-78050765D01*
X57325671Y-78059030D01*
X57347850Y-78069520D01*
X57368893Y-78082132D01*
X57388599Y-78096747D01*
X57406777Y-78113223D01*
X57423253Y-78131401D01*
X57437868Y-78151107D01*
X57450480Y-78172150D01*
X57460970Y-78194329D01*
X57469235Y-78217428D01*
X57475196Y-78241227D01*
X57478796Y-78265495D01*
X57480000Y-78289999D01*
X57480000Y-79190001D01*
X57478796Y-79214505D01*
X57475196Y-79238773D01*
X57469235Y-79262572D01*
X57460970Y-79285671D01*
X57450480Y-79307850D01*
X57437868Y-79328893D01*
X57423253Y-79348599D01*
X57406777Y-79366777D01*
X57388599Y-79383253D01*
X57368893Y-79397868D01*
X57347850Y-79410480D01*
X57325671Y-79420970D01*
X57302572Y-79429235D01*
X57278773Y-79435196D01*
X57254505Y-79438796D01*
X57230001Y-79440000D01*
X56579999Y-79440000D01*
X56555495Y-79438796D01*
X56531227Y-79435196D01*
X56507428Y-79429235D01*
X56484329Y-79420970D01*
X56462150Y-79410480D01*
X56441107Y-79397868D01*
X56421401Y-79383253D01*
X56403223Y-79366777D01*
X56386747Y-79348599D01*
X56372132Y-79328893D01*
X56359520Y-79307850D01*
X56349030Y-79285671D01*
X56340765Y-79262572D01*
X56334804Y-79238773D01*
X56331204Y-79214505D01*
X56330000Y-79190001D01*
X56330000Y-78289999D01*
X56331204Y-78265495D01*
X56334804Y-78241227D01*
X56340765Y-78217428D01*
X56349030Y-78194329D01*
X56359520Y-78172150D01*
X56372132Y-78151107D01*
X56386747Y-78131401D01*
X56403223Y-78113223D01*
X56421401Y-78096747D01*
X56441107Y-78082132D01*
X56462150Y-78069520D01*
X56484329Y-78059030D01*
X56507428Y-78050765D01*
X56531227Y-78044804D01*
X56555495Y-78041204D01*
X56579999Y-78040000D01*
X57230001Y-78040000D01*
X57254505Y-78041204D01*
X57254505Y-78041204D01*
G37*
D19*
X56905000Y-78740000D03*
D18*
G36*
X55204505Y-78041204D02*
G01*
X55228773Y-78044804D01*
X55252572Y-78050765D01*
X55275671Y-78059030D01*
X55297850Y-78069520D01*
X55318893Y-78082132D01*
X55338599Y-78096747D01*
X55356777Y-78113223D01*
X55373253Y-78131401D01*
X55387868Y-78151107D01*
X55400480Y-78172150D01*
X55410970Y-78194329D01*
X55419235Y-78217428D01*
X55425196Y-78241227D01*
X55428796Y-78265495D01*
X55430000Y-78289999D01*
X55430000Y-79190001D01*
X55428796Y-79214505D01*
X55425196Y-79238773D01*
X55419235Y-79262572D01*
X55410970Y-79285671D01*
X55400480Y-79307850D01*
X55387868Y-79328893D01*
X55373253Y-79348599D01*
X55356777Y-79366777D01*
X55338599Y-79383253D01*
X55318893Y-79397868D01*
X55297850Y-79410480D01*
X55275671Y-79420970D01*
X55252572Y-79429235D01*
X55228773Y-79435196D01*
X55204505Y-79438796D01*
X55180001Y-79440000D01*
X54529999Y-79440000D01*
X54505495Y-79438796D01*
X54481227Y-79435196D01*
X54457428Y-79429235D01*
X54434329Y-79420970D01*
X54412150Y-79410480D01*
X54391107Y-79397868D01*
X54371401Y-79383253D01*
X54353223Y-79366777D01*
X54336747Y-79348599D01*
X54322132Y-79328893D01*
X54309520Y-79307850D01*
X54299030Y-79285671D01*
X54290765Y-79262572D01*
X54284804Y-79238773D01*
X54281204Y-79214505D01*
X54280000Y-79190001D01*
X54280000Y-78289999D01*
X54281204Y-78265495D01*
X54284804Y-78241227D01*
X54290765Y-78217428D01*
X54299030Y-78194329D01*
X54309520Y-78172150D01*
X54322132Y-78151107D01*
X54336747Y-78131401D01*
X54353223Y-78113223D01*
X54371401Y-78096747D01*
X54391107Y-78082132D01*
X54412150Y-78069520D01*
X54434329Y-78059030D01*
X54457428Y-78050765D01*
X54481227Y-78044804D01*
X54505495Y-78041204D01*
X54529999Y-78040000D01*
X55180001Y-78040000D01*
X55204505Y-78041204D01*
X55204505Y-78041204D01*
G37*
D19*
X54855000Y-78740000D03*
D18*
G36*
X65244505Y-45391204D02*
G01*
X65268773Y-45394804D01*
X65292572Y-45400765D01*
X65315671Y-45409030D01*
X65337850Y-45419520D01*
X65358893Y-45432132D01*
X65378599Y-45446747D01*
X65396777Y-45463223D01*
X65413253Y-45481401D01*
X65427868Y-45501107D01*
X65440480Y-45522150D01*
X65450970Y-45544329D01*
X65459235Y-45567428D01*
X65465196Y-45591227D01*
X65468796Y-45615495D01*
X65470000Y-45639999D01*
X65470000Y-46290001D01*
X65468796Y-46314505D01*
X65465196Y-46338773D01*
X65459235Y-46362572D01*
X65450970Y-46385671D01*
X65440480Y-46407850D01*
X65427868Y-46428893D01*
X65413253Y-46448599D01*
X65396777Y-46466777D01*
X65378599Y-46483253D01*
X65358893Y-46497868D01*
X65337850Y-46510480D01*
X65315671Y-46520970D01*
X65292572Y-46529235D01*
X65268773Y-46535196D01*
X65244505Y-46538796D01*
X65220001Y-46540000D01*
X64319999Y-46540000D01*
X64295495Y-46538796D01*
X64271227Y-46535196D01*
X64247428Y-46529235D01*
X64224329Y-46520970D01*
X64202150Y-46510480D01*
X64181107Y-46497868D01*
X64161401Y-46483253D01*
X64143223Y-46466777D01*
X64126747Y-46448599D01*
X64112132Y-46428893D01*
X64099520Y-46407850D01*
X64089030Y-46385671D01*
X64080765Y-46362572D01*
X64074804Y-46338773D01*
X64071204Y-46314505D01*
X64070000Y-46290001D01*
X64070000Y-45639999D01*
X64071204Y-45615495D01*
X64074804Y-45591227D01*
X64080765Y-45567428D01*
X64089030Y-45544329D01*
X64099520Y-45522150D01*
X64112132Y-45501107D01*
X64126747Y-45481401D01*
X64143223Y-45463223D01*
X64161401Y-45446747D01*
X64181107Y-45432132D01*
X64202150Y-45419520D01*
X64224329Y-45409030D01*
X64247428Y-45400765D01*
X64271227Y-45394804D01*
X64295495Y-45391204D01*
X64319999Y-45390000D01*
X65220001Y-45390000D01*
X65244505Y-45391204D01*
X65244505Y-45391204D01*
G37*
D19*
X64770000Y-45965000D03*
D18*
G36*
X65244505Y-47441204D02*
G01*
X65268773Y-47444804D01*
X65292572Y-47450765D01*
X65315671Y-47459030D01*
X65337850Y-47469520D01*
X65358893Y-47482132D01*
X65378599Y-47496747D01*
X65396777Y-47513223D01*
X65413253Y-47531401D01*
X65427868Y-47551107D01*
X65440480Y-47572150D01*
X65450970Y-47594329D01*
X65459235Y-47617428D01*
X65465196Y-47641227D01*
X65468796Y-47665495D01*
X65470000Y-47689999D01*
X65470000Y-48340001D01*
X65468796Y-48364505D01*
X65465196Y-48388773D01*
X65459235Y-48412572D01*
X65450970Y-48435671D01*
X65440480Y-48457850D01*
X65427868Y-48478893D01*
X65413253Y-48498599D01*
X65396777Y-48516777D01*
X65378599Y-48533253D01*
X65358893Y-48547868D01*
X65337850Y-48560480D01*
X65315671Y-48570970D01*
X65292572Y-48579235D01*
X65268773Y-48585196D01*
X65244505Y-48588796D01*
X65220001Y-48590000D01*
X64319999Y-48590000D01*
X64295495Y-48588796D01*
X64271227Y-48585196D01*
X64247428Y-48579235D01*
X64224329Y-48570970D01*
X64202150Y-48560480D01*
X64181107Y-48547868D01*
X64161401Y-48533253D01*
X64143223Y-48516777D01*
X64126747Y-48498599D01*
X64112132Y-48478893D01*
X64099520Y-48457850D01*
X64089030Y-48435671D01*
X64080765Y-48412572D01*
X64074804Y-48388773D01*
X64071204Y-48364505D01*
X64070000Y-48340001D01*
X64070000Y-47689999D01*
X64071204Y-47665495D01*
X64074804Y-47641227D01*
X64080765Y-47617428D01*
X64089030Y-47594329D01*
X64099520Y-47572150D01*
X64112132Y-47551107D01*
X64126747Y-47531401D01*
X64143223Y-47513223D01*
X64161401Y-47496747D01*
X64181107Y-47482132D01*
X64202150Y-47469520D01*
X64224329Y-47459030D01*
X64247428Y-47450765D01*
X64271227Y-47444804D01*
X64295495Y-47441204D01*
X64319999Y-47440000D01*
X65220001Y-47440000D01*
X65244505Y-47441204D01*
X65244505Y-47441204D01*
G37*
D19*
X64770000Y-48015000D03*
D16*
X58420000Y-53340000D03*
D14*
X58420000Y-50840000D03*
D20*
X97790000Y-53960000D03*
X97790000Y-55260000D03*
X95250000Y-53960000D03*
X95250000Y-55260000D03*
X100330000Y-53975000D03*
X100330000Y-55275000D03*
X92710000Y-53960000D03*
X92710000Y-55260000D03*
D15*
X107950000Y-87630000D03*
X80010000Y-72390000D03*
X105410000Y-87630000D03*
X82550000Y-72390000D03*
X102870000Y-87630000D03*
X85090000Y-72390000D03*
X100330000Y-87630000D03*
X87630000Y-72390000D03*
X97790000Y-87630000D03*
X90170000Y-72390000D03*
X95250000Y-87630000D03*
X92710000Y-72390000D03*
X92710000Y-87630000D03*
X95250000Y-72390000D03*
X90170000Y-87630000D03*
X97790000Y-72390000D03*
X87630000Y-87630000D03*
X100330000Y-72390000D03*
X85090000Y-87630000D03*
X102870000Y-72390000D03*
X82550000Y-87630000D03*
X105410000Y-72390000D03*
X80010000Y-87630000D03*
D16*
X107950000Y-72390000D03*
X80010000Y-66040000D03*
D15*
X128270000Y-50800000D03*
X82550000Y-66040000D03*
X125730000Y-50800000D03*
X85090000Y-66040000D03*
X123190000Y-50800000D03*
X87630000Y-66040000D03*
X120650000Y-50800000D03*
X90170000Y-66040000D03*
X118110000Y-50800000D03*
X92710000Y-66040000D03*
X115570000Y-50800000D03*
X95250000Y-66040000D03*
X113030000Y-50800000D03*
X97790000Y-66040000D03*
X110490000Y-50800000D03*
X100330000Y-66040000D03*
X107950000Y-50800000D03*
X102870000Y-66040000D03*
X105410000Y-50800000D03*
X105410000Y-66040000D03*
X102870000Y-50800000D03*
X107950000Y-66040000D03*
X100330000Y-50800000D03*
X110490000Y-66040000D03*
X97790000Y-50800000D03*
X113030000Y-66040000D03*
X95250000Y-50800000D03*
X115570000Y-66040000D03*
X92710000Y-50800000D03*
X118110000Y-66040000D03*
X90170000Y-50800000D03*
X120650000Y-66040000D03*
X87630000Y-50800000D03*
X123190000Y-66040000D03*
X85090000Y-50800000D03*
X125730000Y-66040000D03*
X82550000Y-50800000D03*
X128270000Y-66040000D03*
X80010000Y-50800000D03*
X59690000Y-78740000D03*
X44450000Y-127000000D03*
X59690000Y-81280000D03*
X44450000Y-124460000D03*
X59690000Y-83820000D03*
X44450000Y-121920000D03*
X59690000Y-86360000D03*
X44450000Y-119380000D03*
X59690000Y-88900000D03*
X44450000Y-116840000D03*
X59690000Y-91440000D03*
X44450000Y-114300000D03*
X59690000Y-93980000D03*
X44450000Y-111760000D03*
X59690000Y-96520000D03*
X44450000Y-109220000D03*
X59690000Y-99060000D03*
X44450000Y-106680000D03*
X59690000Y-101600000D03*
X44450000Y-104140000D03*
X59690000Y-104140000D03*
X44450000Y-101600000D03*
X59690000Y-106680000D03*
X44450000Y-99060000D03*
X59690000Y-109220000D03*
X44450000Y-96520000D03*
X59690000Y-111760000D03*
X44450000Y-93980000D03*
X59690000Y-114300000D03*
X44450000Y-91440000D03*
X59690000Y-116840000D03*
X44450000Y-88900000D03*
X59690000Y-119380000D03*
X44450000Y-86360000D03*
X59690000Y-121920000D03*
X44450000Y-83820000D03*
X59690000Y-124460000D03*
X44450000Y-81280000D03*
X59690000Y-127000000D03*
D16*
X44450000Y-78740000D03*
D21*
X130000000Y-130000000D03*
X40000000Y-130000000D03*
X130000000Y-40000000D03*
X40000000Y-40000000D03*
D14*
X47625000Y-50840000D03*
D16*
X47625000Y-53340000D03*
D14*
X54610000Y-71160000D03*
X54610000Y-73660000D03*
D16*
X66040000Y-73660000D03*
D15*
X73660000Y-96520000D03*
X66040000Y-76200000D03*
X73660000Y-93980000D03*
X66040000Y-78740000D03*
X73660000Y-91440000D03*
X66040000Y-81280000D03*
X73660000Y-88900000D03*
X66040000Y-83820000D03*
X73660000Y-86360000D03*
X66040000Y-86360000D03*
X73660000Y-83820000D03*
X66040000Y-88900000D03*
X73660000Y-81280000D03*
X66040000Y-91440000D03*
X73660000Y-78740000D03*
X66040000Y-93980000D03*
X73660000Y-76200000D03*
X66040000Y-96520000D03*
X73660000Y-73660000D03*
X100330000Y-127000000D03*
X107950000Y-93980000D03*
X100330000Y-124460000D03*
X107950000Y-96520000D03*
X100330000Y-121920000D03*
X107950000Y-99060000D03*
X100330000Y-119380000D03*
X107950000Y-101600000D03*
X100330000Y-116840000D03*
X107950000Y-104140000D03*
X100330000Y-114300000D03*
X107950000Y-106680000D03*
X100330000Y-111760000D03*
X107950000Y-109220000D03*
X100330000Y-109220000D03*
X107950000Y-111760000D03*
X100330000Y-106680000D03*
X107950000Y-114300000D03*
X100330000Y-104140000D03*
X107950000Y-116840000D03*
X100330000Y-101600000D03*
X107950000Y-119380000D03*
X100330000Y-99060000D03*
X107950000Y-121920000D03*
X100330000Y-96520000D03*
X107950000Y-124460000D03*
X100330000Y-93980000D03*
D16*
X107950000Y-127000000D03*
D22*
X44650000Y-72390000D03*
X49530000Y-72390000D03*
D17*
X41910000Y-53340000D03*
D12*
X41910000Y-50800000D03*
M02*
