G04 #@! TF.GenerationSoftware,KiCad,Pcbnew,(5.1.4)-1*
G04 #@! TF.CreationDate,2020-07-02T19:24:17-04:00*
G04 #@! TF.ProjectId,CPU8085,43505538-3038-4352-9e6b-696361645f70,A*
G04 #@! TF.SameCoordinates,Original*
G04 #@! TF.FileFunction,Soldermask,Top*
G04 #@! TF.FilePolarity,Negative*
%FSLAX46Y46*%
G04 Gerber Fmt 4.6, Leading zero omitted, Abs format (unit mm)*
G04 Created by KiCad (PCBNEW (5.1.4)-1) date 2020-07-02 19:24:17*
%MOMM*%
%LPD*%
G04 APERTURE LIST*
%ADD10C,3.500000*%
%ADD11C,1.700000*%
%ADD12R,1.700000X1.700000*%
%ADD13R,1.700000X1.300000*%
%ADD14C,0.100000*%
%ADD15C,1.150000*%
%ADD16C,1.600000*%
%ADD17O,1.600000X1.600000*%
%ADD18R,0.800000X0.900000*%
%ADD19R,1.600000X1.600000*%
%ADD20O,1.700000X1.700000*%
%ADD21R,1.750000X0.450000*%
%ADD22C,5.400000*%
%ADD23C,1.500000*%
G04 APERTURE END LIST*
D10*
X59975000Y-41010000D03*
X47935000Y-41010000D03*
D11*
X52705000Y-43720000D03*
X55205000Y-43720000D03*
X55205000Y-45720000D03*
D12*
X52705000Y-45720000D03*
D13*
X67945000Y-61750000D03*
X67945000Y-65250000D03*
D14*
G36*
X77309505Y-37771204D02*
G01*
X77333773Y-37774804D01*
X77357572Y-37780765D01*
X77380671Y-37789030D01*
X77402850Y-37799520D01*
X77423893Y-37812132D01*
X77443599Y-37826747D01*
X77461777Y-37843223D01*
X77478253Y-37861401D01*
X77492868Y-37881107D01*
X77505480Y-37902150D01*
X77515970Y-37924329D01*
X77524235Y-37947428D01*
X77530196Y-37971227D01*
X77533796Y-37995495D01*
X77535000Y-38019999D01*
X77535000Y-38670001D01*
X77533796Y-38694505D01*
X77530196Y-38718773D01*
X77524235Y-38742572D01*
X77515970Y-38765671D01*
X77505480Y-38787850D01*
X77492868Y-38808893D01*
X77478253Y-38828599D01*
X77461777Y-38846777D01*
X77443599Y-38863253D01*
X77423893Y-38877868D01*
X77402850Y-38890480D01*
X77380671Y-38900970D01*
X77357572Y-38909235D01*
X77333773Y-38915196D01*
X77309505Y-38918796D01*
X77285001Y-38920000D01*
X76384999Y-38920000D01*
X76360495Y-38918796D01*
X76336227Y-38915196D01*
X76312428Y-38909235D01*
X76289329Y-38900970D01*
X76267150Y-38890480D01*
X76246107Y-38877868D01*
X76226401Y-38863253D01*
X76208223Y-38846777D01*
X76191747Y-38828599D01*
X76177132Y-38808893D01*
X76164520Y-38787850D01*
X76154030Y-38765671D01*
X76145765Y-38742572D01*
X76139804Y-38718773D01*
X76136204Y-38694505D01*
X76135000Y-38670001D01*
X76135000Y-38019999D01*
X76136204Y-37995495D01*
X76139804Y-37971227D01*
X76145765Y-37947428D01*
X76154030Y-37924329D01*
X76164520Y-37902150D01*
X76177132Y-37881107D01*
X76191747Y-37861401D01*
X76208223Y-37843223D01*
X76226401Y-37826747D01*
X76246107Y-37812132D01*
X76267150Y-37799520D01*
X76289329Y-37789030D01*
X76312428Y-37780765D01*
X76336227Y-37774804D01*
X76360495Y-37771204D01*
X76384999Y-37770000D01*
X77285001Y-37770000D01*
X77309505Y-37771204D01*
X77309505Y-37771204D01*
G37*
D15*
X76835000Y-38345000D03*
D14*
G36*
X77309505Y-39821204D02*
G01*
X77333773Y-39824804D01*
X77357572Y-39830765D01*
X77380671Y-39839030D01*
X77402850Y-39849520D01*
X77423893Y-39862132D01*
X77443599Y-39876747D01*
X77461777Y-39893223D01*
X77478253Y-39911401D01*
X77492868Y-39931107D01*
X77505480Y-39952150D01*
X77515970Y-39974329D01*
X77524235Y-39997428D01*
X77530196Y-40021227D01*
X77533796Y-40045495D01*
X77535000Y-40069999D01*
X77535000Y-40720001D01*
X77533796Y-40744505D01*
X77530196Y-40768773D01*
X77524235Y-40792572D01*
X77515970Y-40815671D01*
X77505480Y-40837850D01*
X77492868Y-40858893D01*
X77478253Y-40878599D01*
X77461777Y-40896777D01*
X77443599Y-40913253D01*
X77423893Y-40927868D01*
X77402850Y-40940480D01*
X77380671Y-40950970D01*
X77357572Y-40959235D01*
X77333773Y-40965196D01*
X77309505Y-40968796D01*
X77285001Y-40970000D01*
X76384999Y-40970000D01*
X76360495Y-40968796D01*
X76336227Y-40965196D01*
X76312428Y-40959235D01*
X76289329Y-40950970D01*
X76267150Y-40940480D01*
X76246107Y-40927868D01*
X76226401Y-40913253D01*
X76208223Y-40896777D01*
X76191747Y-40878599D01*
X76177132Y-40858893D01*
X76164520Y-40837850D01*
X76154030Y-40815671D01*
X76145765Y-40792572D01*
X76139804Y-40768773D01*
X76136204Y-40744505D01*
X76135000Y-40720001D01*
X76135000Y-40069999D01*
X76136204Y-40045495D01*
X76139804Y-40021227D01*
X76145765Y-39997428D01*
X76154030Y-39974329D01*
X76164520Y-39952150D01*
X76177132Y-39931107D01*
X76191747Y-39911401D01*
X76208223Y-39893223D01*
X76226401Y-39876747D01*
X76246107Y-39862132D01*
X76267150Y-39849520D01*
X76289329Y-39839030D01*
X76312428Y-39830765D01*
X76336227Y-39824804D01*
X76360495Y-39821204D01*
X76384999Y-39820000D01*
X77285001Y-39820000D01*
X77309505Y-39821204D01*
X77309505Y-39821204D01*
G37*
D15*
X76835000Y-40395000D03*
D14*
G36*
X66514505Y-39821204D02*
G01*
X66538773Y-39824804D01*
X66562572Y-39830765D01*
X66585671Y-39839030D01*
X66607850Y-39849520D01*
X66628893Y-39862132D01*
X66648599Y-39876747D01*
X66666777Y-39893223D01*
X66683253Y-39911401D01*
X66697868Y-39931107D01*
X66710480Y-39952150D01*
X66720970Y-39974329D01*
X66729235Y-39997428D01*
X66735196Y-40021227D01*
X66738796Y-40045495D01*
X66740000Y-40069999D01*
X66740000Y-40720001D01*
X66738796Y-40744505D01*
X66735196Y-40768773D01*
X66729235Y-40792572D01*
X66720970Y-40815671D01*
X66710480Y-40837850D01*
X66697868Y-40858893D01*
X66683253Y-40878599D01*
X66666777Y-40896777D01*
X66648599Y-40913253D01*
X66628893Y-40927868D01*
X66607850Y-40940480D01*
X66585671Y-40950970D01*
X66562572Y-40959235D01*
X66538773Y-40965196D01*
X66514505Y-40968796D01*
X66490001Y-40970000D01*
X65589999Y-40970000D01*
X65565495Y-40968796D01*
X65541227Y-40965196D01*
X65517428Y-40959235D01*
X65494329Y-40950970D01*
X65472150Y-40940480D01*
X65451107Y-40927868D01*
X65431401Y-40913253D01*
X65413223Y-40896777D01*
X65396747Y-40878599D01*
X65382132Y-40858893D01*
X65369520Y-40837850D01*
X65359030Y-40815671D01*
X65350765Y-40792572D01*
X65344804Y-40768773D01*
X65341204Y-40744505D01*
X65340000Y-40720001D01*
X65340000Y-40069999D01*
X65341204Y-40045495D01*
X65344804Y-40021227D01*
X65350765Y-39997428D01*
X65359030Y-39974329D01*
X65369520Y-39952150D01*
X65382132Y-39931107D01*
X65396747Y-39911401D01*
X65413223Y-39893223D01*
X65431401Y-39876747D01*
X65451107Y-39862132D01*
X65472150Y-39849520D01*
X65494329Y-39839030D01*
X65517428Y-39830765D01*
X65541227Y-39824804D01*
X65565495Y-39821204D01*
X65589999Y-39820000D01*
X66490001Y-39820000D01*
X66514505Y-39821204D01*
X66514505Y-39821204D01*
G37*
D15*
X66040000Y-40395000D03*
D14*
G36*
X66514505Y-37771204D02*
G01*
X66538773Y-37774804D01*
X66562572Y-37780765D01*
X66585671Y-37789030D01*
X66607850Y-37799520D01*
X66628893Y-37812132D01*
X66648599Y-37826747D01*
X66666777Y-37843223D01*
X66683253Y-37861401D01*
X66697868Y-37881107D01*
X66710480Y-37902150D01*
X66720970Y-37924329D01*
X66729235Y-37947428D01*
X66735196Y-37971227D01*
X66738796Y-37995495D01*
X66740000Y-38019999D01*
X66740000Y-38670001D01*
X66738796Y-38694505D01*
X66735196Y-38718773D01*
X66729235Y-38742572D01*
X66720970Y-38765671D01*
X66710480Y-38787850D01*
X66697868Y-38808893D01*
X66683253Y-38828599D01*
X66666777Y-38846777D01*
X66648599Y-38863253D01*
X66628893Y-38877868D01*
X66607850Y-38890480D01*
X66585671Y-38900970D01*
X66562572Y-38909235D01*
X66538773Y-38915196D01*
X66514505Y-38918796D01*
X66490001Y-38920000D01*
X65589999Y-38920000D01*
X65565495Y-38918796D01*
X65541227Y-38915196D01*
X65517428Y-38909235D01*
X65494329Y-38900970D01*
X65472150Y-38890480D01*
X65451107Y-38877868D01*
X65431401Y-38863253D01*
X65413223Y-38846777D01*
X65396747Y-38828599D01*
X65382132Y-38808893D01*
X65369520Y-38787850D01*
X65359030Y-38765671D01*
X65350765Y-38742572D01*
X65344804Y-38718773D01*
X65341204Y-38694505D01*
X65340000Y-38670001D01*
X65340000Y-38019999D01*
X65341204Y-37995495D01*
X65344804Y-37971227D01*
X65350765Y-37947428D01*
X65359030Y-37924329D01*
X65369520Y-37902150D01*
X65382132Y-37881107D01*
X65396747Y-37861401D01*
X65413223Y-37843223D01*
X65431401Y-37826747D01*
X65451107Y-37812132D01*
X65472150Y-37799520D01*
X65494329Y-37789030D01*
X65517428Y-37780765D01*
X65541227Y-37774804D01*
X65565495Y-37771204D01*
X65589999Y-37770000D01*
X66490001Y-37770000D01*
X66514505Y-37771204D01*
X66514505Y-37771204D01*
G37*
D15*
X66040000Y-38345000D03*
D14*
G36*
X72864505Y-37771204D02*
G01*
X72888773Y-37774804D01*
X72912572Y-37780765D01*
X72935671Y-37789030D01*
X72957850Y-37799520D01*
X72978893Y-37812132D01*
X72998599Y-37826747D01*
X73016777Y-37843223D01*
X73033253Y-37861401D01*
X73047868Y-37881107D01*
X73060480Y-37902150D01*
X73070970Y-37924329D01*
X73079235Y-37947428D01*
X73085196Y-37971227D01*
X73088796Y-37995495D01*
X73090000Y-38019999D01*
X73090000Y-38670001D01*
X73088796Y-38694505D01*
X73085196Y-38718773D01*
X73079235Y-38742572D01*
X73070970Y-38765671D01*
X73060480Y-38787850D01*
X73047868Y-38808893D01*
X73033253Y-38828599D01*
X73016777Y-38846777D01*
X72998599Y-38863253D01*
X72978893Y-38877868D01*
X72957850Y-38890480D01*
X72935671Y-38900970D01*
X72912572Y-38909235D01*
X72888773Y-38915196D01*
X72864505Y-38918796D01*
X72840001Y-38920000D01*
X71939999Y-38920000D01*
X71915495Y-38918796D01*
X71891227Y-38915196D01*
X71867428Y-38909235D01*
X71844329Y-38900970D01*
X71822150Y-38890480D01*
X71801107Y-38877868D01*
X71781401Y-38863253D01*
X71763223Y-38846777D01*
X71746747Y-38828599D01*
X71732132Y-38808893D01*
X71719520Y-38787850D01*
X71709030Y-38765671D01*
X71700765Y-38742572D01*
X71694804Y-38718773D01*
X71691204Y-38694505D01*
X71690000Y-38670001D01*
X71690000Y-38019999D01*
X71691204Y-37995495D01*
X71694804Y-37971227D01*
X71700765Y-37947428D01*
X71709030Y-37924329D01*
X71719520Y-37902150D01*
X71732132Y-37881107D01*
X71746747Y-37861401D01*
X71763223Y-37843223D01*
X71781401Y-37826747D01*
X71801107Y-37812132D01*
X71822150Y-37799520D01*
X71844329Y-37789030D01*
X71867428Y-37780765D01*
X71891227Y-37774804D01*
X71915495Y-37771204D01*
X71939999Y-37770000D01*
X72840001Y-37770000D01*
X72864505Y-37771204D01*
X72864505Y-37771204D01*
G37*
D15*
X72390000Y-38345000D03*
D14*
G36*
X72864505Y-39821204D02*
G01*
X72888773Y-39824804D01*
X72912572Y-39830765D01*
X72935671Y-39839030D01*
X72957850Y-39849520D01*
X72978893Y-39862132D01*
X72998599Y-39876747D01*
X73016777Y-39893223D01*
X73033253Y-39911401D01*
X73047868Y-39931107D01*
X73060480Y-39952150D01*
X73070970Y-39974329D01*
X73079235Y-39997428D01*
X73085196Y-40021227D01*
X73088796Y-40045495D01*
X73090000Y-40069999D01*
X73090000Y-40720001D01*
X73088796Y-40744505D01*
X73085196Y-40768773D01*
X73079235Y-40792572D01*
X73070970Y-40815671D01*
X73060480Y-40837850D01*
X73047868Y-40858893D01*
X73033253Y-40878599D01*
X73016777Y-40896777D01*
X72998599Y-40913253D01*
X72978893Y-40927868D01*
X72957850Y-40940480D01*
X72935671Y-40950970D01*
X72912572Y-40959235D01*
X72888773Y-40965196D01*
X72864505Y-40968796D01*
X72840001Y-40970000D01*
X71939999Y-40970000D01*
X71915495Y-40968796D01*
X71891227Y-40965196D01*
X71867428Y-40959235D01*
X71844329Y-40950970D01*
X71822150Y-40940480D01*
X71801107Y-40927868D01*
X71781401Y-40913253D01*
X71763223Y-40896777D01*
X71746747Y-40878599D01*
X71732132Y-40858893D01*
X71719520Y-40837850D01*
X71709030Y-40815671D01*
X71700765Y-40792572D01*
X71694804Y-40768773D01*
X71691204Y-40744505D01*
X71690000Y-40720001D01*
X71690000Y-40069999D01*
X71691204Y-40045495D01*
X71694804Y-40021227D01*
X71700765Y-39997428D01*
X71709030Y-39974329D01*
X71719520Y-39952150D01*
X71732132Y-39931107D01*
X71746747Y-39911401D01*
X71763223Y-39893223D01*
X71781401Y-39876747D01*
X71801107Y-39862132D01*
X71822150Y-39849520D01*
X71844329Y-39839030D01*
X71867428Y-39830765D01*
X71891227Y-39824804D01*
X71915495Y-39821204D01*
X71939999Y-39820000D01*
X72840001Y-39820000D01*
X72864505Y-39821204D01*
X72864505Y-39821204D01*
G37*
D15*
X72390000Y-40395000D03*
D16*
X52705000Y-67945000D03*
D17*
X62865000Y-67945000D03*
D18*
X62865000Y-58150000D03*
X61915000Y-56150000D03*
X63815000Y-56150000D03*
D16*
X52705000Y-64770000D03*
D17*
X62865000Y-64770000D03*
X62865000Y-61595000D03*
D16*
X52705000Y-61595000D03*
D17*
X73660000Y-104140000D03*
X66040000Y-127000000D03*
X73660000Y-106680000D03*
X66040000Y-124460000D03*
X73660000Y-109220000D03*
X66040000Y-121920000D03*
X73660000Y-111760000D03*
X66040000Y-119380000D03*
X73660000Y-114300000D03*
X66040000Y-116840000D03*
X73660000Y-116840000D03*
X66040000Y-114300000D03*
X73660000Y-119380000D03*
X66040000Y-111760000D03*
X73660000Y-121920000D03*
X66040000Y-109220000D03*
X73660000Y-124460000D03*
X66040000Y-106680000D03*
X73660000Y-127000000D03*
D19*
X66040000Y-104140000D03*
D17*
X80010000Y-127000000D03*
X95250000Y-93980000D03*
X80010000Y-124460000D03*
X95250000Y-96520000D03*
X80010000Y-121920000D03*
X95250000Y-99060000D03*
X80010000Y-119380000D03*
X95250000Y-101600000D03*
X80010000Y-116840000D03*
X95250000Y-104140000D03*
X80010000Y-114300000D03*
X95250000Y-106680000D03*
X80010000Y-111760000D03*
X95250000Y-109220000D03*
X80010000Y-109220000D03*
X95250000Y-111760000D03*
X80010000Y-106680000D03*
X95250000Y-114300000D03*
X80010000Y-104140000D03*
X95250000Y-116840000D03*
X80010000Y-101600000D03*
X95250000Y-119380000D03*
X80010000Y-99060000D03*
X95250000Y-121920000D03*
X80010000Y-96520000D03*
X95250000Y-124460000D03*
X80010000Y-93980000D03*
D19*
X95250000Y-127000000D03*
D20*
X41910000Y-61595000D03*
D12*
X41910000Y-59055000D03*
D16*
X47625000Y-64095000D03*
D19*
X47625000Y-61595000D03*
D14*
G36*
X54449505Y-56966204D02*
G01*
X54473773Y-56969804D01*
X54497572Y-56975765D01*
X54520671Y-56984030D01*
X54542850Y-56994520D01*
X54563893Y-57007132D01*
X54583599Y-57021747D01*
X54601777Y-57038223D01*
X54618253Y-57056401D01*
X54632868Y-57076107D01*
X54645480Y-57097150D01*
X54655970Y-57119329D01*
X54664235Y-57142428D01*
X54670196Y-57166227D01*
X54673796Y-57190495D01*
X54675000Y-57214999D01*
X54675000Y-57865001D01*
X54673796Y-57889505D01*
X54670196Y-57913773D01*
X54664235Y-57937572D01*
X54655970Y-57960671D01*
X54645480Y-57982850D01*
X54632868Y-58003893D01*
X54618253Y-58023599D01*
X54601777Y-58041777D01*
X54583599Y-58058253D01*
X54563893Y-58072868D01*
X54542850Y-58085480D01*
X54520671Y-58095970D01*
X54497572Y-58104235D01*
X54473773Y-58110196D01*
X54449505Y-58113796D01*
X54425001Y-58115000D01*
X53524999Y-58115000D01*
X53500495Y-58113796D01*
X53476227Y-58110196D01*
X53452428Y-58104235D01*
X53429329Y-58095970D01*
X53407150Y-58085480D01*
X53386107Y-58072868D01*
X53366401Y-58058253D01*
X53348223Y-58041777D01*
X53331747Y-58023599D01*
X53317132Y-58003893D01*
X53304520Y-57982850D01*
X53294030Y-57960671D01*
X53285765Y-57937572D01*
X53279804Y-57913773D01*
X53276204Y-57889505D01*
X53275000Y-57865001D01*
X53275000Y-57214999D01*
X53276204Y-57190495D01*
X53279804Y-57166227D01*
X53285765Y-57142428D01*
X53294030Y-57119329D01*
X53304520Y-57097150D01*
X53317132Y-57076107D01*
X53331747Y-57056401D01*
X53348223Y-57038223D01*
X53366401Y-57021747D01*
X53386107Y-57007132D01*
X53407150Y-56994520D01*
X53429329Y-56984030D01*
X53452428Y-56975765D01*
X53476227Y-56969804D01*
X53500495Y-56966204D01*
X53524999Y-56965000D01*
X54425001Y-56965000D01*
X54449505Y-56966204D01*
X54449505Y-56966204D01*
G37*
D15*
X53975000Y-57540000D03*
D14*
G36*
X54449505Y-54916204D02*
G01*
X54473773Y-54919804D01*
X54497572Y-54925765D01*
X54520671Y-54934030D01*
X54542850Y-54944520D01*
X54563893Y-54957132D01*
X54583599Y-54971747D01*
X54601777Y-54988223D01*
X54618253Y-55006401D01*
X54632868Y-55026107D01*
X54645480Y-55047150D01*
X54655970Y-55069329D01*
X54664235Y-55092428D01*
X54670196Y-55116227D01*
X54673796Y-55140495D01*
X54675000Y-55164999D01*
X54675000Y-55815001D01*
X54673796Y-55839505D01*
X54670196Y-55863773D01*
X54664235Y-55887572D01*
X54655970Y-55910671D01*
X54645480Y-55932850D01*
X54632868Y-55953893D01*
X54618253Y-55973599D01*
X54601777Y-55991777D01*
X54583599Y-56008253D01*
X54563893Y-56022868D01*
X54542850Y-56035480D01*
X54520671Y-56045970D01*
X54497572Y-56054235D01*
X54473773Y-56060196D01*
X54449505Y-56063796D01*
X54425001Y-56065000D01*
X53524999Y-56065000D01*
X53500495Y-56063796D01*
X53476227Y-56060196D01*
X53452428Y-56054235D01*
X53429329Y-56045970D01*
X53407150Y-56035480D01*
X53386107Y-56022868D01*
X53366401Y-56008253D01*
X53348223Y-55991777D01*
X53331747Y-55973599D01*
X53317132Y-55953893D01*
X53304520Y-55932850D01*
X53294030Y-55910671D01*
X53285765Y-55887572D01*
X53279804Y-55863773D01*
X53276204Y-55839505D01*
X53275000Y-55815001D01*
X53275000Y-55164999D01*
X53276204Y-55140495D01*
X53279804Y-55116227D01*
X53285765Y-55092428D01*
X53294030Y-55069329D01*
X53304520Y-55047150D01*
X53317132Y-55026107D01*
X53331747Y-55006401D01*
X53348223Y-54988223D01*
X53366401Y-54971747D01*
X53386107Y-54957132D01*
X53407150Y-54944520D01*
X53429329Y-54934030D01*
X53452428Y-54925765D01*
X53476227Y-54919804D01*
X53500495Y-54916204D01*
X53524999Y-54915000D01*
X54425001Y-54915000D01*
X54449505Y-54916204D01*
X54449505Y-54916204D01*
G37*
D15*
X53975000Y-55490000D03*
D14*
G36*
X52544505Y-56966204D02*
G01*
X52568773Y-56969804D01*
X52592572Y-56975765D01*
X52615671Y-56984030D01*
X52637850Y-56994520D01*
X52658893Y-57007132D01*
X52678599Y-57021747D01*
X52696777Y-57038223D01*
X52713253Y-57056401D01*
X52727868Y-57076107D01*
X52740480Y-57097150D01*
X52750970Y-57119329D01*
X52759235Y-57142428D01*
X52765196Y-57166227D01*
X52768796Y-57190495D01*
X52770000Y-57214999D01*
X52770000Y-57865001D01*
X52768796Y-57889505D01*
X52765196Y-57913773D01*
X52759235Y-57937572D01*
X52750970Y-57960671D01*
X52740480Y-57982850D01*
X52727868Y-58003893D01*
X52713253Y-58023599D01*
X52696777Y-58041777D01*
X52678599Y-58058253D01*
X52658893Y-58072868D01*
X52637850Y-58085480D01*
X52615671Y-58095970D01*
X52592572Y-58104235D01*
X52568773Y-58110196D01*
X52544505Y-58113796D01*
X52520001Y-58115000D01*
X51619999Y-58115000D01*
X51595495Y-58113796D01*
X51571227Y-58110196D01*
X51547428Y-58104235D01*
X51524329Y-58095970D01*
X51502150Y-58085480D01*
X51481107Y-58072868D01*
X51461401Y-58058253D01*
X51443223Y-58041777D01*
X51426747Y-58023599D01*
X51412132Y-58003893D01*
X51399520Y-57982850D01*
X51389030Y-57960671D01*
X51380765Y-57937572D01*
X51374804Y-57913773D01*
X51371204Y-57889505D01*
X51370000Y-57865001D01*
X51370000Y-57214999D01*
X51371204Y-57190495D01*
X51374804Y-57166227D01*
X51380765Y-57142428D01*
X51389030Y-57119329D01*
X51399520Y-57097150D01*
X51412132Y-57076107D01*
X51426747Y-57056401D01*
X51443223Y-57038223D01*
X51461401Y-57021747D01*
X51481107Y-57007132D01*
X51502150Y-56994520D01*
X51524329Y-56984030D01*
X51547428Y-56975765D01*
X51571227Y-56969804D01*
X51595495Y-56966204D01*
X51619999Y-56965000D01*
X52520001Y-56965000D01*
X52544505Y-56966204D01*
X52544505Y-56966204D01*
G37*
D15*
X52070000Y-57540000D03*
D14*
G36*
X52544505Y-54916204D02*
G01*
X52568773Y-54919804D01*
X52592572Y-54925765D01*
X52615671Y-54934030D01*
X52637850Y-54944520D01*
X52658893Y-54957132D01*
X52678599Y-54971747D01*
X52696777Y-54988223D01*
X52713253Y-55006401D01*
X52727868Y-55026107D01*
X52740480Y-55047150D01*
X52750970Y-55069329D01*
X52759235Y-55092428D01*
X52765196Y-55116227D01*
X52768796Y-55140495D01*
X52770000Y-55164999D01*
X52770000Y-55815001D01*
X52768796Y-55839505D01*
X52765196Y-55863773D01*
X52759235Y-55887572D01*
X52750970Y-55910671D01*
X52740480Y-55932850D01*
X52727868Y-55953893D01*
X52713253Y-55973599D01*
X52696777Y-55991777D01*
X52678599Y-56008253D01*
X52658893Y-56022868D01*
X52637850Y-56035480D01*
X52615671Y-56045970D01*
X52592572Y-56054235D01*
X52568773Y-56060196D01*
X52544505Y-56063796D01*
X52520001Y-56065000D01*
X51619999Y-56065000D01*
X51595495Y-56063796D01*
X51571227Y-56060196D01*
X51547428Y-56054235D01*
X51524329Y-56045970D01*
X51502150Y-56035480D01*
X51481107Y-56022868D01*
X51461401Y-56008253D01*
X51443223Y-55991777D01*
X51426747Y-55973599D01*
X51412132Y-55953893D01*
X51399520Y-55932850D01*
X51389030Y-55910671D01*
X51380765Y-55887572D01*
X51374804Y-55863773D01*
X51371204Y-55839505D01*
X51370000Y-55815001D01*
X51370000Y-55164999D01*
X51371204Y-55140495D01*
X51374804Y-55116227D01*
X51380765Y-55092428D01*
X51389030Y-55069329D01*
X51399520Y-55047150D01*
X51412132Y-55026107D01*
X51426747Y-55006401D01*
X51443223Y-54988223D01*
X51461401Y-54971747D01*
X51481107Y-54957132D01*
X51502150Y-54944520D01*
X51524329Y-54934030D01*
X51547428Y-54925765D01*
X51571227Y-54919804D01*
X51595495Y-54916204D01*
X51619999Y-54915000D01*
X52520001Y-54915000D01*
X52544505Y-54916204D01*
X52544505Y-54916204D01*
G37*
D15*
X52070000Y-55490000D03*
D14*
G36*
X50639505Y-56966204D02*
G01*
X50663773Y-56969804D01*
X50687572Y-56975765D01*
X50710671Y-56984030D01*
X50732850Y-56994520D01*
X50753893Y-57007132D01*
X50773599Y-57021747D01*
X50791777Y-57038223D01*
X50808253Y-57056401D01*
X50822868Y-57076107D01*
X50835480Y-57097150D01*
X50845970Y-57119329D01*
X50854235Y-57142428D01*
X50860196Y-57166227D01*
X50863796Y-57190495D01*
X50865000Y-57214999D01*
X50865000Y-57865001D01*
X50863796Y-57889505D01*
X50860196Y-57913773D01*
X50854235Y-57937572D01*
X50845970Y-57960671D01*
X50835480Y-57982850D01*
X50822868Y-58003893D01*
X50808253Y-58023599D01*
X50791777Y-58041777D01*
X50773599Y-58058253D01*
X50753893Y-58072868D01*
X50732850Y-58085480D01*
X50710671Y-58095970D01*
X50687572Y-58104235D01*
X50663773Y-58110196D01*
X50639505Y-58113796D01*
X50615001Y-58115000D01*
X49714999Y-58115000D01*
X49690495Y-58113796D01*
X49666227Y-58110196D01*
X49642428Y-58104235D01*
X49619329Y-58095970D01*
X49597150Y-58085480D01*
X49576107Y-58072868D01*
X49556401Y-58058253D01*
X49538223Y-58041777D01*
X49521747Y-58023599D01*
X49507132Y-58003893D01*
X49494520Y-57982850D01*
X49484030Y-57960671D01*
X49475765Y-57937572D01*
X49469804Y-57913773D01*
X49466204Y-57889505D01*
X49465000Y-57865001D01*
X49465000Y-57214999D01*
X49466204Y-57190495D01*
X49469804Y-57166227D01*
X49475765Y-57142428D01*
X49484030Y-57119329D01*
X49494520Y-57097150D01*
X49507132Y-57076107D01*
X49521747Y-57056401D01*
X49538223Y-57038223D01*
X49556401Y-57021747D01*
X49576107Y-57007132D01*
X49597150Y-56994520D01*
X49619329Y-56984030D01*
X49642428Y-56975765D01*
X49666227Y-56969804D01*
X49690495Y-56966204D01*
X49714999Y-56965000D01*
X50615001Y-56965000D01*
X50639505Y-56966204D01*
X50639505Y-56966204D01*
G37*
D15*
X50165000Y-57540000D03*
D14*
G36*
X50639505Y-54916204D02*
G01*
X50663773Y-54919804D01*
X50687572Y-54925765D01*
X50710671Y-54934030D01*
X50732850Y-54944520D01*
X50753893Y-54957132D01*
X50773599Y-54971747D01*
X50791777Y-54988223D01*
X50808253Y-55006401D01*
X50822868Y-55026107D01*
X50835480Y-55047150D01*
X50845970Y-55069329D01*
X50854235Y-55092428D01*
X50860196Y-55116227D01*
X50863796Y-55140495D01*
X50865000Y-55164999D01*
X50865000Y-55815001D01*
X50863796Y-55839505D01*
X50860196Y-55863773D01*
X50854235Y-55887572D01*
X50845970Y-55910671D01*
X50835480Y-55932850D01*
X50822868Y-55953893D01*
X50808253Y-55973599D01*
X50791777Y-55991777D01*
X50773599Y-56008253D01*
X50753893Y-56022868D01*
X50732850Y-56035480D01*
X50710671Y-56045970D01*
X50687572Y-56054235D01*
X50663773Y-56060196D01*
X50639505Y-56063796D01*
X50615001Y-56065000D01*
X49714999Y-56065000D01*
X49690495Y-56063796D01*
X49666227Y-56060196D01*
X49642428Y-56054235D01*
X49619329Y-56045970D01*
X49597150Y-56035480D01*
X49576107Y-56022868D01*
X49556401Y-56008253D01*
X49538223Y-55991777D01*
X49521747Y-55973599D01*
X49507132Y-55953893D01*
X49494520Y-55932850D01*
X49484030Y-55910671D01*
X49475765Y-55887572D01*
X49469804Y-55863773D01*
X49466204Y-55839505D01*
X49465000Y-55815001D01*
X49465000Y-55164999D01*
X49466204Y-55140495D01*
X49469804Y-55116227D01*
X49475765Y-55092428D01*
X49484030Y-55069329D01*
X49494520Y-55047150D01*
X49507132Y-55026107D01*
X49521747Y-55006401D01*
X49538223Y-54988223D01*
X49556401Y-54971747D01*
X49576107Y-54957132D01*
X49597150Y-54944520D01*
X49619329Y-54934030D01*
X49642428Y-54925765D01*
X49666227Y-54919804D01*
X49690495Y-54916204D01*
X49714999Y-54915000D01*
X50615001Y-54915000D01*
X50639505Y-54916204D01*
X50639505Y-54916204D01*
G37*
D15*
X50165000Y-55490000D03*
D14*
G36*
X52544505Y-50471204D02*
G01*
X52568773Y-50474804D01*
X52592572Y-50480765D01*
X52615671Y-50489030D01*
X52637850Y-50499520D01*
X52658893Y-50512132D01*
X52678599Y-50526747D01*
X52696777Y-50543223D01*
X52713253Y-50561401D01*
X52727868Y-50581107D01*
X52740480Y-50602150D01*
X52750970Y-50624329D01*
X52759235Y-50647428D01*
X52765196Y-50671227D01*
X52768796Y-50695495D01*
X52770000Y-50719999D01*
X52770000Y-51370001D01*
X52768796Y-51394505D01*
X52765196Y-51418773D01*
X52759235Y-51442572D01*
X52750970Y-51465671D01*
X52740480Y-51487850D01*
X52727868Y-51508893D01*
X52713253Y-51528599D01*
X52696777Y-51546777D01*
X52678599Y-51563253D01*
X52658893Y-51577868D01*
X52637850Y-51590480D01*
X52615671Y-51600970D01*
X52592572Y-51609235D01*
X52568773Y-51615196D01*
X52544505Y-51618796D01*
X52520001Y-51620000D01*
X51619999Y-51620000D01*
X51595495Y-51618796D01*
X51571227Y-51615196D01*
X51547428Y-51609235D01*
X51524329Y-51600970D01*
X51502150Y-51590480D01*
X51481107Y-51577868D01*
X51461401Y-51563253D01*
X51443223Y-51546777D01*
X51426747Y-51528599D01*
X51412132Y-51508893D01*
X51399520Y-51487850D01*
X51389030Y-51465671D01*
X51380765Y-51442572D01*
X51374804Y-51418773D01*
X51371204Y-51394505D01*
X51370000Y-51370001D01*
X51370000Y-50719999D01*
X51371204Y-50695495D01*
X51374804Y-50671227D01*
X51380765Y-50647428D01*
X51389030Y-50624329D01*
X51399520Y-50602150D01*
X51412132Y-50581107D01*
X51426747Y-50561401D01*
X51443223Y-50543223D01*
X51461401Y-50526747D01*
X51481107Y-50512132D01*
X51502150Y-50499520D01*
X51524329Y-50489030D01*
X51547428Y-50480765D01*
X51571227Y-50474804D01*
X51595495Y-50471204D01*
X51619999Y-50470000D01*
X52520001Y-50470000D01*
X52544505Y-50471204D01*
X52544505Y-50471204D01*
G37*
D15*
X52070000Y-51045000D03*
D14*
G36*
X52544505Y-52521204D02*
G01*
X52568773Y-52524804D01*
X52592572Y-52530765D01*
X52615671Y-52539030D01*
X52637850Y-52549520D01*
X52658893Y-52562132D01*
X52678599Y-52576747D01*
X52696777Y-52593223D01*
X52713253Y-52611401D01*
X52727868Y-52631107D01*
X52740480Y-52652150D01*
X52750970Y-52674329D01*
X52759235Y-52697428D01*
X52765196Y-52721227D01*
X52768796Y-52745495D01*
X52770000Y-52769999D01*
X52770000Y-53420001D01*
X52768796Y-53444505D01*
X52765196Y-53468773D01*
X52759235Y-53492572D01*
X52750970Y-53515671D01*
X52740480Y-53537850D01*
X52727868Y-53558893D01*
X52713253Y-53578599D01*
X52696777Y-53596777D01*
X52678599Y-53613253D01*
X52658893Y-53627868D01*
X52637850Y-53640480D01*
X52615671Y-53650970D01*
X52592572Y-53659235D01*
X52568773Y-53665196D01*
X52544505Y-53668796D01*
X52520001Y-53670000D01*
X51619999Y-53670000D01*
X51595495Y-53668796D01*
X51571227Y-53665196D01*
X51547428Y-53659235D01*
X51524329Y-53650970D01*
X51502150Y-53640480D01*
X51481107Y-53627868D01*
X51461401Y-53613253D01*
X51443223Y-53596777D01*
X51426747Y-53578599D01*
X51412132Y-53558893D01*
X51399520Y-53537850D01*
X51389030Y-53515671D01*
X51380765Y-53492572D01*
X51374804Y-53468773D01*
X51371204Y-53444505D01*
X51370000Y-53420001D01*
X51370000Y-52769999D01*
X51371204Y-52745495D01*
X51374804Y-52721227D01*
X51380765Y-52697428D01*
X51389030Y-52674329D01*
X51399520Y-52652150D01*
X51412132Y-52631107D01*
X51426747Y-52611401D01*
X51443223Y-52593223D01*
X51461401Y-52576747D01*
X51481107Y-52562132D01*
X51502150Y-52549520D01*
X51524329Y-52539030D01*
X51547428Y-52530765D01*
X51571227Y-52524804D01*
X51595495Y-52521204D01*
X51619999Y-52520000D01*
X52520001Y-52520000D01*
X52544505Y-52521204D01*
X52544505Y-52521204D01*
G37*
D15*
X52070000Y-53095000D03*
D14*
G36*
X63339505Y-50471204D02*
G01*
X63363773Y-50474804D01*
X63387572Y-50480765D01*
X63410671Y-50489030D01*
X63432850Y-50499520D01*
X63453893Y-50512132D01*
X63473599Y-50526747D01*
X63491777Y-50543223D01*
X63508253Y-50561401D01*
X63522868Y-50581107D01*
X63535480Y-50602150D01*
X63545970Y-50624329D01*
X63554235Y-50647428D01*
X63560196Y-50671227D01*
X63563796Y-50695495D01*
X63565000Y-50719999D01*
X63565000Y-51370001D01*
X63563796Y-51394505D01*
X63560196Y-51418773D01*
X63554235Y-51442572D01*
X63545970Y-51465671D01*
X63535480Y-51487850D01*
X63522868Y-51508893D01*
X63508253Y-51528599D01*
X63491777Y-51546777D01*
X63473599Y-51563253D01*
X63453893Y-51577868D01*
X63432850Y-51590480D01*
X63410671Y-51600970D01*
X63387572Y-51609235D01*
X63363773Y-51615196D01*
X63339505Y-51618796D01*
X63315001Y-51620000D01*
X62414999Y-51620000D01*
X62390495Y-51618796D01*
X62366227Y-51615196D01*
X62342428Y-51609235D01*
X62319329Y-51600970D01*
X62297150Y-51590480D01*
X62276107Y-51577868D01*
X62256401Y-51563253D01*
X62238223Y-51546777D01*
X62221747Y-51528599D01*
X62207132Y-51508893D01*
X62194520Y-51487850D01*
X62184030Y-51465671D01*
X62175765Y-51442572D01*
X62169804Y-51418773D01*
X62166204Y-51394505D01*
X62165000Y-51370001D01*
X62165000Y-50719999D01*
X62166204Y-50695495D01*
X62169804Y-50671227D01*
X62175765Y-50647428D01*
X62184030Y-50624329D01*
X62194520Y-50602150D01*
X62207132Y-50581107D01*
X62221747Y-50561401D01*
X62238223Y-50543223D01*
X62256401Y-50526747D01*
X62276107Y-50512132D01*
X62297150Y-50499520D01*
X62319329Y-50489030D01*
X62342428Y-50480765D01*
X62366227Y-50474804D01*
X62390495Y-50471204D01*
X62414999Y-50470000D01*
X63315001Y-50470000D01*
X63339505Y-50471204D01*
X63339505Y-50471204D01*
G37*
D15*
X62865000Y-51045000D03*
D14*
G36*
X63339505Y-52521204D02*
G01*
X63363773Y-52524804D01*
X63387572Y-52530765D01*
X63410671Y-52539030D01*
X63432850Y-52549520D01*
X63453893Y-52562132D01*
X63473599Y-52576747D01*
X63491777Y-52593223D01*
X63508253Y-52611401D01*
X63522868Y-52631107D01*
X63535480Y-52652150D01*
X63545970Y-52674329D01*
X63554235Y-52697428D01*
X63560196Y-52721227D01*
X63563796Y-52745495D01*
X63565000Y-52769999D01*
X63565000Y-53420001D01*
X63563796Y-53444505D01*
X63560196Y-53468773D01*
X63554235Y-53492572D01*
X63545970Y-53515671D01*
X63535480Y-53537850D01*
X63522868Y-53558893D01*
X63508253Y-53578599D01*
X63491777Y-53596777D01*
X63473599Y-53613253D01*
X63453893Y-53627868D01*
X63432850Y-53640480D01*
X63410671Y-53650970D01*
X63387572Y-53659235D01*
X63363773Y-53665196D01*
X63339505Y-53668796D01*
X63315001Y-53670000D01*
X62414999Y-53670000D01*
X62390495Y-53668796D01*
X62366227Y-53665196D01*
X62342428Y-53659235D01*
X62319329Y-53650970D01*
X62297150Y-53640480D01*
X62276107Y-53627868D01*
X62256401Y-53613253D01*
X62238223Y-53596777D01*
X62221747Y-53578599D01*
X62207132Y-53558893D01*
X62194520Y-53537850D01*
X62184030Y-53515671D01*
X62175765Y-53492572D01*
X62169804Y-53468773D01*
X62166204Y-53444505D01*
X62165000Y-53420001D01*
X62165000Y-52769999D01*
X62166204Y-52745495D01*
X62169804Y-52721227D01*
X62175765Y-52697428D01*
X62184030Y-52674329D01*
X62194520Y-52652150D01*
X62207132Y-52631107D01*
X62221747Y-52611401D01*
X62238223Y-52593223D01*
X62256401Y-52576747D01*
X62276107Y-52562132D01*
X62297150Y-52549520D01*
X62319329Y-52539030D01*
X62342428Y-52530765D01*
X62366227Y-52524804D01*
X62390495Y-52521204D01*
X62414999Y-52520000D01*
X63315001Y-52520000D01*
X63339505Y-52521204D01*
X63339505Y-52521204D01*
G37*
D15*
X62865000Y-53095000D03*
D19*
X58420000Y-53340000D03*
D16*
X58420000Y-50840000D03*
D14*
G36*
X54449505Y-52521204D02*
G01*
X54473773Y-52524804D01*
X54497572Y-52530765D01*
X54520671Y-52539030D01*
X54542850Y-52549520D01*
X54563893Y-52562132D01*
X54583599Y-52576747D01*
X54601777Y-52593223D01*
X54618253Y-52611401D01*
X54632868Y-52631107D01*
X54645480Y-52652150D01*
X54655970Y-52674329D01*
X54664235Y-52697428D01*
X54670196Y-52721227D01*
X54673796Y-52745495D01*
X54675000Y-52769999D01*
X54675000Y-53420001D01*
X54673796Y-53444505D01*
X54670196Y-53468773D01*
X54664235Y-53492572D01*
X54655970Y-53515671D01*
X54645480Y-53537850D01*
X54632868Y-53558893D01*
X54618253Y-53578599D01*
X54601777Y-53596777D01*
X54583599Y-53613253D01*
X54563893Y-53627868D01*
X54542850Y-53640480D01*
X54520671Y-53650970D01*
X54497572Y-53659235D01*
X54473773Y-53665196D01*
X54449505Y-53668796D01*
X54425001Y-53670000D01*
X53524999Y-53670000D01*
X53500495Y-53668796D01*
X53476227Y-53665196D01*
X53452428Y-53659235D01*
X53429329Y-53650970D01*
X53407150Y-53640480D01*
X53386107Y-53627868D01*
X53366401Y-53613253D01*
X53348223Y-53596777D01*
X53331747Y-53578599D01*
X53317132Y-53558893D01*
X53304520Y-53537850D01*
X53294030Y-53515671D01*
X53285765Y-53492572D01*
X53279804Y-53468773D01*
X53276204Y-53444505D01*
X53275000Y-53420001D01*
X53275000Y-52769999D01*
X53276204Y-52745495D01*
X53279804Y-52721227D01*
X53285765Y-52697428D01*
X53294030Y-52674329D01*
X53304520Y-52652150D01*
X53317132Y-52631107D01*
X53331747Y-52611401D01*
X53348223Y-52593223D01*
X53366401Y-52576747D01*
X53386107Y-52562132D01*
X53407150Y-52549520D01*
X53429329Y-52539030D01*
X53452428Y-52530765D01*
X53476227Y-52524804D01*
X53500495Y-52521204D01*
X53524999Y-52520000D01*
X54425001Y-52520000D01*
X54449505Y-52521204D01*
X54449505Y-52521204D01*
G37*
D15*
X53975000Y-53095000D03*
D14*
G36*
X54449505Y-50471204D02*
G01*
X54473773Y-50474804D01*
X54497572Y-50480765D01*
X54520671Y-50489030D01*
X54542850Y-50499520D01*
X54563893Y-50512132D01*
X54583599Y-50526747D01*
X54601777Y-50543223D01*
X54618253Y-50561401D01*
X54632868Y-50581107D01*
X54645480Y-50602150D01*
X54655970Y-50624329D01*
X54664235Y-50647428D01*
X54670196Y-50671227D01*
X54673796Y-50695495D01*
X54675000Y-50719999D01*
X54675000Y-51370001D01*
X54673796Y-51394505D01*
X54670196Y-51418773D01*
X54664235Y-51442572D01*
X54655970Y-51465671D01*
X54645480Y-51487850D01*
X54632868Y-51508893D01*
X54618253Y-51528599D01*
X54601777Y-51546777D01*
X54583599Y-51563253D01*
X54563893Y-51577868D01*
X54542850Y-51590480D01*
X54520671Y-51600970D01*
X54497572Y-51609235D01*
X54473773Y-51615196D01*
X54449505Y-51618796D01*
X54425001Y-51620000D01*
X53524999Y-51620000D01*
X53500495Y-51618796D01*
X53476227Y-51615196D01*
X53452428Y-51609235D01*
X53429329Y-51600970D01*
X53407150Y-51590480D01*
X53386107Y-51577868D01*
X53366401Y-51563253D01*
X53348223Y-51546777D01*
X53331747Y-51528599D01*
X53317132Y-51508893D01*
X53304520Y-51487850D01*
X53294030Y-51465671D01*
X53285765Y-51442572D01*
X53279804Y-51418773D01*
X53276204Y-51394505D01*
X53275000Y-51370001D01*
X53275000Y-50719999D01*
X53276204Y-50695495D01*
X53279804Y-50671227D01*
X53285765Y-50647428D01*
X53294030Y-50624329D01*
X53304520Y-50602150D01*
X53317132Y-50581107D01*
X53331747Y-50561401D01*
X53348223Y-50543223D01*
X53366401Y-50526747D01*
X53386107Y-50512132D01*
X53407150Y-50499520D01*
X53429329Y-50489030D01*
X53452428Y-50480765D01*
X53476227Y-50474804D01*
X53500495Y-50471204D01*
X53524999Y-50470000D01*
X54425001Y-50470000D01*
X54449505Y-50471204D01*
X54449505Y-50471204D01*
G37*
D15*
X53975000Y-51045000D03*
D21*
X67520000Y-55660000D03*
X67520000Y-55010000D03*
X67520000Y-54360000D03*
X67520000Y-53710000D03*
X67520000Y-53060000D03*
X67520000Y-52410000D03*
X67520000Y-51760000D03*
X67520000Y-51110000D03*
X67520000Y-50460000D03*
X67520000Y-49810000D03*
X67520000Y-49160000D03*
X67520000Y-48510000D03*
X67520000Y-47860000D03*
X67520000Y-47210000D03*
X74720000Y-47210000D03*
X74720000Y-47860000D03*
X74720000Y-48510000D03*
X74720000Y-49160000D03*
X74720000Y-49810000D03*
X74720000Y-50460000D03*
X74720000Y-51110000D03*
X74720000Y-51760000D03*
X74720000Y-52410000D03*
X74720000Y-53060000D03*
X74720000Y-53710000D03*
X74720000Y-54360000D03*
X74720000Y-55010000D03*
X74720000Y-55660000D03*
D18*
X59370000Y-56150000D03*
X57470000Y-56150000D03*
X58420000Y-58150000D03*
D17*
X107950000Y-87630000D03*
X80010000Y-72390000D03*
X105410000Y-87630000D03*
X82550000Y-72390000D03*
X102870000Y-87630000D03*
X85090000Y-72390000D03*
X100330000Y-87630000D03*
X87630000Y-72390000D03*
X97790000Y-87630000D03*
X90170000Y-72390000D03*
X95250000Y-87630000D03*
X92710000Y-72390000D03*
X92710000Y-87630000D03*
X95250000Y-72390000D03*
X90170000Y-87630000D03*
X97790000Y-72390000D03*
X87630000Y-87630000D03*
X100330000Y-72390000D03*
X85090000Y-87630000D03*
X102870000Y-72390000D03*
X82550000Y-87630000D03*
X105410000Y-72390000D03*
X80010000Y-87630000D03*
D19*
X107950000Y-72390000D03*
X80010000Y-66040000D03*
D17*
X128270000Y-50800000D03*
X82550000Y-66040000D03*
X125730000Y-50800000D03*
X85090000Y-66040000D03*
X123190000Y-50800000D03*
X87630000Y-66040000D03*
X120650000Y-50800000D03*
X90170000Y-66040000D03*
X118110000Y-50800000D03*
X92710000Y-66040000D03*
X115570000Y-50800000D03*
X95250000Y-66040000D03*
X113030000Y-50800000D03*
X97790000Y-66040000D03*
X110490000Y-50800000D03*
X100330000Y-66040000D03*
X107950000Y-50800000D03*
X102870000Y-66040000D03*
X105410000Y-50800000D03*
X105410000Y-66040000D03*
X102870000Y-50800000D03*
X107950000Y-66040000D03*
X100330000Y-50800000D03*
X110490000Y-66040000D03*
X97790000Y-50800000D03*
X113030000Y-66040000D03*
X95250000Y-50800000D03*
X115570000Y-66040000D03*
X92710000Y-50800000D03*
X118110000Y-66040000D03*
X90170000Y-50800000D03*
X120650000Y-66040000D03*
X87630000Y-50800000D03*
X123190000Y-66040000D03*
X85090000Y-50800000D03*
X125730000Y-66040000D03*
X82550000Y-50800000D03*
X128270000Y-66040000D03*
X80010000Y-50800000D03*
X59690000Y-78740000D03*
X44450000Y-127000000D03*
X59690000Y-81280000D03*
X44450000Y-124460000D03*
X59690000Y-83820000D03*
X44450000Y-121920000D03*
X59690000Y-86360000D03*
X44450000Y-119380000D03*
X59690000Y-88900000D03*
X44450000Y-116840000D03*
X59690000Y-91440000D03*
X44450000Y-114300000D03*
X59690000Y-93980000D03*
X44450000Y-111760000D03*
X59690000Y-96520000D03*
X44450000Y-109220000D03*
X59690000Y-99060000D03*
X44450000Y-106680000D03*
X59690000Y-101600000D03*
X44450000Y-104140000D03*
X59690000Y-104140000D03*
X44450000Y-101600000D03*
X59690000Y-106680000D03*
X44450000Y-99060000D03*
X59690000Y-109220000D03*
X44450000Y-96520000D03*
X59690000Y-111760000D03*
X44450000Y-93980000D03*
X59690000Y-114300000D03*
X44450000Y-91440000D03*
X59690000Y-116840000D03*
X44450000Y-88900000D03*
X59690000Y-119380000D03*
X44450000Y-86360000D03*
X59690000Y-121920000D03*
X44450000Y-83820000D03*
X59690000Y-124460000D03*
X44450000Y-81280000D03*
X59690000Y-127000000D03*
D19*
X44450000Y-78740000D03*
D22*
X130000000Y-130000000D03*
X40000000Y-130000000D03*
X130000000Y-40000000D03*
X40000000Y-40000000D03*
D16*
X47625000Y-50840000D03*
D19*
X47625000Y-53340000D03*
D16*
X54610000Y-71160000D03*
X54610000Y-73660000D03*
D19*
X66040000Y-73660000D03*
D17*
X73660000Y-96520000D03*
X66040000Y-76200000D03*
X73660000Y-93980000D03*
X66040000Y-78740000D03*
X73660000Y-91440000D03*
X66040000Y-81280000D03*
X73660000Y-88900000D03*
X66040000Y-83820000D03*
X73660000Y-86360000D03*
X66040000Y-86360000D03*
X73660000Y-83820000D03*
X66040000Y-88900000D03*
X73660000Y-81280000D03*
X66040000Y-91440000D03*
X73660000Y-78740000D03*
X66040000Y-93980000D03*
X73660000Y-76200000D03*
X66040000Y-96520000D03*
X73660000Y-73660000D03*
X100330000Y-127000000D03*
X107950000Y-93980000D03*
X100330000Y-124460000D03*
X107950000Y-96520000D03*
X100330000Y-121920000D03*
X107950000Y-99060000D03*
X100330000Y-119380000D03*
X107950000Y-101600000D03*
X100330000Y-116840000D03*
X107950000Y-104140000D03*
X100330000Y-114300000D03*
X107950000Y-106680000D03*
X100330000Y-111760000D03*
X107950000Y-109220000D03*
X100330000Y-109220000D03*
X107950000Y-111760000D03*
X100330000Y-106680000D03*
X107950000Y-114300000D03*
X100330000Y-104140000D03*
X107950000Y-116840000D03*
X100330000Y-101600000D03*
X107950000Y-119380000D03*
X100330000Y-99060000D03*
X107950000Y-121920000D03*
X100330000Y-96520000D03*
X107950000Y-124460000D03*
X100330000Y-93980000D03*
D19*
X107950000Y-127000000D03*
D23*
X44650000Y-72390000D03*
X49530000Y-72390000D03*
D20*
X41910000Y-53340000D03*
D12*
X41910000Y-50800000D03*
M02*
